/* XPM */
static char *_3a7213821ff4d14c68e1be322484fe48oWOFBtI1dUMZNoc[] = {
/* columns rows colors chars-per-pixel */
"32 32 7 1 ",
"  c None",
". c #183F39",
"X c #1A2A40",
"o c #276468",
"O c #EFB775",
"+ c #3C9F9C",
"@ c #EFD8A1",
/* pixels */
"                                ",
"                                ",
"              ++oo              ",
"              +O..              ",
"              +++o              ",
"              ..+o              ",
"              ...               ",
"           ++......o+           ",
"          +.......o+++          ",
"          ..++oo..o++++         ",
"         ..+++ooo..oooo         ",
"        ...+++ooo......         ",
"       +oo..++oo......o++       ",
"       +oo  .+o.@..   o++       ",
"       +o    ...O.    o+        ",
"       +o    +++o@@   o+        ",
"        ..  .o+o.@O   ..        ",
"        ..  .o+o.oo@ ..         ",
"           ..+++.ooO ..         ",
"           ..o+o..oo@           ",
"          ...o+o..ooO           ",
"          ....+....oo@          ",
"          .......... O          ",
"           +..  ...o  @         ",
"           +oo  ++oo  O         ",
"            +o   +o    @        ",
"            +o   +o    O        ",
"            +o   +o             ",
"           ++o   +o             ",
"         .oooo...o+..           ",
"        ...XXXXXX++o...         ",
"          ....XXXoooX.          "
};
