/* XPM */
static char *da84e9da61884f18a9f93a4809c6268a6Zmy84FWmzgvqD4S[] = {
/* columns rows colors chars-per-pixel */
"32 32 179 2 ",
"   c #000000",
".  c #080705",
"X  c #070908",
"o  c gray3",
"O  c #120E0F",
"+  c #1A150F",
"@  c #191919",
"#  c #271B1D",
"$  c #222222",
"%  c #2D2323",
"&  c #2D2B23",
"*  c #2F2F2E",
"=  c #332325",
"-  c #392623",
";  c #302B25",
":  c #3D2B22",
">  c #402F1D",
",  c #452427",
"<  c #442D24",
"1  c #462329",
"2  c #51222A",
"3  c #5C2A2C",
"4  c #473626",
"5  c #4B3223",
"6  c #4D3A24",
"7  c #553D25",
"8  c #5C3828",
"9  c #63292B",
"0  c #6C2A2C",
"q  c #752F2D",
"w  c #6B3227",
"e  c #663429",
"r  c #72342B",
"t  c #79322C",
"y  c #773C2A",
"u  c #374428",
"i  c #4B4126",
"p  c #574428",
"a  c #594C29",
"s  c #594C32",
"d  c #435235",
"f  c #664125",
"g  c #634629",
"h  c #644C2A",
"j  c #794326",
"k  c #7C5929",
"l  c #774730",
"z  c #7B4230",
"x  c #7E602A",
"c  c #4A4947",
"v  c #565449",
"b  c #585753",
"n  c #735948",
"m  c #677750",
"M  c #84392A",
"N  c #8C3E28",
"B  c #8A4825",
"V  c #84472D",
"C  c #8E4029",
"Z  c #91442A",
"A  c #9C4B2A",
"S  c #9A4E28",
"D  c #9D5024",
"F  c #925D27",
"G  c #9E522B",
"H  c #854430",
"J  c #874932",
"K  c #8C4D31",
"L  c #AC5027",
"P  c #A45826",
"I  c #A4532B",
"U  c #AD5129",
"Y  c #A05C2D",
"T  c #A95E2D",
"R  c #B1562D",
"E  c #B25A29",
"W  c #A95E31",
"Q  c #9E6128",
"!  c #AA6429",
"~  c #BF6026",
"^  c #B36928",
"/  c #BE6A2A",
"(  c #BB732B",
")  c #C66728",
"_  c #D16C28",
"`  c #CD732D",
"'  c #D3742A",
"]  c #D3792B",
"[  c #D97C2C",
"{  c #C86931",
"}  c #CC7D32",
"|  c #D27E33",
" . c #89585E",
".. c #955B50",
"X. c #B47D4A",
"o. c #AB7551",
"O. c #827C70",
"+. c #A37A76",
"@. c #C6784A",
"#. c #CF7C4A",
"$. c #D17C4B",
"%. c #638932",
"&. c #9C8131",
"*. c #AD8234",
"=. c #B88635",
"-. c #CB852F",
";. c #CA892F",
":. c #D7852F",
">. c #D9832C",
",. c #CB8D35",
"<. c #D58530",
"1. c #D28A36",
"2. c #D39636",
"3. c #DC9B36",
"4. c #D59638",
"5. c #E3822C",
"6. c #E8902F",
"7. c #EA9431",
"8. c #F19B35",
"9. c #C5A036",
"0. c #C9A037",
"q. c #D0A735",
"w. c #D4A13B",
"e. c #EAA937",
"r. c #F2AB35",
"t. c #ECB136",
"y. c #EBB639",
"u. c #F4B53A",
"i. c #F6BD3B",
"p. c #B0D03E",
"a. c #C2C93B",
"s. c #F1C73F",
"d. c #8BB550",
"f. c #D2834B",
"g. c #DA9D43",
"h. c #C98E56",
"j. c #CCAE55",
"k. c #FDB747",
"l. c #EDB858",
"z. c #D5A662",
"x. c #E3BE63",
"c. c #9DDB48",
"v. c #A2D35D",
"b. c #ABDF61",
"n. c #E6CA44",
"m. c #F0C94F",
"M. c #F9C55D",
"N. c #F7D25F",
"B. c #C4D960",
"V. c #E1CA64",
"C. c #F8C967",
"Z. c #ECCF7F",
"A. c #7BD8CE",
"S. c #9D9A95",
"D. c #A9B991",
"F. c #87B8A3",
"G. c #A1BEA8",
"H. c #C5A994",
"J. c #D0AA97",
"K. c #C7B699",
"L. c #E5B494",
"P. c #95D0B4",
"I. c #AFD2B1",
"U. c #DCC581",
"Y. c #EECA9A",
"T. c #FDDD9F",
"R. c #D2C6A6",
"E. c #D4C6BA",
"W. c #E0C0A7",
"Q. c #F0DDBF",
"!. c #D0EAA0",
"~. c #EAE4A0",
"^. c #E3E2BB",
"/. c #95D9CA",
"(. c #8DDCD5",
"). c #AFE4DC",
"_. c #DAE0C4",
"`. c #FDE8C1",
"'. c #E9F1E7",
/* pixels */
"      o @ $ $ @ o                             o @ $ $ @ o       ",
"o o o + > 4 - # O o o o X X X X o o X . o o o O # : 4 > + o o o ",
"@ @ @ > F Y r , # @ @ @ @ @ @ @ @ @ @ @ @ @ @ # 1 r G F > @ @ @ ",
"$ & 4 k -.| K 9 8 7 7 7 7 7 7 7 7 7 7 7 7 7 7 8 0 J <.;.k 4 & $ ",
"$ 4 F -.e.3.Y Z ^ ( ( ` ( ( ( ( ` ( ( ( ( ( ( ! Z Y 3.e.;.F 4 $ ",
"$ 7 ^ 6.r.3.T I ' 5.5.[ [ | ` ` ` ` ] [ 5.5.5.` I T 3.r.6.^ 7 $ ",
"$ 5 P ' 6.:.P A E _ _ ) R G J M y C A T ) _ _ ~ G I :.6.] P 5 $ ",
"$ 7 ! >.7.<.G A / ] ] / A M J J K J M A / ] ] / A I :.6.>.! 5 $ ",
"$ p =.t.u.2.K K ,.t.t.,.K H =.3.g.=.J K ,.t.t.,.K K 2.u.t.=.a $ ",
"$ i &.q.y.2.K V *.0.9.*.z J 4.i.m.w.J z *.9.9.*.V K 2.y.q.&.i $ ",
"$ & i x ;.:.G y h a a p 9 H } r.s.w.K 3 p a a g y G :.;.k i & $ ",
"$ & > f Q ! V e - $ $ = 1 r W -.2.=.y 1 % $ $ = e V ! Q f > & $ ",
"$ > j B f 6 < - $ $ $ % % , r M V l < = % $ $ % - > 6 f B j > $ ",
"$ 5 D D > $ $ & u d v v s g H K C l h s v b b c * $ $ 5 D D 5 $ ",
"$ 5 D D 5 $ $ u %.d.D.K.h.,.1.1.4.q.0.j.K.E.E.S.c $ $ 5 D D 5 $ ",
"$ 5 D D 5 ; c m d.b.!.~.M.k.M.C.C.N.m.C._.'.'.E.m 6 & 5 D D 5 $ ",
"% > D D 6 c S.R.v.c.b.B.n.C.T.`.`.T.C.x.I.).'.Q.z.! i 6 I D 5 $ ",
"$ 5 D T n O.R.~.B.p.c.a.s.l.W.E.E.W.x.Z.P.(.).^.C.g.n n W D 5 $ ",
"$ 5 D X.H.R.U.N.n.s.y.y.u.g.o. . .+.W._./.A.(.I.V.m.R.H.@.D 5 # ",
"$ 5 D f.L.Y.l.e.t.e.8.8.8.| A t t ..J.E.G.F.F.D.j.l.Y.L.#.D 5 $ ",
"$ 5 D { $.f.| ] ] ] ' ' ' { R U R R @.h.X.o.X.X.} | f.#.{ S 5 $ ",
"$ < B L L L L L L U L L U R U U U R U U U U U U L L L L L B < $ ",
"$ - 9 t t t t t t t t t t t t t t t t t t t t t t r t t t 9 - $ ",
"$ - 3 0 0 0 0 0 0 0 0 0 0 0 0 q 0 0 0 0 0 0 0 0 0 0 0 0 0 3 = $ ",
"$ - w M M M M M M M M M M M M M M M M M M M M M M M M M M w - $ ",
"# - w M N N N N N N N N N N N Z Z N N Z N N N N N N N N M r - $ ",
"$ = 3 r N N Z N N N N N Z N N N N N N N N N N N Z N N M q 3 = $ ",
"$ % 2 0 t M M M M M M M M M M M M M M M M M M M M M M M 0 2 = $ ",
"$ = 2 9 0 0 0 0 0 0 0 0 0 0 0 0 q 0 0 0 0 0 0 0 0 0 0 0 9 2 = $ ",
"$ = 1 2 2 2 2 2 2 2 2 2 2 2 2 2 2 2 2 2 2 2 2 2 2 2 2 2 2 1 % $ ",
"$ $ % = = = = = = = = = = = = = = = = = = = = = % = = = = % # $ ",
"$ $ $ $ $ $ $ $ $ $ $ $ $ $ $ $ $ $ $ $ $ $ $ $ $ $ $ $ $ $ $ $ "
};
