/* XPM */
static char * chest2_xpm[] = {
"40 40 197 2",
"  	c #40264D",
". 	c #41274E",
"+ 	c #42284F",
"@ 	c #3F254C",
"# 	c #492E57",
"$ 	c #5A3D69",
"% 	c #5B3E6A",
"& 	c #4A3058",
"* 	c #583B67",
"= 	c #5E3F6E",
"- 	c #5D3E6E",
"; 	c #563767",
"> 	c #583968",
", 	c #573868",
"' 	c #573867",
") 	c #5E3F6F",
"! 	c #5C3D6D",
"~ 	c #593A6A",
"{ 	c #593A69",
"] 	c #5B3C6C",
"^ 	c #5D3E6D",
"/ 	c #624373",
"( 	c #614271",
"_ 	c #5F406F",
": 	c #634473",
"< 	c #553666",
"[ 	c #50325F",
"} 	c #3F2748",
"| 	c #3C2445",
"1 	c #3A2246",
"2 	c #372145",
"3 	c #442B4B",
"4 	c #3B272D",
"5 	c #4E312C",
"6 	c #65462B",
"7 	c #7F6231",
"8 	c #987C3E",
"9 	c #9C803E",
"0 	c #9C7F3C",
"a 	c #5E413E",
"b 	c #835A42",
"c 	c #AA7F45",
"d 	c #D1A750",
"e 	c #F3CA64",
"f 	c #F9D272",
"g 	c #F8D377",
"h 	c #F8D277",
"i 	c #AB7F45",
"j 	c #D7AC55",
"k 	c #F5CB63",
"l 	c #FFD671",
"m 	c #FFE5A6",
"n 	c #FFECBC",
"o 	c #FFEBBA",
"p 	c #66472C",
"q 	c #AB8045",
"r 	c #D7AD55",
"s 	c #F3C85E",
"t 	c #FFD978",
"u 	c #FFE3A2",
"v 	c #FFEDC2",
"w 	c #FFF2CE",
"x 	c #FFF2CF",
"y 	c #382146",
"z 	c #74562B",
"A 	c #C49848",
"B 	c #F3C962",
"C 	c #FFDA7A",
"D 	c #FFE29E",
"E 	c #FFF0C7",
"F 	c #FFF2CD",
"G 	c #FFF1CA",
"H 	c #FFEDBE",
"I 	c #FFEFC5",
"J 	c #583969",
"K 	c #71532B",
"L 	c #BE9447",
"M 	c #ECC361",
"N 	c #FADD9B",
"O 	c #F9E8C0",
"P 	c #F9EAC6",
"Q 	c #F9EBC7",
"R 	c #F9EBC8",
"S 	c #F9E7BC",
"T 	c #F9D88C",
"U 	c #F9E1AB",
"V 	c #604171",
"W 	c #3C2446",
"X 	c #513A2B",
"Y 	c #846542",
"Z 	c #9F804E",
"` 	c #A6916F",
" .	c #A69885",
"..	c #A59783",
"+.	c #A59884",
"@.	c #A5947B",
"#.	c #A58A5A",
"$.	c #A5906F",
"%.	c #3D2547",
"&.	c #3E2646",
"*.	c #2D1720",
"=.	c #381F2A",
"-.	c #372130",
";.	c #351C2C",
">.	c #493944",
",.	c #68606C",
"'.	c #6D6672",
").	c #6C6570",
"!.	c #6B6470",
"~.	c #6B6572",
"{.	c #6C6572",
"].	c #3F2747",
"^.	c #5B3C6B",
"/.	c #3E2445",
"(.	c #39363C",
"_.	c #505259",
":.	c #493A3B",
"<.	c #381D1B",
"[.	c #514951",
"}.	c #817F8A",
"|.	c #878692",
"1.	c #8A8996",
"2.	c #8E8F9C",
"3.	c #3A2143",
"4.	c #636C75",
"5.	c #97A4B0",
"6.	c #887573",
"7.	c #694339",
"8.	c #543F44",
"9.	c #5F5057",
"0.	c #61545B",
"a.	c #78737D",
"b.	c #8F909D",
"c.	c #3B2143",
"d.	c #62666F",
"e.	c #98A0AC",
"f.	c #938B92",
"g.	c #836968",
"h.	c #6F4A41",
"i.	c #594144",
"j.	c #6F6771",
"k.	c #858490",
"l.	c #90919E",
"m.	c #59565F",
"n.	c #8B8C98",
"o.	c #8E7A7C",
"p.	c #7F5444",
"q.	c #5E4548",
"r.	c #736E78",
"s.	c #817E8A",
"t.	c #7F7D89",
"u.	c #5C5B64",
"v.	c #8F929F",
"w.	c #9193A0",
"x.	c #8B797B",
"y.	c #7B5244",
"z.	c #593F41",
"A.	c #554147",
"B.	c #5B464B",
"C.	c #5F484B",
"D.	c #676F78",
"E.	c #A0AEBB",
"F.	c #979CA9",
"G.	c #7C727A",
"H.	c #604343",
"I.	c #543D41",
"J.	c #513A40",
"K.	c #674641",
"L.	c #7D5343",
"M.	c #392143",
"N.	c #6C767F",
"O.	c #A9BCCA",
"P.	c #A5B4C1",
"Q.	c #8E939F",
"R.	c #77727D",
"S.	c #78727D",
"T.	c #82767D",
"U.	c #8E7B7E",
"V.	c #3B2142",
"W.	c #5F666F",
"X.	c #95A5B2",
"Y.	c #99ABB7",
"Z.	c #8D97A3",
"`.	c #7F808B",
" +	c #7F7F8B",
".+	c #807F8B",
"++	c #402648",
"@+	c #352E37",
"#+	c #474650",
"$+	c #494953",
"%+	c #44404A",
"&+	c #403741",
"*+	c #4F325E",
"=+	c #492D56",
"-+	c #472D56",
";+	c #482D56",
">+	c #4A2F58",
"      . + + + + + + + + + + + + + + + + + + + + + + + + + + + + + + + + .       ",
"    @ # $ % % % % % % % % % % % % % % % % % % % % % % % % % % % % % % $ # @     ",
"  @ & * = = = = = = = = = = = = = = = = = = = = = = = = = = = = = = = = * & @   ",
". # * - ; ; ; ; ; ; ; ; ; ; ; ; ; ; ; ; ; ; ; ; ; ; ; ; ; ; ; ; ; ; ; ; - * # . ",
"+ $ = ; ; ; > , ; ; ; ; ; ; ; ; ; ; ; ; ; ; ; ; ; ; ; ; ; ; ; ; ; ; ; ; ; = $ + ",
"+ % = ; ; ' ) ! ; ; ; ; ; ; ; ; ; ; ; ; ; ; ; ; ; ; ; ; ; ; ; ; ; ; ; ; ; = % + ",
"+ % = ; ; ; ~ { ; ; ; ; ; ; ; ; ; ; ; ; ; ; ; ; ; ; ; ; ; ; ; - ] ; ; ; ; = % + ",
"+ % = ; ; ; ; ; ; ; ; ; ; ; ; ; ; ; ; ; ; ; ; ; ; ; ; ; ; , ^ / ( ] ; ; ; = % + ",
"+ % = ; ; ; ; ; ; ; ; ; ; ; ; ; ; ; ; ; ; ; ; ; ; ; ; ; ; > _ : / - ; ; ; = % + ",
"+ % = ; ; ; ; ; ; ; ; ; ; ; ; ; ; ; ; ; ; ; ; ; ; ; ; ; ; ; , _ ^ ; ; ; ; = % + ",
"+ % = ; ; ; ; ; ; ; ; ; ; ; ; ; ; ; ; ; ; ; ; ; ; ; ; ; ; ; ; > , ; ; ; ; = % + ",
"+ % = ; ; ; ; ; ; ; ; ; ; ; ; ; ; ; ; ; ; ; ; ; ; ; ; ; ; ; ; ; ; ; ; ; ; = % + ",
"+ % = ; ; ; ; ; ; ; ; ; ; ; ; ; ; ; ; ; ; ; ; ; ; ; ; ; ; ; ; ; ; ; ; ; ; = % + ",
"+ % = ; ; ; ; ; ; ; ; ; ; ; ; ; ; ; ; ; ; ; ; ; ; ; ; ; ; ; ; ; ; ; ; ; ; = % + ",
"+ % = ; ; ; ; ; ; ; ; ; ; ; ; ; ; ; ; ; ; ; ; ; ; ; ; ; ; ; ; ; ; ; ; ; ; = % + ",
"+ % = ; ; ; ; ; ; ; ; ; ; ; ; ; ; ; ; ; ; ; ; ; ; ; ; ; ; ; ; ; ; ; ; ; ; = % + ",
"+ % = ; ; ; ; ; ; ; ; ; ; ; ; ; ; ; ; ; ; ; ; ; ; ; ; ; ; ; ; ; ; ; ; ; ; = % + ",
"+ % = ; ; ; ; ; ; ; ; ; < < < < < < < < < < < < < < < < ; ; ; ; ; ; ; ; ; = % + ",
"+ % = ; ; ; ; ; ; ; ; [ } | 1 2 2 2 2 2 2 2 2 2 2 1 | } [ ; ; ; ; ; ; ; ; = % + ",
"+ % = ; ; ; ; ; ; ; [ 3 4 5 6 7 8 9 0 0 0 0 9 8 7 6 5 4 3 [ ; ; ; ; ; ; ; = % + ",
"+ % = ; ; ; ; ; ; < } 4 a b c d e f g h h g f e d c b a 4 } < ; ; ; ; ; ; = % + ",
"+ % = ; ; ; ; ; ; < | 5 b i j k l m n o o n m l k j i b 5 | < ; ; ; ; ; ; = % + ",
"+ % = ; ; ; ; ; ; < 1 p q r s t u v w w x x v u t s r q p 1 < ; ; ; ; ; ; = % + ",
"+ % = ; ; ; ; ; ; < y z A B C D E F F G H I w E D C B A z y < ~ J ; ; ; ; = % + ",
"+ % = ; ; ; ; ; ; < y K L M N O P Q R S T U R P O N M L K y , V - ; ; ; ; = % + ",
"+ % = ; ; ; ; ; ; < W X Y Z `  .....+.@.#.$..... .` Z Y X %._ : - ; ; ; ; = % + ",
"+ % = ; ; ; ; ; ; < &.*.=.-.;.>.,.'.).!.~.{.'.,.>.;.-.=.*.].~ ^.J ; ; ; ; = % + ",
"+ % = ; ; ; ; ; ; < /.(._.:.<.[.}.|.1.2.2.1.|.}.[.<.:._.(./.< ; ; ; ; ; ; = % + ",
"+ % = ; ; ; ; ; ; < 3.4.5.6.7.8.9.0.a.b.b.a.0.9.8.7.6.5.4.3.< ; ; ; ; ; ; = % + ",
"+ % = ; ; ; ; ; ; < c.d.e.f.g.h.i.j.k.l.l.k.j.i.h.g.f.e.d.c.< ; ; ; ; ; ; = % + ",
"+ % = ; ; ; ; ; ; < c.m.n.l.o.p.q.r.s.t.t.s.r.q.p.o.l.n.m.c.< ; ; ; ; ; ; = % + ",
"+ % = ; ; ; ; ; ; < c.u.v.w.x.y.z.A.B.C.C.B.A.z.y.x.w.v.u.c.< ; ; ; ; ; ; = % + ",
"+ % = ; ; ; ; ; ; < 3.D.E.F.G.H.I.J.K.L.L.K.J.I.H.G.F.E.D.3.< ; ; ; ; ; ; = % + ",
"+ % = ; ; ; ; ; ; < M.N.O.P.Q.R.S.S.T.U.U.T.S.S.R.Q.P.O.N.M.< ; ; ; ; ; ; = % + ",
"+ % _ , ; ; ; ; ; < V.W.X.Y.Z.`. + + +.+.+ + + +`.Z.Y.X.W.V.< ; ; ; ; ; ; = % + ",
"+ $ : _ , ; ; ; ; < ++@+#+$+%+&+&+&+&+&+&+&+&+&+&+%+$+#+@+++< ; ; ; ; ; ; = $ + ",
". # $ : _ , ; ; ; ; *+=+-+-+;+;+;+;+;+;+;+;+;+;+;+;+-+-+=+*+; ; ; ; ; ; - * # . ",
"  @ >+$ : _ = = = = = = = = = = = = = = = = = = = = = = = = = = = = = = * & @   ",
"    @ # $ % % % % % % % % % % % % % % % % % % % % % % % % % % % % % % $ # @     ",
"      . + + + + + + + + + + + + + + + + + + + + + + + + + + + + + + + + .       "};
