/* XPM */
static char *a854175ac39c4229c633e6a85e4fb8e1WK6Mh5GqHhzDr5T6[] = {
/* columns rows colors chars-per-pixel */
"32 32 113 2 ",
"   c #222222",
".  c #232122",
"X  c #232323",
"o  c #2A2927",
"O  c #3F3534",
"+  c #2B2A28",
"@  c #3E3634",
"#  c #493B3A",
"$  c #4A3C3B",
"%  c #3E3433",
"&  c #222220",
"*  c #212322",
"=  c #242422",
"-  c #272725",
";  c #292826",
":  c #332E2B",
">  c #403635",
",  c #413535",
"<  c #483A39",
"1  c #4A3A3A",
"2  c #332D2D",
"3  c #2E2A29",
"4  c #342F2C",
"5  c #38302E",
"6  c gray13",
"7  c #282725",
"8  c #473938",
"9  c #413634",
"0  c #463B39",
"q  c #594743",
"w  c #624D48",
"e  c #493B3B",
"r  c #554341",
"t  c #6B544E",
"y  c #775C55",
"u  c #483D3B",
"i  c #483A37",
"p  c #4B3D3C",
"a  c #514141",
"s  c #51423F",
"d  c #604D47",
"f  c #473C3A",
"g  c #785B55",
"h  c #403533",
"j  c #574543",
"k  c #5F4C46",
"l  c #433836",
"z  c #4E403F",
"x  c #4B3D3A",
"c  c #493B38",
"v  c #403434",
"b  c #614E48",
"n  c #69554E",
"m  c #69554C",
"M  c #5D4A44",
"N  c #443838",
"B  c #3B3331",
"V  c #5C4B44",
"C  c #524340",
"Z  c #5B4945",
"A  c #53443F",
"S  c #25131A",
"D  c #50413E",
"F  c #423434",
"G  c #372F2D",
"H  c #3A3230",
"J  c #2F2B2A",
"K  c #523B40",
"L  c #895A45",
"P  c #C09344",
"I  c #FFD569",
"U  c #272823",
"Y  c #FFF1CC",
"T  c #222224",
"R  c #252523",
"E  c #50423F",
"W  c #433534",
"Q  c #55433F",
"!  c #564241",
"~  c #624E47",
"^  c #66524B",
"/  c #715853",
"(  c #90919E",
")  c #463B37",
"_  c #423636",
"`  c #ADC1CF",
"'  c #2A2829",
"]  c #483A3A",
"[  c #3F3536",
"{  c #222021",
"}  c #2C2827",
"|  c #564442",
" . c #6C554F",
".. c #3E3432",
"X. c #4D3F3C",
"o. c #534441",
"O. c #342F2B",
"+. c #2D2928",
"@. c #5D4A46",
"#. c #6F5651",
"$. c #664E4A",
"%. c #6A534D",
"&. c #69514D",
"*. c #65504B",
"=. c #594841",
"-. c #4A3C3C",
";. c #604D49",
":. c #6B544C",
">. c #6D5650",
",. c #755A53",
"<. c #775B57",
"1. c #785D56",
"2. c #544240",
/* pixels */
"      . X o O O +             o @ # $ # # % o o O O o &       * ",
"X = - ; o : > , : o o o o o o : , < # 1 # , : : , , 2 o o 3 4 5 ",
"6 7 5 O O , 8 8 9 O O O O O O 9 8 # # 1 # 8 , , < 8 , O O 0 q w ",
"o : , # e # # # # # # < # # # < # # # # # # # # # # # # # r t y ",
"O , 8 # # # # # # # # # # # < # # # # # # # # # # # # # # r t y ",
"# < < # # # # # # # # # # # # # # # # # # # # # # # # # # r t y ",
"# # # # # # # # # # # # $ $ # # # # # # 1 # # # # u # i < r t y ",
"O , 8 # $ # # p a a p < $ # 1 1 # # # # # # # # # $ # # e r t y ",
"o : , # # # # s w d s # # e # # < # # # # # # # # f f # $ r t g ",
"o : h p s r r j k q 0 l z s x # # # # # # # f # e f # c # r t y ",
"v , 8 a b n m M N 4 3 B V b C # # # # $ # c c # # # # # # r t y ",
"O , 8 z Z w w A S S S S S S S S S S S S S S S S # # # # # D b t ",
"o : F l B 5 G H S S S S S S S S S S S S S S S S # # # # # p s r ",
"  7 5 H J o S S K L P P I I I I I I I I P L L K S S # # e p s r ",
"  = U J H O S S L P I I I Y Y Y Y Y Y I I P P L S S $ # # s b t ",
"T R 7 2 , # S S P I I I Y Y Y Y Y Y Y Y I I I P S S # # # E b t ",
"  7 5 W 8 # S S P I I I Y Y Y Y Y Y Y Y I I I P S S # # # p E Q ",
"o : , # # # S S P I Y Y Y Y Y Y I Y Y Y Y I I P S S ! r r r r r ",
"O , < # # # S S K K K K K K K K K K K K K K K K S S t t t t t t ",
"# # # # # # S S K K K K K K K K K K K K K K K K S S w w ~ ^ / y ",
"# # # # # # S S S S S S ( ( ( ( ( ( ( ( S S S S S S 5 5 5 ) ^ y ",
"> _ 8 < $ $ S S ` L K K K K K ( ( K K K K L L ` S S o o ' B Z t ",
"o : , # # # S S ( ( L L K ( ( ( ( ( ( K L ( ( ( S S O O O l z r ",
"  o @ # # # S S ( ( L L K ( ( ( ( ( ( K L ( ( ( S S # # $ ) < ] ",
"  o [ # # $ S S ( ( L L K K K K K K K K L ( ( ( S S # # # # # # ",
"{ } O # # # S S ` ( K K K K K L L K K K K ( ( ` S S $ # # p s | ",
"  + O # # # S S ` ` ( ( ( ( ( ( ( ( ( ( ( ` ` ` S S # # # s b t ",
"  o O # # # S S ` ` ( ( ( ( ( ( ( ( ( ( ( ` ` ` S S # # # r t y ",
"  o O # # # S S S S S S S S S S S S S S S S S S S S # # # r  .y ",
"5 ..X.o.r s p p s X...O.+.G $ r r r r r r s p p s r r r r @.#.y ",
"w $.%.t t b s s b &.*.=.0 -.;.:.t t t t t b s s b t t t t >.,.y ",
"<.g y y y t r r t y y t r | t g 1.g y y y t 2.r t y y y y 1.g y "
};
