/* XPM */
static char *_0ddb0e59ae542ada29f29a35e2bd906Uu3z1vN86UOLbJC7[] = {
/* columns rows colors chars-per-pixel */
"32 32 115 2 ",
"   c #222222",
".  c #232122",
"X  c #232323",
"o  c #2A2927",
"O  c #3F3534",
"+  c #2B2A28",
"@  c #3E3634",
"#  c #493B3A",
"$  c #4A3C3B",
"%  c #3E3433",
"&  c #222220",
"*  c #212322",
"=  c #242422",
"-  c #272725",
";  c #292826",
":  c #332E2B",
">  c #403635",
",  c #413535",
"<  c #483A39",
"1  c #4A3A3A",
"2  c #332D2D",
"3  c #2E2A29",
"4  c #342F2C",
"5  c #38302E",
"6  c gray13",
"7  c #282725",
"8  c #473938",
"9  c #413634",
"0  c #463B39",
"q  c #594743",
"w  c #624D48",
"e  c #493B3B",
"r  c #554341",
"t  c #6B544E",
"y  c #775C55",
"u  c #483D3B",
"i  c #483A37",
"p  c #4B3D3C",
"a  c #514141",
"s  c #51423F",
"d  c #604D47",
"f  c #473C3A",
"g  c #785B55",
"h  c #403533",
"j  c #574543",
"k  c #5F4C46",
"l  c #433836",
"z  c #4E403F",
"x  c #4B3D3A",
"c  c #493B38",
"v  c #403434",
"b  c #614E48",
"n  c #69554E",
"m  c #69554C",
"M  c #5D4A44",
"N  c #443838",
"B  c #25131A",
"V  c #5B4945",
"C  c #53443F",
"Z  c #90919E",
"A  c #ADC1CF",
"S  c #50413E",
"D  c #423434",
"F  c #3B3331",
"G  c #372F2D",
"H  c #3A3230",
"J  c #2F2B2A",
"K  c #BF704D",
"L  c #895A45",
"P  c #BBD3E1",
"I  c #272823",
"U  c #222224",
"Y  c #252523",
"T  c #50423F",
"R  c #433534",
"E  c #55433F",
"W  c #564241",
"Q  c #523B40",
"!  c #624E47",
"~  c #66524B",
"^  c #715853",
"/  c #463B37",
"(  c #423636",
")  c #2A2829",
"_  c #483A3A",
"`  c #3F3536",
"'  c #222021",
"]  c #2C2827",
"[  c #564442",
"{  c #292927",
"}  c #4F4140",
"|  c #52433E",
" . c #322C2C",
".. c #272624",
"X. c #6C554F",
"o. c #3E3432",
"O. c #4D3F3C",
"+. c #534441",
"@. c #342F2B",
"#. c #2D2928",
"$. c #5D4A46",
"%. c #6F5651",
"&. c #664E4A",
"*. c #6A534D",
"=. c #69514D",
"-. c #65504B",
";. c #594841",
":. c #4A3C3C",
">. c #604D49",
",. c #6B544C",
"<. c #6D5650",
"1. c #755A53",
"2. c #775B57",
"3. c #785D56",
"4. c #544240",
/* pixels */
"      . X o O O +             o @ # $ # # % o o O O o &       * ",
"X = - ; o : > , : o o o o o o : , < # 1 # , : : , , 2 o o 3 4 5 ",
"6 7 5 O O , 8 8 9 O O O O O O 9 8 # # 1 # 8 , , < 8 , O O 0 q w ",
"o : , # e # # # # # # < # # # < # # # # # # # # # # # # # r t y ",
"O , 8 # # # # # # # # # # # < # # # # # # # # # # # # # # r t y ",
"# < < # # # # # # # # # # # # # # # # # # # # # # # # # # r t y ",
"# # # # # # # # # # # # $ $ # # # # # # 1 # # # # u # i < r t y ",
"O , 8 # $ # # p a a p < $ # 1 1 # # # # # # # # # $ # # e r t y ",
"o : , # # # # s w d s # # e # # < # # # # # # # # f f # $ r t g ",
"o : h p s r r j k q 0 l z s x # # # # # # # f # e f # c # r t y ",
"v , 8 a b n m M N B B B B B B B B B B B B B B # # # # # # r t y ",
"O , 8 z V w w C B B Z Z Z A A A A A A Z Z B B B # # # # # S b t ",
"o : D l F 5 G H B B Z Z Z A A A A A A Z Z B B B # # # # # p s r ",
"  7 5 H J o B B B A K K A L L L L L L P K A A B B B # # e p s r ",
"  = I J H O B B Z L K K K K K K K K K K K L L Z B B $ # # s b t ",
"U Y 7 2 , # B B A A A A A A A A A A A A A A A A B B # # # T b t ",
"  7 5 R 8 # B B A A A A A A A A A A A A A A A A B B # # # p T E ",
"o : , # # # B B B B B B Z Z Z Z Z Z Z Z B B B B B B W r r r r r ",
"O , < # # # B B A L Q Q Q Q Q Z Z Q Q Q Q L L A B B t t t t t t ",
"# # # # # # B B A L Q Q Q Q Q Z Z Q Q Q Q L L A B B w w ! ~ ^ y ",
"# # # # # # B B Z Z L L Q Z Z Z Z Z Z Q L Z Z Z B B 5 5 5 / ~ y ",
"> ( 8 < $ $ B B Z Z L L Q Q Q Q Q Q Q Q L Z Z Z B B o o ) F V t ",
"o : , # # # B B A Z Q Q Q Q Q L L Q Q Q Q Z Z A B B O O O l z r ",
"  o @ # # # B B A Z Q Q Q Q Q L L Q Q Q Q Z Z A B B # # $ / < _ ",
"  o ` # # $ B B A A Z Z Z Z Z Z Z Z Z Z Z A A A B B # # # # # # ",
"' ] O # # # $ # B B B B B B B B B B B B B B B B # # $ # # p s [ ",
"  + O # # # # # e s b q 4 { > # # # # # # # # 1 # # # # # s b t ",
"  o O # # # # # # } V |  .o @ < # # # # # # # # 1 # # # # r t y ",
"  o O # # # # # # l F  ...o O # # # # # c # # # # # # # # r X.y ",
"5 o.O.+.r s p p s O.o.@.#.G $ r r r r r r s p p s r r r r $.%.y ",
"w &.*.t t b s s b =.-.;.0 :.>.,.t t t t t b s s b t t t t <.1.y ",
"2.g y y y t r r t y y t r [ t g 3.g y y y t 4.r t y y y y 3.g y "
};
