/* XPM */
static char * chest1_xpm[] = {
"40 40 194 2",
"  	c #40264D",
". 	c #41274E",
"+ 	c #42284F",
"@ 	c #3F254C",
"# 	c #492E57",
"$ 	c #5A3D69",
"% 	c #5B3E6A",
"& 	c #4A3058",
"* 	c #583B67",
"= 	c #5E3F6E",
"- 	c #5D3E6E",
"; 	c #563767",
"> 	c #583968",
", 	c #573868",
"' 	c #573867",
") 	c #5E3F6F",
"! 	c #5C3D6D",
"~ 	c #593A6A",
"{ 	c #593A69",
"] 	c #5B3C6C",
"^ 	c #5D3E6D",
"/ 	c #624373",
"( 	c #614271",
"_ 	c #5F406F",
": 	c #634473",
"< 	c #563766",
"[ 	c #533563",
"} 	c #523462",
"| 	c #3F2747",
"1 	c #352038",
"2 	c #37213A",
"3 	c #37223A",
"4 	c #37233A",
"5 	c #513461",
"6 	c #41274A",
"7 	c #270C1F",
"8 	c #4D4A53",
"9 	c #696974",
"0 	c #6B6B75",
"a 	c #7A848E",
"b 	c #818F9A",
"c 	c #808F9A",
"d 	c #7A838E",
"e 	c #6B6A74",
"f 	c #696973",
"g 	c #4D4B53",
"h 	c #523461",
"i 	c #42274C",
"j 	c #312731",
"k 	c #565B63",
"l 	c #837A81",
"m 	c #9B8F97",
"n 	c #999EAA",
"o 	c #A0AAB5",
"p 	c #A5AFB9",
"q 	c #A4AFB9",
"r 	c #A2ACB7",
"s 	c #9CA3AF",
"t 	c #9C9198",
"u 	c #553666",
"v 	c #41284B",
"w 	c #2A1524",
"x 	c #4B4A52",
"y 	c #929FAA",
"z 	c #B19898",
"A 	c #B78A81",
"B 	c #ACAFB9",
"C 	c #9A8C8E",
"D 	c #916B5F",
"E 	c #926D62",
"F 	c #916A5E",
"G 	c #9F9496",
"H 	c #B6BDC7",
"I 	c #BA9088",
"J 	c #B19897",
"K 	c #3C2243",
"L 	c #4C4850",
"M 	c #7A7781",
"N 	c #918587",
"O 	c #AD7B6C",
"P 	c #BE785E",
"Q 	c #BA8B80",
"R 	c #B37661",
"S 	c #AF6540",
"T 	c #B06643",
"U 	c #B57A67",
"V 	c #BE938A",
"W 	c #BF7B62",
"X 	c #583969",
"Y 	c #3A2143",
"Z 	c #636670",
"` 	c #9AA2AF",
" .	c #9C989E",
"..	c #AA9594",
"+.	c #B99A96",
"@.	c #B99894",
"#.	c #B99995",
"$.	c #B99996",
"%.	c #604171",
"&.	c #3B2243",
"*.	c #626972",
"=.	c #9AABB8",
"-.	c #9FB0BD",
";.	c #9FB0BC",
">.	c #A3B2BF",
",.	c #A8B8C5",
"'.	c #A9B9C6",
").	c #A9B8C6",
"!.	c #A9B8C5",
"~.	c #3B2344",
"{.	c #543665",
"].	c #412D4A",
"^.	c #403F46",
"/.	c #575A62",
"(.	c #53565E",
"_.	c #686C76",
":.	c #8F94A1",
"<.	c #959AA7",
"[.	c #959BA8",
"}.	c #422E4B",
"|.	c #583A69",
"1.	c #5B3C6B",
"2.	c #422F4B",
"3.	c #737B88",
"4.	c #8B9AA6",
"5.	c #86919B",
"6.	c #735E5B",
"7.	c #562C1D",
"8.	c #4D3D44",
"9.	c #6C636C",
"0.	c #6F6670",
"a.	c #7D7984",
"b.	c #8F8F9C",
"c.	c #2F262C",
"d.	c #838E99",
"e.	c #A6B5C3",
"f.	c #A3AFBB",
"g.	c #928487",
"h.	c #7C5C57",
"i.	c #644441",
"j.	c #563E42",
"k.	c #63565E",
"l.	c #7C7984",
"m.	c #8F919E",
"n.	c #2D2128",
"o.	c #787A85",
"p.	c #9294A1",
"q.	c #90909C",
"r.	c #897679",
"s.	c #785043",
"t.	c #5D4649",
"u.	c #797580",
"v.	c #8C8A96",
"w.	c #8F8C97",
"x.	c #85919C",
"y.	c #A0ACBA",
"z.	c #9194A1",
"A.	c #90919E",
"B.	c #7D747C",
"C.	c #604342",
"D.	c #563F44",
"E.	c #60525A",
"F.	c #776264",
"G.	c #8A6B64",
"H.	c #463050",
"I.	c #6C7280",
"J.	c #8D9AA6",
"K.	c #9FACB9",
"L.	c #A1ADBB",
"M.	c #8E93A0",
"N.	c #77727D",
"O.	c #78727C",
"P.	c #77717B",
"Q.	c #81757B",
"R.	c #8D7A7C",
"S.	c #3B2142",
"T.	c #5F666F",
"U.	c #95A5B2",
"V.	c #99AAB7",
"W.	c #8D97A3",
"X.	c #7F808B",
"Y.	c #7F7F8B",
"Z.	c #807F8B",
"`.	c #402648",
" +	c #352E37",
".+	c #474650",
"++	c #494953",
"@+	c #44404A",
"#+	c #403741",
"$+	c #4F325E",
"%+	c #492D56",
"&+	c #472D56",
"*+	c #482D56",
"=+	c #4A2F58",
"      . + + + + + + + + + + + + + + + + + + + + + + + + + + + + + + + + .       ",
"    @ # $ % % % % % % % % % % % % % % % % % % % % % % % % % % % % % % $ # @     ",
"  @ & * = = = = = = = = = = = = = = = = = = = = = = = = = = = = = = = = * & @   ",
". # * - ; ; ; ; ; ; ; ; ; ; ; ; ; ; ; ; ; ; ; ; ; ; ; ; ; ; ; ; ; ; ; ; - * # . ",
"+ $ = ; ; ; > , ; ; ; ; ; ; ; ; ; ; ; ; ; ; ; ; ; ; ; ; ; ; ; ; ; ; ; ; ; = $ + ",
"+ % = ; ; ' ) ! ; ; ; ; ; ; ; ; ; ; ; ; ; ; ; ; ; ; ; ; ; ; ; ; ; ; ; ; ; = % + ",
"+ % = ; ; ; ~ { ; ; ; ; ; ; ; ; ; ; ; ; ; ; ; ; ; ; ; ; ; ; ; - ] ; ; ; ; = % + ",
"+ % = ; ; ; ; ; ; ; ; ; ; ; ; ; ; ; ; ; ; ; ; ; ; ; ; ; ; , ^ / ( ] ; ; ; = % + ",
"+ % = ; ; ; ; ; ; ; ; ; ; ; ; ; ; ; ; ; ; ; ; ; ; ; ; ; ; > _ : / - ; ; ; = % + ",
"+ % = ; ; ; ; ; ; ; ; ; ; ; ; ; ; ; ; ; ; ; ; ; ; ; ; ; ; ; , _ ^ ; ; ; ; = % + ",
"+ % = ; ; ; ; ; ; ; ; ; ; ; ; ; ; ; ; ; ; ; ; ; ; ; ; ; ; ; ; > , ; ; ; ; = % + ",
"+ % = ; ; ; ; ; ; ; ; ; ; ; ; ; ; ; ; ; ; ; ; ; ; ; ; ; ; ; ; ; ; ; ; ; ; = % + ",
"+ % = ; ; ; ; ; ; ; ; ; ; ; ; ; ; ; ; ; ; ; ; ; ; ; ; ; ; ; ; ; ; ; ; ; ; = % + ",
"+ % = ; ; ; ; ; ; ; ; ; ; ; ; ; ; ; ; ; ; ; ; ; ; ; ; ; ; ; ; ; ; ; ; ; ; = % + ",
"+ % = ; ; ; ; ; ; ; ; ; ; ; ; ; ; ; ; ; ; ; ; ; ; ; ; ; ; ; ; ; ; ; ; ; ; = % + ",
"+ % = ; ; ; ; ; ; ; ; ; ; ; ; ; ; ; ; ; ; ; ; ; ; ; ; ; ; ; ; ; ; ; ; ; ; = % + ",
"+ % = ; ; ; ; ; ; ; ; ; ; ; ; ; ; ; ; ; ; ; ; ; ; ; ; ; ; ; ; ; ; ; ; ; ; = % + ",
"+ % = ; ; ; ; ; ; ; ; ; ; ; ; ; ; ; ; ; ; ; ; ; ; ; ; ; ; ; ; ; ; ; ; ; ; = % + ",
"+ % = ; ; ; ; ; ; ; ; ; < [ } } } } } } } } } } } } [ < ; ; ; ; ; ; ; ; ; = % + ",
"+ % = ; ; ; ; ; ; ; ; ; [ | 1 2 2 3 4 4 4 4 3 2 2 1 | [ ; ; ; ; ; ; ; ; ; = % + ",
"+ % = ; ; ; ; ; ; ; ; 5 6 7 8 9 0 a b c c b d e f g 7 6 5 ; ; ; ; ; ; ; ; = % + ",
"+ % = ; ; ; ; ; ; ; h i j k l m n o p q q p r s t l k j i h ; ; ; ; ; ; ; = % + ",
"+ % = ; ; ; ; ; ; u v w x y z A B C D E E F G H I J y x w v u ; ; ; ; ; ; = % + ",
"+ % = ; ; ; ; ; ; u K L M N O P Q R S T T S U V W O N M L K u ~ X ; ; ; ; = % + ",
"+ % = ; ; ; ; ; ; u Y Z `  ...+.@.#.$.$.$.$.#.@.$... .` Z Y , %.- ; ; ; ; = % + ",
"+ % = ; ; ; ; ; ; u &.*.=.-.;.>.,.'.).!.!.).'.,.>.;.-.=.*.~._ : - ; ; ; ; = % + ",
"+ % = ; ; ; ; ; ; {.].^.k /.(._.:.<.<.[.[.<.<.:._.(./.k ^.}.|.1.X ; ; ; ; = % + ",
"+ % = ; ; ; ; ; ; 2.3.4.5.6.7.8.9.0.a.b.b.a.0.9.8.7.6.5.4.3.2.; ; ; ; ; ; = % + ",
"+ % = ; ; ; ; ; ; c.d.e.f.g.h.i.j.k.l.m.m.l.k.j.i.h.g.f.e.d.c.; ; ; ; ; ; = % + ",
"+ % = ; ; ; ; ; ; n.o.<.p.q.r.s.t.u.v.w.w.v.u.t.s.r.q.p.<.o.n.; ; ; ; ; ; = % + ",
"+ % = ; ; ; ; ; ; c.x.y.z.A.B.C.D.E.F.G.G.F.E.D.C.B.A.z.y.x.c.; ; ; ; ; ; = % + ",
"+ % = ; ; ; ; ; ; H.I.J.K.L.M.N.O.P.Q.R.R.Q.P.O.N.M.L.K.J.I.H.; ; ; ; ; ; = % + ",
"+ % = ; ; ; ; ; ; u S.T.U.V.W.X.Y.Y.Y.Z.Z.Y.Y.Y.X.W.V.U.T.S.u ; ; ; ; ; ; = % + ",
"+ % = ; ; ; ; ; ; u `. +.+++@+#+#+#+#+#+#+#+#+#+#+@+++.+ +`.u ; ; ; ; ; ; = % + ",
"+ % _ , ; ; ; ; ; ; $+%+&+&+*+*+*+*+*+*+*+*+*+*+*+*+&+&+%+$+; ; ; ; ; ; ; = % + ",
"+ $ : _ , ; ; ; ; ; ; ; ; ; ; ; ; ; ; ; ; ; ; ; ; ; ; ; ; ; ; ; ; ; ; ; ; = $ + ",
". # $ : _ , ; ; ; ; ; ; ; ; ; ; ; ; ; ; ; ; ; ; ; ; ; ; ; ; ; ; ; ; ; ; - * # . ",
"  @ =+$ : _ = = = = = = = = = = = = = = = = = = = = = = = = = = = = = = * & @   ",
"    @ # $ % % % % % % % % % % % % % % % % % % % % % % % % % % % % % % $ # @     ",
"      . + + + + + + + + + + + + + + + + + + + + + + + + + + + + + + + + .       "};
