/* XPM */
static char *e4e6e3e38cd8450fa3e832fb5e1f7e7bkD5glwc50tSRiGNF[] = {
/* columns rows colors chars-per-pixel */
"32 32 125 2 ",
"   c None",
".  c #1C1E22",
"X  c #261D24",
"o  c #2A1E24",
"O  c #331E26",
"+  c #1E2022",
"@  c #212222",
"#  c #2C2224",
"$  c #2C2B23",
"%  c #312225",
"&  c #3E2426",
"*  c #372824",
"=  c #3A2A25",
"-  c #451E2A",
";  c #4F1F2C",
":  c #452F22",
">  c #482F22",
",  c #452129",
"<  c #4D212C",
"1  c #51222C",
"2  c #5D272C",
"3  c #5D282C",
"4  c #443424",
"5  c #4A3323",
"6  c #4C3824",
"7  c #533526",
"8  c #533C25",
"9  c #67252F",
"0  c #632A2C",
"q  c #6E2A2E",
"w  c #742C2D",
"e  c #623126",
"r  c #6D3429",
"t  c #77302D",
"y  c #7C342B",
"u  c #783B2A",
"i  c #763E31",
"p  c #454027",
"a  c #484027",
"s  c #4C4128",
"d  c #4F4828",
"f  c #534326",
"g  c #56402A",
"h  c #5F4629",
"j  c #544B29",
"k  c #6E422F",
"l  c #70432F",
"z  c #7F5F2A",
"x  c #7F632B",
"c  c #82362B",
"v  c #863A2B",
"b  c #8B3D2A",
"n  c #8A4928",
"m  c #9A4E24",
"M  c #924229",
"N  c #97482B",
"B  c #9A492B",
"V  c #9D512C",
"C  c #935E29",
"Z  c #9B5F29",
"A  c #834431",
"S  c #854B33",
"D  c #8C4B31",
"F  c #945031",
"G  c #A74E27",
"H  c #AA4E27",
"J  c #AE5127",
"K  c #A55826",
"L  c #A3522D",
"P  c #A25E2B",
"I  c #B45526",
"U  c #BC5A26",
"Y  c #B75A29",
"T  c #A76529",
"R  c #AE662B",
"E  c #B76C29",
"W  c #BB742B",
"Q  c #C45F25",
"!  c #C66125",
"~  c #C16C2B",
"^  c #D26D27",
"/  c #D46F28",
"(  c #CF722C",
")  c #D57128",
"_  c #D6792A",
"`  c #D87F2B",
"'  c #9C8332",
"]  c #AC8435",
"[  c #A68B33",
"{  c #B98237",
"}  c #B98438",
"|  c #BE9033",
" . c #C2822E",
".. c #CE812D",
"X. c #D68430",
"o. c #DA8630",
"O. c #D38F30",
"+. c #DF8931",
"@. c #C79B34",
"#. c #D19336",
"$. c #D69B38",
"%. c #DB9C38",
"&. c #E1842C",
"*. c #E9862C",
"=. c #E1882D",
"-. c #F18F2E",
";. c #EB912F",
":. c #EB9731",
">. c #EF9831",
",. c #F49A31",
"<. c #CAAA38",
"1. c #D7A436",
"2. c #D8A73B",
"3. c #DAA83C",
"4. c #D9B039",
"5. c #F1AA35",
"6. c #F1AB35",
"7. c #F4AE36",
"8. c #FFB336",
"9. c #F7BA39",
"0. c #F4BE3B",
"q. c #FABD3A",
"w. c #FCC13B",
"e. c #FFCC3C",
"r. c #FFD43E",
/* pixels */
"                                                                ",
"                                                                ",
"                                                                ",
"                                                                ",
"        . + + +                                 + + . .         ",
"        j 6 = #                                 # = 6 j         ",
"@ + . d [ ] l , o + + + . . + . . + . + . + . o , l ] [ s . + @ ",
"X $ = C 1.3.F 0 7 8 8 8 8 8 8 8 8 8 8 8 8 8 8 7 0 F %.1.z 4 $ @ ",
". 4 C ..:.X.L M R W W W W W W W W W W W W W W R N V o.:...C 4 + ",
". 6 E -.,.X.V B ( *.*.*.*.*.*.*.*.*.*.*.*.*.*.) B V X.,.-.E 8 + ",
". 5 K &.7.$.D c Y ^ / ^ / ^ ^ ^ ^ ^ ^ ^ ^ ^ / Y c D $.7.&.K 5 + ",
". 5 m _ 5.%.D y J ! ! ! U Q Q Q ! U Q Q Q ! ! J y D $.6._ m : + ",
"+ 5 m ) ;.X.V M I ! ! Q Q Q ! Q Q ! Q Q Q ! ! I M B X.;.) m 5 . ",
". > m ) ;.X.V M I ! ! Q ! ! ! ! ! ! ! ! Q ! ! I M L X.:.) m 5 . ",
"+ > m _ 6.$.D y J ! ! Q ! ! ! ! ! ! ! ! Q ! Q I c D $.5._ m : . ",
"+ > m _ 6.$.F y J ! ! Q U I J J J J I Y Q Q Q J y D $.5._ m > + ",
"+ : m ) :.o.V b I Q Q U L M y w w c M G Y Q Q I b L X.:.^ m : . ",
". 6 T =.>.o.B N ~ ` ` ~ B c S S S A c N ~ ` ` ~ N L X.,.=.T 6 . ",
". f | q.q.$.n D O.9.9.#.D A } 2.2.{ A D #.9.9.#.D N #.w.q.| f . ",
". a ' 3.0.$.D A ] <.<.] i A $.e.r.2.S i ] <.<.] i D $.0.4.' 6 . ",
"@ $ 6 x #.+.L u k j j f 3 A X.9.e.3.D 3 g j j h u L +.O.x p $ + ",
"@ @ X 7 Z R n e % X o O - r P ( @.] l - O o o & e n R Z 7 X @ @ ",
"+ # , < 7 6 : & , ; 1 - % = 5 f j s = % , ; ; < & 4 6 7 < - # @ ",
"+ = 3 3 & o o & 0 q w 0 , # # # o o # & 3 w q 2 & # # & 0 2 * @ ",
"+ = r y 3 < < 3 t b v t 3 < < < < < < 3 y v v t 2 - ; 2 y r = + ",
"@ = r c w q q t b M M b t q q q w q q t b M M b t w q w c r = @ ",
"@ % 3 w c v v b b M M b b v v v v v v b M M M b v v v c w 2 % @ ",
"@ % 1 q y v v v v v v v v v v v v v v v c c v v v v v c q 1 % @ ",
"@ % 1 9 q q w q w q q q q q q q q q q q w q q q q q w q 9 1 % @ ",
"@ % , 1 1 1 1 < 1 1 < 1 1 1 1 1 1 1 1 1 1 1 < 1 1 1 1 1 1 , # @ ",
"@ @ # % % % % % % # % % % # % % # % % % % # % # # % % % % % @ @ ",
"@ @ @ @ + @ @ + @ @ + @ @ @ @ @ @ @ @ + @ @ @ @ @ @ @ @ @ @ @ @ "
};
