/* XPM */
static char *_24f192a4c584f12b09378e26fbdea5cC4P7CbrQLvw7uYN0[] = {
/* columns rows colors chars-per-pixel */
"32 32 116 2 ",
"   c #222222",
".  c #232122",
"X  c #232323",
"o  c #2A2927",
"O  c #3F3534",
"+  c #2B2A28",
"@  c #3E3634",
"#  c #493B3A",
"$  c #4A3C3B",
"%  c #3E3433",
"&  c #222220",
"*  c #212322",
"=  c #242422",
"-  c #272725",
";  c #292826",
":  c #332E2B",
">  c #403635",
",  c #413535",
"<  c #483A39",
"1  c #4A3A3A",
"2  c #332D2D",
"3  c #2E2A29",
"4  c #342F2C",
"5  c #38302E",
"6  c gray13",
"7  c #282725",
"8  c #473938",
"9  c #413634",
"0  c #463B39",
"q  c #594743",
"w  c #624D48",
"e  c #493B3B",
"r  c #554341",
"t  c #6B544E",
"y  c #775C55",
"u  c #483D3B",
"i  c #483A37",
"p  c #4B3D3C",
"a  c #514141",
"s  c #51423F",
"d  c #604D47",
"f  c #473C3A",
"g  c #785B55",
"h  c #403533",
"j  c #574543",
"k  c #5F4C46",
"l  c #433836",
"z  c #4E403F",
"x  c #4B3D3A",
"c  c #493B38",
"v  c #403434",
"b  c #614E48",
"n  c #69554E",
"m  c #69554C",
"M  c #5D4A44",
"N  c #443838",
"B  c #3B3331",
"V  c #5C4B44",
"C  c #524340",
"Z  c #5B4945",
"A  c #53443F",
"S  c #3A3230",
"D  c #574843",
"F  c #4D3F3E",
"G  c #50413E",
"H  c #423434",
"J  c #372F2D",
"K  c #624F49",
"L  c #2F2B2A",
"P  c #332E2A",
"I  c #272823",
"U  c #25131A",
"Y  c #222224",
"T  c #252523",
"R  c #90919E",
"E  c #ADC1CF",
"W  c #50423F",
"Q  c #433534",
"!  c #55433F",
"~  c #BF704D",
"^  c #895A45",
"/  c #BBD3E1",
"(  c #564241",
")  c #624E47",
"_  c #66524B",
"`  c #715853",
"'  c #463B37",
"]  c #423636",
"[  c #2A2829",
"{  c #523B40",
"}  c #483A3A",
"|  c #3F3536",
" . c #222021",
".. c #2C2827",
"X. c #564442",
"o. c #6C554F",
"O. c #3E3432",
"+. c #4D3F3C",
"@. c #534441",
"#. c #342F2B",
"$. c #2D2928",
"%. c #5D4A46",
"&. c #6F5651",
"*. c #664E4A",
"=. c #6A534D",
"-. c #69514D",
";. c #65504B",
":. c #594841",
">. c #4A3C3C",
",. c #604D49",
"<. c #6B544C",
"1. c #6D5650",
"2. c #755A53",
"3. c #775B57",
"4. c #785D56",
"5. c #544240",
/* pixels */
"      . X o O O +             o @ # $ # # % o o O O o &       * ",
"X = - ; o : > , : o o o o o o : , < # 1 # , : : , , 2 o o 3 4 5 ",
"6 7 5 O O , 8 8 9 O O O O O O 9 8 # # 1 # 8 , , < 8 , O O 0 q w ",
"o : , # e # # # # # # < # # # < # # # # # # # # # # # # # r t y ",
"O , 8 # # # # # # # # # # # < # # # # # # # # # # # # # # r t y ",
"# < < # # # # # # # # # # # # # # # # # # # # # # # # # # r t y ",
"# # # # # # # # # # # # $ $ # # # # # # 1 # # # # u # i < r t y ",
"O , 8 # $ # # p a a p < $ # 1 1 # # # # # # # # # $ # # e r t y ",
"o : , # # # # s w d s # # e # # < # # # # # # # # f f # $ r t g ",
"o : h p s r r j k q 0 l z s x # # # # # # # f # e f # c # r t y ",
"v , 8 a b n m M N 4 3 B V b C # # # # $ # c c # # # # # # r t y ",
"O , 8 z Z w w A S o o S A D 0 l F s p # # # # # # # # # # G b t ",
"o : H l B 5 J S % O O % S 4 3 B Z K s # # f # # # # # # # p s r ",
"  7 5 S L o o : , # # , P o o S A Z F # # f # # # # # # e p s r ",
"  = I L S O O , 8 U U U U U U U U U U U U U U # # # $ # # s b t ",
"Y T 7 2 , # # # U U R R R E E E E E E R R U U U p # # # # W b t ",
"  7 5 Q 8 # # # U U R R R E E E E E E R R U U U W # # # # p W ! ",
"o : , # # # U U U E ~ ~ E ^ ^ ^ ^ ^ ^ / ~ E E U U U ( r r r r r ",
"O , < # # # U U R ^ ~ ~ ~ ~ ~ ~ ~ ~ ~ ~ ~ ^ ^ R U U t t t t t t ",
"# # # # # # U U R ^ ~ ~ ~ ~ ~ ~ ~ ~ ~ ~ ~ ^ ^ R U U w w ) _ ` y ",
"# # # # # # U U E E E E E E E E E E E E E E E E U U 5 5 5 ' _ y ",
"> ] 8 < $ $ U U U U U U R R R R R R R R U U U U U U o o [ B Z t ",
"o : , # # U E E E ^ { { { { { R R { { { { ^ ^ E E E U O O l z r ",
"  o @ # # U E E E ^ { { { { { R R { { { { ^ ^ E E E U # $ ' < } ",
"  o | # # U R R R R ^ ^ { R R R R R R { ^ R R R R R U # # # # # ",
" ...O # # U E E R R { { { { { ^ ^ { { { { R R R E E U # # p s X.",
"  + O # # # U U E E R R R R R R R R R R R E E E U U # # # s b t ",
"  o O # # # U U E E R R R R R R R R R R R E E E U U # # # r t y ",
"  o O # # # U U U U U U U U U U U U U U U U U U U U # # # r o.y ",
"5 O.+.@.r s p p s +.O.#.$.J $ r r r r r r s p p s r r r r %.&.y ",
"w *.=.t t b s s b -.;.:.0 >.,.<.t t t t t b s s b t t t t 1.2.y ",
"3.g y y y t r r t y y t r X.t g 4.g y y y t 5.r t y y y y 4.g y "
};
