/* XPM */
static char * chest4_xpm[] = {
"40 40 186 2",
"  	c #40264D",
". 	c #41274E",
"+ 	c #42284F",
"@ 	c #3F254C",
"# 	c #492E57",
"$ 	c #5A3D69",
"% 	c #5B3E6A",
"& 	c #4A3058",
"* 	c #583B67",
"= 	c #5E3F6E",
"- 	c #5D3E6E",
"; 	c #563767",
"> 	c #583968",
", 	c #573868",
"' 	c #573867",
") 	c #5E3F6F",
"! 	c #5C3D6D",
"~ 	c #593A6A",
"{ 	c #593A69",
"] 	c #5B3C6C",
"^ 	c #5D3E6D",
"/ 	c #624373",
"( 	c #614271",
"_ 	c #5F406F",
": 	c #634473",
"< 	c #533563",
"[ 	c #4A2F58",
"} 	c #492D56",
"| 	c #492D57",
"1 	c #543665",
"2 	c #492E55",
"3 	c #35202F",
"4 	c #3B2329",
"5 	c #3E252A",
"6 	c #553766",
"7 	c #452A50",
"8 	c #3B2738",
"9 	c #50373A",
"0 	c #704A3D",
"a 	c #7A503E",
"b 	c #553666",
"c 	c #3C2445",
"d 	c #482E2C",
"e 	c #724C42",
"f 	c #845745",
"g 	c #986944",
"h 	c #B1864A",
"i 	c #CCA357",
"j 	c #D0A757",
"k 	c #D0A655",
"l 	c #3C2446",
"m 	c #55352D",
"n 	c #865943",
"o 	c #956745",
"p 	c #B68B49",
"q 	c #DDB255",
"r 	c #FAD068",
"s 	c #FFDA80",
"t 	c #FFDC8A",
"u 	c #3B2446",
"v 	c #56372D",
"w 	c #906443",
"x 	c #B68A47",
"y 	c #E0B558",
"z 	c #FAD168",
"A 	c #FED879",
"B 	c #FFE7AF",
"C 	c #FFEFC5",
"D 	c #FFEEC4",
"E 	c #392146",
"F 	c #6B4D2C",
"G 	c #B48946",
"H 	c #E1B75A",
"I 	c #F8CD61",
"J 	c #FFDA7F",
"K 	c #FFEFC6",
"L 	c #FFF2CD",
"M 	c #FFF1CD",
"N 	c #FFF2CE",
"O 	c #583969",
"P 	c #382146",
"Q 	c #75572B",
"R 	c #C69A48",
"S 	c #F5CB63",
"T 	c #FFDE86",
"U 	c #FFE7AB",
"V 	c #FFF1C9",
"W 	c #FFF3CE",
"X 	c #FFF3CD",
"Y 	c #FFF0C8",
"Z 	c #FFE9B3",
"` 	c #FFEEBF",
" .	c #604171",
"..	c #3A2246",
"+.	c #6B4E28",
"@.	c #B48C41",
"#.	c #E0B85B",
"$.	c #ECD296",
"%.	c #EDDFBC",
"&.	c #F0E4C4",
"*.	c #F1E5C6",
"=.	c #F1E1BB",
"-.	c #F1D18C",
";.	c #F1DBAA",
">.	c #3A2347",
",.	c #3D2546",
"'.	c #3E2D25",
").	c #604B34",
"!.	c #745D34",
"~.	c #77674A",
"{.	c #857E75",
"].	c #A4A0A0",
"^.	c #A9A6A6",
"/.	c #AAA5A4",
"(.	c #AAA09A",
"_.	c #A9A39F",
":.	c #3E2547",
"<.	c #5B3C6B",
"[.	c #3C2143",
"}.	c #565D66",
"|.	c #818D99",
"1.	c #715F60",
"2.	c #502823",
"3.	c #473844",
"4.	c #68606C",
"5.	c #6B6470",
"6.	c #7A7784",
"7.	c #8C8E9C",
"8.	c #8C8E9E",
"9.	c #7A7885",
"0.	c #3A2143",
"a.	c #666D77",
"b.	c #9EA9B5",
"c.	c #938588",
"d.	c #7C5C57",
"e.	c #644441",
"f.	c #563E42",
"g.	c #63565E",
"h.	c #7C7984",
"i.	c #8F919E",
"j.	c #3B2143",
"k.	c #5D5D66",
"l.	c #9195A2",
"m.	c #92929E",
"n.	c #897679",
"o.	c #785043",
"p.	c #5D4649",
"q.	c #797580",
"r.	c #8C8A96",
"s.	c #8F8C97",
"t.	c #676E78",
"u.	c #A0AEBB",
"v.	c #979CA9",
"w.	c #7C727A",
"x.	c #604342",
"y.	c #563F44",
"z.	c #60525A",
"A.	c #776264",
"B.	c #8A6B64",
"C.	c #392143",
"D.	c #6C767F",
"E.	c #A9BCCA",
"F.	c #A5B4C1",
"G.	c #8E939F",
"H.	c #77727D",
"I.	c #78727C",
"J.	c #77717B",
"K.	c #81757B",
"L.	c #8D7A7C",
"M.	c #3B2142",
"N.	c #5F666F",
"O.	c #95A5B2",
"P.	c #99ABB7",
"Q.	c #8D97A3",
"R.	c #7F808B",
"S.	c #7F7F8B",
"T.	c #807F8B",
"U.	c #402648",
"V.	c #352E37",
"W.	c #474650",
"X.	c #494953",
"Y.	c #44404A",
"Z.	c #403741",
"`.	c #4F325E",
" +	c #472D56",
".+	c #482D56",
"      . + + + + + + + + + + + + + + + + + + + + + + + + + + + + + + + + .       ",
"    @ # $ % % % % % % % % % % % % % % % % % % % % % % % % % % % % % % $ # @     ",
"  @ & * = = = = = = = = = = = = = = = = = = = = = = = = = = = = = = = = * & @   ",
". # * - ; ; ; ; ; ; ; ; ; ; ; ; ; ; ; ; ; ; ; ; ; ; ; ; ; ; ; ; ; ; ; ; - * # . ",
"+ $ = ; ; ; > , ; ; ; ; ; ; ; ; ; ; ; ; ; ; ; ; ; ; ; ; ; ; ; ; ; ; ; ; ; = $ + ",
"+ % = ; ; ' ) ! ; ; ; ; ; ; ; ; ; ; ; ; ; ; ; ; ; ; ; ; ; ; ; ; ; ; ; ; ; = % + ",
"+ % = ; ; ; ~ { ; ; ; ; ; ; ; ; ; ; ; ; ; ; ; ; ; ; ; ; ; ; ; - ] ; ; ; ; = % + ",
"+ % = ; ; ; ; ; ; ; ; ; ; ; ; ; ; ; ; ; ; ; ; ; ; ; ; ; ; , ^ / ( ] ; ; ; = % + ",
"+ % = ; ; ; ; ; ; ; ; ; ; ; ; ; ; ; ; ; ; ; ; ; ; ; ; ; ; > _ : / - ; ; ; = % + ",
"+ % = ; ; ; ; ; ; ; ; ; ; ; ; ; ; ; ; ; ; ; ; ; ; ; ; ; ; ; , _ ^ ; ; ; ; = % + ",
"+ % = ; ; ; ; ; ; ; ; ; ; ; ; ; ; ; ; ; ; ; ; ; ; ; ; ; ; ; ; > , ; ; ; ; = % + ",
"+ % = ; ; ; ; ; ; ; ; ; ; ; ; ; ; ; ; ; ; ; ; ; ; ; ; ; ; ; ; ; ; ; ; ; ; = % + ",
"+ % = ; ; ; ; ; ; ; ; ; ; ; ; ; ; ; ; ; ; ; ; ; ; ; ; ; ; ; ; ; ; ; ; ; ; = % + ",
"+ % = ; ; ; ; ; ; ; ; ; ; ; ; ; ; ; ; ; ; ; ; ; ; ; ; ; ; ; ; ; ; ; ; ; ; = % + ",
"+ % = ; ; ; ; ; ; ; ; ; ; ; ; ; ; ; ; ; ; ; ; ; ; ; ; ; ; ; ; ; ; ; ; ; ; = % + ",
"+ % = ; ; ; ; ; ; ; ; ; ; ; ; ; ; ; ; ; ; ; ; ; ; ; ; ; ; ; ; ; ; ; ; ; ; = % + ",
"+ % = ; ; ; ; ; ; ; ; ; ; ; ; ; ; ; ; ; ; ; ; ; ; ; ; ; ; ; ; ; ; ; ; ; ; = % + ",
"+ % = ; ; ; ; ; ; ; ; < [ } | | | | | | | | | | | | } [ < ; ; ; ; ; ; ; ; = % + ",
"+ % = ; ; ; ; ; ; ; 1 2 3 4 5 5 5 5 5 5 5 5 5 5 5 5 4 3 2 1 ; ; ; ; ; ; ; = % + ",
"+ % = ; ; ; ; ; ; 6 7 8 9 0 a a a a a a a a a a a a 0 9 8 7 6 ; ; ; ; ; ; = % + ",
"+ % = ; ; ; ; ; ; b c d e f g h i j k k k k j i h g f e d c b ; ; ; ; ; ; = % + ",
"+ % = ; ; ; ; ; ; b l m n o p q r s t t t t s r q p o n m l b ; ; ; ; ; ; = % + ",
"+ % = ; ; ; ; ; ; b u v w x y z A B C D D C B A z y x w v u b ; ; ; ; ; ; = % + ",
"+ % = ; ; ; ; ; ; b E F G H I J B K L M N N K B J I H G F E b ~ O ; ; ; ; = % + ",
"+ % = ; ; ; ; ; ; b P Q R S T U V W X Y Z ` W V U T S R Q P ,  .- ; ; ; ; = % + ",
"+ % = ; ; ; ; ; ; b ..+.@.#.$.%.&.*.*.=.-.;.*.&.%.$.#.@.+.>._ : - ; ; ; ; = % + ",
"+ % = ; ; ; ; ; ; b ,.'.).!.~.{.].^.^./.(._.^.].{.~.!.).'.:.~ <.O ; ; ; ; = % + ",
"+ % = ; ; ; ; ; ; b [.}.|.1.2.3.4.5.6.7.8.9.5.4.3.2.1.|.}.[.b ; ; ; ; ; ; = % + ",
"+ % = ; ; ; ; ; ; b 0.a.b.c.d.e.f.g.h.i.i.h.g.f.e.d.c.b.a.0.b ; ; ; ; ; ; = % + ",
"+ % = ; ; ; ; ; ; b j.k.l.m.n.o.p.q.r.s.s.r.q.p.o.n.m.l.k.j.b ; ; ; ; ; ; = % + ",
"+ % = ; ; ; ; ; ; b 0.t.u.v.w.x.y.z.A.B.B.A.z.y.x.w.v.u.t.0.b ; ; ; ; ; ; = % + ",
"+ % = ; ; ; ; ; ; b C.D.E.F.G.H.I.J.K.L.L.K.J.I.H.G.F.E.D.C.b ; ; ; ; ; ; = % + ",
"+ % = ; ; ; ; ; ; b M.N.O.P.Q.R.S.S.S.T.T.S.S.S.R.Q.P.O.N.M.b ; ; ; ; ; ; = % + ",
"+ % = ; ; ; ; ; ; b U.V.W.X.Y.Z.Z.Z.Z.Z.Z.Z.Z.Z.Z.Y.X.W.V.U.b ; ; ; ; ; ; = % + ",
"+ % _ , ; ; ; ; ; ; `.}  + +.+.+.+.+.+.+.+.+.+.+.+.+ + +} `.; ; ; ; ; ; ; = % + ",
"+ $ : _ , ; ; ; ; ; ; ; ; ; ; ; ; ; ; ; ; ; ; ; ; ; ; ; ; ; ; ; ; ; ; ; ; = $ + ",
". # $ : _ , ; ; ; ; ; ; ; ; ; ; ; ; ; ; ; ; ; ; ; ; ; ; ; ; ; ; ; ; ; ; - * # . ",
"  @ [ $ : _ = = = = = = = = = = = = = = = = = = = = = = = = = = = = = = * & @   ",
"    @ # $ % % % % % % % % % % % % % % % % % % % % % % % % % % % % % % $ # @     ",
"      . + + + + + + + + + + + + + + + + + + + + + + + + + + + + + + + + .       "};
