/* XPM */
static char *_565a5847c3b4a40b78dab1c2aaba6b4qGE5BcgphPxPllBx[] = {
/* columns rows colors chars-per-pixel */
"32 32 143 2 ",
"   c #070707",
".  c #1B1616",
"X  c #181817",
"o  c #191615",
"O  c #3F1F05",
"+  c #211C1B",
"@  c #3F2005",
"#  c #3F3C15",
"$  c #0C2C39",
"%  c #222222",
"&  c #292423",
"*  c #2A2927",
"=  c #2D2A29",
"-  c #272823",
";  c #342E2C",
":  c #3B2D2C",
">  c #322A26",
",  c #38302E",
"<  c #3E3533",
"1  c #442C05",
"2  c #5A2D04",
"3  c #54311B",
"4  c #433E17",
"5  c #673707",
"6  c #783802",
"7  c #413535",
"8  c #443936",
"9  c #473A39",
"0  c #493B3A",
"q  c #483A37",
"w  c #494D0B",
"e  c #515105",
"r  c #6B4304",
"t  c #6F4708",
"y  c #704808",
"u  c #68670D",
"i  c #4E403F",
"p  c #51423F",
"a  c #5E4D3B",
"s  c #715935",
"d  c #794825",
"f  c #75743B",
"g  c #0E244C",
"h  c #022254",
"j  c #14356B",
"k  c #554341",
"l  c #594743",
"z  c #5C4A45",
"x  c #614E47",
"c  c #624E48",
"v  c #66514B",
"b  c #6B544E",
"n  c #6E5651",
"m  c #775C55",
"M  c #785C55",
"N  c #9B4F0C",
"B  c #89521D",
"V  c #AC5200",
"C  c #9E7102",
"Z  c #AD6701",
"A  c #AA630F",
"S  c #BD6700",
"D  c #B66F0B",
"F  c #B56506",
"G  c #BD790C",
"H  c #A46212",
"J  c #BB7B11",
"K  c #845B27",
"L  c #986920",
"P  c #927333",
"I  c #C37102",
"U  c #CE7C00",
"Y  c #847340",
"T  c #828309",
"R  c #A78502",
"E  c #A88A02",
"W  c #B48401",
"Q  c #BF8211",
"!  c #B2B002",
"~  c #838332",
"^  c #A59023",
"/  c #ADA62F",
"(  c #B3BF3A",
")  c #D38400",
"_  c #D48E00",
"`  c #CE9B1A",
"'  c #D59F12",
"]  c #E8B500",
"[  c #EABD00",
"{  c #D1AC11",
"}  c #D2C201",
"|  c #D9C710",
" . c #DDC01A",
".. c #E8C000",
"X. c #F1D300",
"o. c #EDC213",
"O. c #EFE305",
"+. c #F8EB00",
"@. c #F5E009",
"#. c #FDFF13",
"$. c #E5F225",
"%. c #FEFF38",
"&. c #EECE2F",
"*. c #838358",
"=. c #A58944",
"-. c #B4B55E",
";. c #838361",
":. c #CAAE5F",
">. c #E8C05D",
",. c #D4F958",
"<. c #F5E241",
"1. c #FBF541",
"2. c #F8EC5E",
"3. c #FEFF5D",
"4. c #FDFC54",
"5. c #E3C56A",
"6. c #D8E677",
"7. c #134783",
"8. c #155997",
"9. c #155E9C",
"0. c #17639C",
"q. c #0F5DA1",
"w. c #228DB4",
"e. c #70DFE6",
"r. c #71E4E6",
"t. c #64E8FF",
"y. c #6AE0F1",
"u. c #89ABA2",
"i. c #B3CEB7",
"p. c #B9CFB2",
"a. c #B6D9BE",
"s. c #F3DC83",
"d. c #EBD888",
"f. c #D8F99D",
"g. c #F9EB83",
"h. c #F1FD9A",
"j. c #FEFAA8",
"k. c #EEFCB0",
"l. c #FAFEB0",
"z. c #FFFFBB",
"x. c #B7EED0",
"c. c #B2F4DD",
"v. c #CEF5CE",
/* pixels */
"% % % % % * < < * % % % % % % * < 0 0 0 0 < - - 7 7 * % % % % % ",
"% % - * * ; 7 7 ; * * * * * * ; 7 9 0 0 0 7 ; ; 7 7 ; * * = ; : ",
"% - , < < 7 9 9 7 < < < < < < 7 0 0 0 0 0 8 7 7 9 9 7 7 < 8 l c ",
"* ; 7 0 0 0 0 0 0 0 0 0 0 0 0 9 0 0 0 0 0 0 0 0 0 0 0 9 0 k n m ",
"7 7 9 0 0 0 0 0 0 0 0 9 0 0 0 0 0 0 0 0 0 9 0 0 0 0 0 0 0 k n m ",
"0 9 9 0 0 0 0 0 0 0 0 0 0 0 0 0 0 0 0 0 0 0 0 0 0 0 0 0 0 k b m ",
"0 0 0 0 0 0 0 0 0 0 0 0 0 0 0 0 0 0 0 0 0 0 0 0 0 0 0 9 9 k n m ",
"7 7 9 0 0 0 0 0 k k 0 0 0 0 0 0 0 0 0 0 0 0 0 0 0 0 0 0 0 k v m ",
"* ; 7 0 0 0 0 k c x p 0 0 0 0 0 9 0 0 0 0 0 0 0 0 0 0 0 0 k n m ",
"* ; 7 0 p k k k z l 0 7 i p 0 0 0 0 0 0 0 0 9 0 0 0 9 9 0 k b m ",
"7 7 9 i c b b z 8 , = < ; + . . . . . & 0 0 0 0 0 0 0 0 0 k b m ",
"7 7 9 i z c c i * X X . u ~ ;.;.;.;.~ u + & & , 0 0 0 0 0 k z b ",
"* ; 7 9 < ; , = 4 e w $ ( 2.s.g.g.g.2.( $ w e 4 , 0 0 0 0 0 k k ",
"% - , , = * & o T #.$.w.a.5.`  .{ ` 5.a.w.$.#.T X 0 0 0 0 0 k k ",
"% % - = < < < o *.j.k.y.v.x.e.r.r.e.x.v.y.k.j.*.X 0 0 0 8 k c b ",
"% % * ; 7 0 . t :.z.l.,.h.c.t.t.t.t.c.h.,.l.z.:.y X 0 0 8 k c b ",
"% - , 7 9 9   C &.3.3.X.1.f.c.c.c.c.f.1.X.3.3.&.C   0 0 0 0 k k ",
"* ; < 0 0 0   R X.+.O./  .<.g.g.g.g.<.| / O.+.X.R   k k k k k k ",
"< 7 9 0 0 0   E [ ] { 0.Y ' [ o.o.o.' Y 0.{ ] [ E   b b b b b b ",
"0 0 0 0 0 0   ! [ _ Q 0.q.u.j.j.j.j.u.q.9.Q ) [ !   c c x v m M ",
"0 0 0 0 0 0   -.g.s.d.p.i.6.%.%.%.%.6.i.p.d.s.g.-.  , , , 8 v m ",
"7 7 9 0 k 0   =.>.>.>.>.>.&.} T T } &.>.>.>.>.>.=.  * * * < l b ",
"* ; 7 0 0 0 . y Z I S L D _ W 1 1 W _ D L I I Z t o < < < 8 i k ",
"% * < 0 0 0 0 . 2 V N j d F G G G G F d j N V 2 . 9 0 0 0 0 9 9 ",
"% * < 0 0 0 0 . r U J 8.P s j j j j s P 8.J U 5 X 0 0 0 0 0 0 0 ",
"% * < 0 0 0 0 . r U J 9.P H K ^ ^ K H P 9.J ) r . 0 0 0 0 0 k l ",
"% * < 0 0 0 0 . 5 S A 7.K B a f f a B K 7.A S 5 . 0 0 0 0 p c b ",
"% * < 0 0 0 0 . 1 6 5 g 3 : h h h h : 3 g 5 6 1 . 0 0 0 0 k b m ",
"% * < 0 0 0 0 .                                 . 0 0 0 0 k n m ",
", < 0 k k k 0 0 k 0 < ; > , 0 p k k k k k p 0 0 p k k k k z n m ",
"c c v n n z k k v v v l 0 0 c b b b b b b c p p c b b b b n m m ",
"M M m m m n k k b M m b k k b M M M M M m b k k b m m m m m m m "
};
