/* XPM */
static char * chest2_xpm[] = {
"40 40 191 2",
"  	c #40264D",
". 	c #41274E",
"+ 	c #42284F",
"@ 	c #3F254C",
"# 	c #492E57",
"$ 	c #5A3D69",
"% 	c #5B3E6A",
"& 	c #4A3058",
"* 	c #583B67",
"= 	c #5E3F6E",
"- 	c #5D3E6E",
"; 	c #563767",
"> 	c #583968",
", 	c #573868",
"' 	c #573867",
") 	c #5E3F6F",
"! 	c #5C3D6D",
"~ 	c #593A6A",
"{ 	c #593A69",
"] 	c #5B3C6C",
"^ 	c #5D3E6D",
"/ 	c #624373",
"( 	c #614271",
"_ 	c #5F406F",
": 	c #634473",
"< 	c #513461",
"[ 	c #351F38",
"} 	c #291A21",
"| 	c #2D2026",
"1 	c #2D2027",
"2 	c #2F262C",
"3 	c #30282E",
"4 	c #50335F",
"5 	c #3E2545",
"6 	c #270C20",
"7 	c #54525B",
"8 	c #72727D",
"9 	c #74747F",
"0 	c #848F9A",
"a 	c #8B9BA7",
"b 	c #8B9BA6",
"c 	c #838F9A",
"d 	c #71727D",
"e 	c #3F2447",
"f 	c #322B33",
"g 	c #606871",
"h 	c #8B8086",
"i 	c #A08F96",
"j 	c #9CA2AE",
"k 	c #A0A8B3",
"l 	c #A3AAB3",
"m 	c #A3A9B3",
"n 	c #A3A9B2",
"o 	c #A2ABB5",
"p 	c #A0A8B5",
"q 	c #A19298",
"r 	c #553666",
"s 	c #402748",
"t 	c #2C1B26",
"u 	c #505057",
"v 	c #94A0AB",
"w 	c #B39897",
"x 	c #B9887D",
"y 	c #AEAEB6",
"z 	c #9C8988",
"A 	c #926553",
"B 	c #936757",
"C 	c #926453",
"D 	c #A09191",
"E 	c #B7BCC5",
"F 	c #BC8E85",
"G 	c #B29896",
"H 	c #3C2143",
"I 	c #504D55",
"J 	c #7F7D87",
"K 	c #908081",
"L 	c #AC7767",
"M 	c #BE785D",
"N 	c #BB8678",
"O 	c #B67660",
"P 	c #B36A48",
"Q 	c #B46A4A",
"R 	c #B77964",
"S 	c #BE8C80",
"T 	c #BF7A60",
"U 	c #AC7766",
"V 	c #3A2143",
"W 	c #646972",
"X 	c #9DA7B4",
"Y 	c #9F9FA7",
"Z 	c #AB9DA0",
"` 	c #B7A1A1",
" .	c #B79F9F",
"..	c #B8A0A0",
"+.	c #B8A1A1",
"@.	c #B7A0A0",
"#.	c #B79F9E",
"$.	c #3B2143",
"%.	c #5F666E",
"&.	c #95A5B1",
"*.	c #9AABB8",
"=.	c #99AAB7",
"-.	c #9DAEBA",
";.	c #A6B6C3",
">.	c #A7B7C5",
",.	c #A7B7C4",
"'.	c #3E2445",
").	c #39353B",
"!.	c #50545B",
"~.	c #504E54",
"{.	c #49474D",
"].	c #60626B",
"^.	c #8B8E9A",
"/.	c #9195A1",
"(.	c #9295A2",
"_.	c #9397A4",
":.	c #5B626B",
"<.	c #8A96A0",
"[.	c #7B6765",
"}.	c #5C3427",
"|.	c #4F3D43",
"1.	c #675C64",
"2.	c #6A5F68",
"3.	c #7B7681",
"4.	c #8F8F9C",
"5.	c #583969",
"6.	c #666C75",
"7.	c #9DA7B3",
"8.	c #93888C",
"9.	c #7E615D",
"0.	c #674641",
"a.	c #563E42",
"b.	c #807D88",
"c.	c #90919E",
"d.	c #604171",
"e.	c #3C2243",
"f.	c #5A5861",
"g.	c #8D8E9B",
"h.	c #91919D",
"i.	c #8D797B",
"j.	c #7D5343",
"k.	c #5E4649",
"l.	c #78747E",
"m.	c #888793",
"n.	c #3C2344",
"o.	c #91929F",
"p.	c #8D7A7C",
"q.	c #7E5344",
"r.	c #5B4142",
"s.	c #5B4B52",
"t.	c #61535A",
"u.	c #625359",
"v.	c #5B3C6B",
"w.	c #656A73",
"x.	c #9CA7B4",
"y.	c #9599A6",
"z.	c #7F7278",
"A.	c #66443F",
"B.	c #54393C",
"C.	c #4E353A",
"D.	c #613F3A",
"E.	c #744B3C",
"F.	c #392142",
"G.	c #6B757F",
"H.	c #A8BAC8",
"I.	c #A1ADBA",
"J.	c #868893",
"K.	c #6C636C",
"L.	c #7B696D",
"M.	c #8C716E",
"N.	c #3D2548",
"O.	c #686F7A",
"P.	c #A0B2BF",
"Q.	c #A4B6C3",
"R.	c #959FAC",
"S.	c #868692",
"T.	c #878692",
"U.	c #898792",
"V.	c #513360",
"W.	c #544762",
"X.	c #5F646E",
"Y.	c #606770",
"Z.	c #595C64",
"`.	c #524E56",
" +	c #514E56",
".+	c #514D56",
"++	c #503360",
"@+	c #3F274C",
"#+	c #3D2549",
"$+	c #3F264A",
"%+	c #4A2F58",
"      . + + + + + + + + + + + + + + + + + + + + + + + + + + + + + + + + .       ",
"    @ # $ % % % % % % % % % % % % % % % % % % % % % % % % % % % % % % $ # @     ",
"  @ & * = = = = = = = = = = = = = = = = = = = = = = = = = = = = = = = = * & @   ",
". # * - ; ; ; ; ; ; ; ; ; ; ; ; ; ; ; ; ; ; ; ; ; ; ; ; ; ; ; ; ; ; ; ; - * # . ",
"+ $ = ; ; ; > , ; ; ; ; ; ; ; ; ; ; ; ; ; ; ; ; ; ; ; ; ; ; ; ; ; ; ; ; ; = $ + ",
"+ % = ; ; ' ) ! ; ; ; ; ; ; ; ; ; ; ; ; ; ; ; ; ; ; ; ; ; ; ; ; ; ; ; ; ; = % + ",
"+ % = ; ; ; ~ { ; ; ; ; ; ; ; ; ; ; ; ; ; ; ; ; ; ; ; ; ; ; ; - ] ; ; ; ; = % + ",
"+ % = ; ; ; ; ; ; ; ; ; ; ; ; ; ; ; ; ; ; ; ; ; ; ; ; ; ; , ^ / ( ] ; ; ; = % + ",
"+ % = ; ; ; ; ; ; ; ; ; ; ; ; ; ; ; ; ; ; ; ; ; ; ; ; ; ; > _ : / - ; ; ; = % + ",
"+ % = ; ; ; ; ; ; ; ; ; ; ; ; ; ; ; ; ; ; ; ; ; ; ; ; ; ; ; , _ ^ ; ; ; ; = % + ",
"+ % = ; ; ; ; ; ; ; ; ; ; ; ; ; ; ; ; ; ; ; ; ; ; ; ; ; ; ; ; > , ; ; ; ; = % + ",
"+ % = ; ; ; ; ; ; ; ; ; ; ; ; ; ; ; ; ; ; ; ; ; ; ; ; ; ; ; ; ; ; ; ; ; ; = % + ",
"+ % = ; ; ; ; ; ; ; ; ; ; ; ; ; ; ; ; ; ; ; ; ; ; ; ; ; ; ; ; ; ; ; ; ; ; = % + ",
"+ % = ; ; ; ; ; ; ; ; ; ; ; ; ; ; ; ; ; ; ; ; ; ; ; ; ; ; ; ; ; ; ; ; ; ; = % + ",
"+ % = ; ; ; ; ; ; ; ; ; ; ; ; ; ; ; ; ; ; ; ; ; ; ; ; ; ; ; ; ; ; ; ; ; ; = % + ",
"+ % = ; ; ; ; ; ; ; ; ; < [ } | 1 2 3 3 3 3 2 1 | } [ < ; ; ; ; ; ; ; ; ; = % + ",
"+ % = ; ; ; ; ; ; ; ; 4 5 6 7 8 9 0 a b b a c 9 d 7 6 5 4 ; ; ; ; ; ; ; ; = % + ",
"+ % = ; ; ; ; ; ; ; 4 e f g h i j k l m m n o p q h g f e 4 ; ; ; ; ; ; ; = % + ",
"+ % = ; ; ; ; ; ; r s t u v w x y z A B B C D E F G v u t s r ; ; ; ; ; ; = % + ",
"+ % = ; ; ; ; ; ; r H I J K L M N O P Q Q P R S T U K J I H r ; ; ; ; ; ; = % + ",
"+ % = ; ; ; ; ; ; r V W X Y Z `  ...+.+.+.+.@.#.` Z Y X W V r ; ; ; ; ; ; = % + ",
"+ % = ; ; ; ; ; ; r $.%.&.*.=.-.;.>.,.,.,.,.>.;.-.=.*.&.%.$.r ; ; ; ; ; ; = % + ",
"+ % = ; ; ; ; ; ; r '.).!.~.{.].^./.(._._.(./.^.].{.~.!.).'.r ; ; ; ; ; ; = % + ",
"+ % = ; ; ; ; ; ; r $.:.<.[.}.|.1.2.3.4.4.3.2.1.|.}.[.<.:.$.r ~ 5.; ; ; ; = % + ",
"+ % = ; ; ; ; ; ; r V 6.7.8.9.0.a.1.b.c.c.b.1.a.0.9.8.7.6.V , d.- ; ; ; ; = % + ",
"+ % = ; ; ; ; ; ; r e.f.g.h.i.j.k.l.m.m.m.m.l.k.j.i.h.g.f.n._ : - ; ; ; ; = % + ",
"+ % = ; ; ; ; ; ; r $.f.g.o.p.q.r.s.t.u.u.t.s.r.q.p.o.g.f.e.~ v.5.; ; ; ; = % + ",
"+ % = ; ; ; ; ; ; r V w.x.y.z.A.B.C.D.E.E.D.C.B.A.z.y.x.w.V r ; ; ; ; ; ; = % + ",
"+ % = ; ; ; ; ; ; r F.G.H.I.J.K.K.K.L.M.M.L.K.K.K.J.I.H.G.F.r ; ; ; ; ; ; = % + ",
"+ % = ; ; ; ; ; ; r N.O.P.Q.R.S.S.S.T.U.U.T.S.S.S.R.Q.P.O.N.r ; ; ; ; ; ; = % + ",
"+ % = ; ; ; ; ; ; ; V.W.X.Y.Z.`. + + +.+.+ + + +`.Z.Y.X.W.V.; ; ; ; ; ; ; = % + ",
"+ % = ; ; ; ; ; ; ; ; ++@+#+$+$+$+$+$+$+$+$+$+$+$+$+#+@+++; ; ; ; ; ; ; ; = % + ",
"+ % = ; ; ; ; ; ; ; ; ; ; ; ; ; ; ; ; ; ; ; ; ; ; ; ; ; ; ; ; ; ; ; ; ; ; = % + ",
"+ % = ; ; ; ; ; ; ; ; ; ; ; ; ; ; ; ; ; ; ; ; ; ; ; ; ; ; ; ; ; ; ; ; ; ; = % + ",
"+ % _ , ; ; ; ; ; ; ; ; ; ; ; ; ; ; ; ; ; ; ; ; ; ; ; ; ; ; ; ; ; ; ; ; ; = % + ",
"+ $ : _ , ; ; ; ; ; ; ; ; ; ; ; ; ; ; ; ; ; ; ; ; ; ; ; ; ; ; ; ; ; ; ; ; = $ + ",
". # $ : _ , ; ; ; ; ; ; ; ; ; ; ; ; ; ; ; ; ; ; ; ; ; ; ; ; ; ; ; ; ; ; - * # . ",
"  @ %+$ : _ = = = = = = = = = = = = = = = = = = = = = = = = = = = = = = * & @   ",
"    @ # $ % % % % % % % % % % % % % % % % % % % % % % % % % % % % % % $ # @     ",
"      . + + + + + + + + + + + + + + + + + + + + + + + + + + + + + + + + .       "};
