/* XPM */
static char *result[] = {
/* columns rows colors chars-per-pixel */
"32 32 11 1 ",
"  c #111111",
". c #222222",
"X c #483B3A",
"o c #62232F",
"O c #775C55",
"+ c #8F4029",
"@ c #AA8D7A",
"# c #72D6CE",
"$ c #D3BFA9",
"% c #FDF7ED",
"& c None",
/* pixels */
"&&.@@.$$$..............$$.@@@.&&",
"&.@@$$...OO.OOO.OOO.OOO...$$@@.&",
".@@$..OOOXX.XXX.XXX.XXX.OO..$@..",
"@.$.OO.XX..............OXXOO..@@",
"@$.XXX...              ...XXX.$@",
"$..XX.   + +++ o++ +++ +  .....$",
"$.O..  +++ +++ o++ ++o +++ .OO..",
".XXO.+ +o+ +++ o+o ++o +++ ..XX.",
".XX. + +o+ +++ +++ ++o +o+  .XX.",
"XXX.++ +o+ +o+ ++o +oo +o+ +....",
"... ++ +oo +++ ++o +oo oo+ +o.OO",
"OO.+++ +oo +o+ ++o +oo o+o o+.XX",
"X...++ ++o +o+ ++o ++o o+o o+.XX",
"X.#.....oo +o+ o+o +o+ ... +o.XX",
"..#%#%#.+o +oo o++ ++...#...+...",
"O.#.....+o +oo o+o ++.#####.o.OO",
"X...    +o +oo o++ +o.#...#.o.XX",
"XX. +o ++o +oo o++ oo.%...%.o.XX",
"...++o ++o ++o +++ oo .%%%. o...",
"OO.o+o +o+ ++o +++ oo+ ... oo.OO",
"XX.o+o +++ +++ +o+ oo+     oo.XX",
"X...+o +o+ +++ +o+ oo+ +++ oo.XX",
"..#.....o+ +++ +o+ o++ +++ oo...",
"O.#%#%#.o+ +++ +o+ o++ +++ o+.OO",
"X.#.....o+ o++ +o+ o++ +++ o+.XX",
"X...    o+ o+o +o+ o++ +++ o+.XX",
"XX.+++ +o+ o+o +++ +++ o+o oo...",
"...                          .OO",
"OO............................XX",
"XXO.@@@@@ @@@@ @@@@ @@@@ @@@@.XX",
"XXXO.XXXX.XXXX.XXXX.XXX.XXXX.XXX",
"................................"
};
