/* XPM */
static char * door_closed_xpm[] = {
"40 40 595 2",
"  	c #40264D",
". 	c #41274E",
"+ 	c #42284F",
"@ 	c #3F254C",
"# 	c #492E57",
"$ 	c #5A3D69",
"% 	c #5B3E6A",
"& 	c #5C416C",
"* 	c #5E446E",
"= 	c #5F466F",
"- 	c #5F456E",
"; 	c #4A3058",
"> 	c #583B67",
", 	c #5E3F6E",
"' 	c #5F416F",
") 	c #665178",
"! 	c #6F6083",
"~ 	c #716586",
"{ 	c #716485",
"] 	c #5D3E6E",
"^ 	c #563767",
"/ 	c #593D6A",
"( 	c #645177",
"_ 	c #6A5B7E",
": 	c #6A5E7E",
"< 	c #69617D",
"[ 	c #68617C",
"} 	c #68627C",
"| 	c #5A3E6B",
"1 	c #635076",
"2 	c #6B607E",
"3 	c #6C6481",
"4 	c #665F7A",
"5 	c #5D5770",
"6 	c #5A546C",
"7 	c #5A546D",
"8 	c #6A5F7E",
"9 	c #655C78",
"0 	c #5E5770",
"a 	c #5B556D",
"b 	c #58526A",
"c 	c #585269",
"d 	c #655C77",
"e 	c #604370",
"f 	c #645C76",
"g 	c #575169",
"h 	c #565068",
"i 	c #565067",
"j 	c #42294F",
"k 	c #5D426C",
"l 	c #69557B",
"m 	c #534D64",
"n 	c #4C475C",
"o 	c #494458",
"p 	c #462F54",
"q 	c #675479",
"r 	c #6B607F",
"s 	c #635D77",
"t 	c #534D63",
"u 	c #4A455A",
"v 	c #413C4D",
"w 	c #3A3440",
"x 	c #37313A",
"y 	c #37313B",
"z 	c #38313B",
"A 	c #38313A",
"B 	c #5E516F",
"C 	c #645D78",
"D 	c #38313C",
"E 	c #372D2B",
"F 	c #483A2D",
"G 	c #564636",
"H 	c #4F4031",
"I 	c #3A2F24",
"J 	c #46382B",
"K 	c #534333",
"L 	c #4A3B2F",
"M 	c #3E3227",
"N 	c #514132",
"O 	c #524233",
"P 	c #3E3228",
"Q 	c #40352C",
"R 	c #4D4137",
"S 	c #4C4037",
"T 	c #3E332B",
"U 	c #4B3F35",
"V 	c #54473D",
"W 	c #493D33",
"X 	c #372E2D",
"Y 	c #36303C",
"Z 	c #403B4D",
"` 	c #736A86",
" .	c #675F7A",
"..	c #5B556E",
"+.	c #3B343E",
"@.	c #352A29",
"#.	c #3A2D20",
"$.	c #574532",
"%.	c #6C5740",
"&.	c #624F3B",
"*.	c #433524",
"=.	c #54422F",
"-.	c #65503B",
";.	c #584634",
">.	c #4A3B29",
",.	c #66523C",
"'.	c #64503C",
").	c #473829",
"!.	c #4A3D30",
"~.	c #605142",
"{.	c #605041",
"].	c #473A2D",
"^.	c #56483B",
"/.	c #685848",
"(.	c #5A4B3D",
"_.	c #423529",
":.	c #41352F",
"<.	c #433A40",
"[.	c #78708C",
"}.	c #645E77",
"|.	c #59536B",
"1.	c #554F66",
"2.	c #4B455A",
"3.	c #3B333D",
"4.	c #3E312D",
"5.	c #3E2F21",
"6.	c #3C2D1E",
"7.	c #4E3D2B",
"8.	c #624D38",
"9.	c #5B4735",
"0.	c #403222",
"a.	c #4E3C2A",
"b.	c #584532",
"c.	c #4D3C2C",
"d.	c #483928",
"e.	c #624E39",
"f.	c #5A4734",
"g.	c #413224",
"h.	c #453729",
"i.	c #5C4A39",
"j.	c #5F4D3B",
"k.	c #493A2B",
"l.	c #5B4A3A",
"m.	c #544434",
"n.	c #4A3B2A",
"o.	c #544331",
"p.	c #4D3E35",
"q.	c #3B343D",
"r.	c #655E78",
"s.	c #534E65",
"t.	c #454053",
"u.	c #39323D",
"v.	c #3B2E2A",
"w.	c #463525",
"x.	c #463423",
"y.	c #3B2C1D",
"z.	c #413021",
"A.	c #4F3B29",
"B.	c #493726",
"C.	c #392B1C",
"D.	c #453323",
"E.	c #493625",
"F.	c #3F2E1F",
"G.	c #433323",
"H.	c #594531",
"I.	c #4D3A28",
"J.	c #392A1C",
"K.	c #3E2E1F",
"L.	c #523F2C",
"M.	c #5B4732",
"N.	c #513F2C",
"O.	c #443422",
"P.	c #443423",
"Q.	c #454052",
"R.	c #393035",
"S.	c #433428",
"T.	c #513F2F",
"U.	c #4D3D2D",
"V.	c #403326",
"W.	c #443527",
"X.	c #4E3C2C",
"Y.	c #463628",
"Z.	c #3D2F23",
"`.	c #49382A",
" +	c #4D3B2C",
".+	c #433527",
"++	c #453628",
"@+	c #594735",
"#+	c #534131",
"$+	c #403225",
"%+	c #433426",
"&+	c #52402F",
"*+	c #584533",
"=+	c #51402F",
"-+	c #4B3B2C",
";+	c #4F3E2E",
">+	c #534E64",
",+	c #4B4656",
"'+	c #5A5353",
")+	c #6E655D",
"!+	c #7A6F65",
"~+	c #766D63",
"{+	c #6B625A",
"]+	c #695F56",
"^+	c #6E6158",
"/+	c #6A5F57",
"(+	c #665D55",
"_+	c #6B6057",
":+	c #6D6157",
"<+	c #6D645D",
"[+	c #7C7269",
"}+	c #7C7168",
"|+	c #6D645C",
"1+	c #6E6157",
"2+	c #6C6157",
"3+	c #675D55",
"4+	c #645B54",
"5+	c #695E56",
"6+	c #6B6159",
"7+	c #756B61",
"8+	c #796E64",
"9+	c #524D5B",
"0+	c #79716F",
"a+	c #948B84",
"b+	c #9F968E",
"c+	c #9C948C",
"d+	c #918981",
"e+	c #8B827A",
"f+	c #8C837B",
"g+	c #8C827B",
"h+	c #8B827B",
"i+	c #938B84",
"j+	c #A09992",
"k+	c #A09891",
"l+	c #938A83",
"m+	c #90877F",
"n+	c #9A9189",
"o+	c #9D948C",
"p+	c #4F4A59",
"q+	c #6B6463",
"r+	c #817871",
"s+	c #898179",
"t+	c #888079",
"u+	c #7F7770",
"v+	c #7B726A",
"w+	c #7B726B",
"x+	c #7F776F",
"y+	c #888078",
"z+	c #877F78",
"A+	c #7E756E",
"B+	c #857B74",
"C+	c #887E77",
"D+	c #494455",
"E+	c #4C4547",
"F+	c #584D46",
"G+	c #5F544B",
"H+	c #5D534A",
"I+	c #564C45",
"J+	c #554A42",
"K+	c #584C43",
"L+	c #554B42",
"M+	c #534941",
"N+	c #564B42",
"O+	c #574C43",
"P+	c #554B43",
"Q+	c #5B5047",
"R+	c #584E46",
"S+	c #574D44",
"T+	c #564B43",
"U+	c #5B4F46",
"V+	c #5D5148",
"W+	c #574D45",
"X+	c #362E32",
"Y+	c #433425",
"Z+	c #4D3B28",
"`+	c #382A1C",
" @	c #3D2D1F",
".@	c #463424",
"+@	c #403020",
"@@	c #36281B",
"#@	c #3D2E1F",
"$@	c #3F2F20",
"%@	c #34271B",
"&@	c #413121",
"*@	c #463524",
"=@	c #473524",
"-@	c #423222",
";@	c #37291C",
">@	c #3E2E20",
",@	c #38291C",
"'@	c #3D2E21",
")@	c #362D32",
"!@	c #372E33",
"~@	c #4E3D2C",
"{@	c #5A4631",
"]@	c #4D3B29",
"^@	c #3C2D1F",
"/@	c #423122",
"(@	c #4E3B2A",
"_@	c #473626",
":@	c #392B1D",
"<@	c #473525",
"[@	c #433324",
"}@	c #382A1D",
"|@	c #4C3A29",
"1@	c #513E2B",
"2@	c #4F3C2A",
"3@	c #4A3827",
"4@	c #3C2E1F",
"5@	c #493827",
"6@	c #3B2C1F",
"7@	c #4E3B29",
"8@	c #4F3D2C",
"9@	c #54402E",
"0@	c #473625",
"a@	c #433424",
"b@	c #392C1E",
"c@	c #443424",
"d@	c #3A2C1E",
"e@	c #54422E",
"f@	c #56422F",
"g@	c #503D2B",
"h@	c #3E3021",
"i@	c #53412E",
"j@	c #473726",
"k@	c #3B2D1F",
"l@	c #4E3C29",
"m@	c #433325",
"n@	c #614C38",
"o@	c #604C39",
"p@	c #403123",
"q@	c #574430",
"r@	c #523E2C",
"s@	c #3F3021",
"t@	c #5A4632",
"u@	c #483727",
"v@	c #483726",
"w@	c #4F3D2A",
"x@	c #4D3B2A",
"y@	c #403121",
"z@	c #4F3D2B",
"A@	c #5E4A36",
"B@	c #544230",
"C@	c #3D2E20",
"D@	c #392B1E",
"E@	c #443324",
"F@	c #3D2F21",
"G@	c #5E4C37",
"H@	c #64503A",
"I@	c #55422F",
"J@	c #5D4A38",
"K@	c #4E4034",
"L@	c #4A3E32",
"M@	c #574737",
"N@	c #574533",
"O@	c #413223",
"P@	c #52402D",
"Q@	c #5C4733",
"R@	c #4A3828",
"S@	c #3A2B1E",
"T@	c #4E3E2C",
"U@	c #5D4A35",
"V@	c #5D4934",
"W@	c #4D3C2A",
"X@	c #3E2F20",
"Y@	c #584737",
"Z@	c #7F766E",
"`@	c #8E8B89",
" #	c #92908E",
".#	c #8D8985",
"+#	c #716860",
"@#	c #5B4733",
"##	c #423324",
"$#	c #574431",
"%#	c #4A3A29",
"&#	c #51402D",
"*#	c #5B4833",
"=#	c #3E2F1F",
"-#	c #594838",
";#	c #867F7B",
">#	c #9C9C9B",
",#	c #A1A1A1",
"'#	c #989795",
")#	c #766F6A",
"!#	c #433223",
"~#	c #493826",
"{#	c #453524",
"]#	c #67523C",
"^#	c #5E4B36",
"/#	c #4F3E2B",
"(#	c #55483C",
"_#	c #6E6863",
":#	c #787877",
"<#	c #7A7B7B",
"[#	c #757473",
"}#	c #625C57",
"|#	c #45382E",
"1#	c #342C31",
"2#	c #444052",
"3#	c #463726",
"4#	c #614D37",
"5#	c #604C37",
"6#	c #463626",
"7#	c #503E2C",
"8#	c #5A4732",
"9#	c #544335",
"0#	c #514A44",
"a#	c #5A5450",
"b#	c #585452",
"c#	c #525150",
"d#	c #515150",
"e#	c #555251",
"f#	c #595451",
"g#	c #56514D",
"h#	c #4B474A",
"i#	c #484455",
"j#	c #594631",
"k#	c #4C3928",
"l#	c #413122",
"m#	c #55412E",
"n#	c #5D4834",
"o#	c #58442F",
"p#	c #685D55",
"q#	c #868381",
"r#	c #726D69",
"s#	c #534840",
"t#	c #433A32",
"u#	c #443B33",
"v#	c #524439",
"w#	c #7A7673",
"x#	c #817F81",
"y#	c #565261",
"z#	c #584531",
"A#	c #453424",
"B#	c #4B3827",
"C#	c #403021",
"D#	c #58432F",
"E#	c #655A52",
"F#	c #807D7B",
"G#	c #6D655F",
"H#	c #514030",
"I#	c #55412D",
"J#	c #5E4D3E",
"K#	c #736E6A",
"L#	c #7B7A7D",
"M#	c #54515F",
"N#	c #524D64",
"O#	c #4F3E2D",
"P#	c #34271A",
"Q#	c #594431",
"R#	c #54453A",
"S#	c #5F5954",
"T#	c #625A54",
"U#	c #5F5955",
"V#	c #615B56",
"W#	c #685F58",
"X#	c #655C55",
"Y#	c #5D5754",
"Z#	c #545256",
"`#	c #4A4657",
" $	c #4B3A2A",
".$	c #4B3A28",
"+$	c #413222",
"@$	c #52402E",
"#$	c #5C4834",
"$$	c #483829",
"%$	c #3C2E20",
"&$	c #4B3A29",
"*$	c #413730",
"=$	c #5A5551",
"-$	c #6A6765",
";$	c #6D6C6B",
">$	c #6E6D6C",
",$	c #6E6C6B",
"'$	c #686461",
")$	c #524D4A",
"!$	c #3B353A",
"~$	c #454153",
"{$	c #362E33",
"]$	c #513F2D",
"^$	c #5F4B36",
"/$	c #624D39",
"($	c #5F4B38",
"_$	c #443426",
":$	c #3F2F21",
"<$	c #443425",
"[$	c #392C20",
"}$	c #4F453C",
"|$	c #5B5450",
"1$	c #5A5857",
"2$	c #595858",
"3$	c #5A5756",
"4$	c #57504B",
"5$	c #473D35",
"6$	c #352D32",
"7$	c #4A3625",
"8$	c #443222",
"9$	c #3B2C1E",
"0$	c #574330",
"a$	c #5A4633",
"b$	c #3F2F1F",
"c$	c #4B3826",
"d$	c #503D2A",
"e$	c #4E3D2A",
"f$	c #53402D",
"g$	c #36271A",
"h$	c #4C3C2E",
"i$	c #423830",
"j$	c #3D352F",
"k$	c #44392F",
"l$	c #483729",
"m$	c #3E2D1F",
"n$	c #454152",
"o$	c #393135",
"p$	c #4E3D2D",
"q$	c #49392B",
"r$	c #3F3124",
"s$	c #453527",
"t$	c #503D2D",
"u$	c #463729",
"v$	c #3E3024",
"w$	c #4D3C2D",
"x$	c #3F3125",
"y$	c #4D3D2C",
"z$	c #4E3E2E",
"A$	c #3D3124",
"B$	c #513F2E",
"C$	c #453528",
"D$	c #49392A",
"E$	c #433529",
"F$	c #6D635B",
"G$	c #776C63",
"H$	c #746B62",
"I$	c #6B6259",
"J$	c #6F6258",
"K$	c #675D56",
"L$	c #6D6158",
"M$	c #695F57",
"N$	c #6A6058",
"O$	c #766A61",
"P$	c #786E65",
"Q$	c #6B635B",
"R$	c #6B6157",
"S$	c #685E56",
"T$	c #6D6258",
"U$	c #706459",
"V$	c #6F6358",
"W$	c #73685F",
"X$	c #786D64",
"Y$	c #6F665E",
"Z$	c #5B5353",
"`$	c #79726F",
" %	c #928981",
".%	c #9C938B",
"+%	c #9A928A",
"@%	c #918880",
"#%	c #9D958D",
"$%	c #928A82",
"%%	c #8B837B",
"&%	c #8F867E",
"*%	c #988F87",
"=%	c #9D958C",
"-%	c #958D86",
";%	c #807770",
">%	c #877E76",
",%	c #857C75",
"'%	c #867C75",
")%	c #877E77",
"!%	c #7F766F",
"~%	c #7E746D",
"{%	c #857B73",
"]%	c #887E76",
"^%	c #827971",
"/%	c #6C6463",
"(%	c #574C45",
"_%	c #544A43",
":%	c #544A42",
"<%	c #574B43",
"[%	c #5C5147",
"}%	c #5C5047",
"|%	c #3E2D1E",
"1%	c #443323",
"2%	c #37281C",
"3%	c #433222",
"4%	c #37291B",
"5%	c #443223",
"6%	c #402F21",
"7%	c #35281B",
"8%	c #402F20",
"9%	c #352E32",
"0%	c #3F3022",
"a%	c #4A3726",
"b%	c #4B3828",
"c%	c #3A2C1F",
"d%	c #3F2F22",
"      . + + + + + + + + + + + + + + + + + + + + + + + + + + + + + + + + .       ",
"    @ # $ % % % & * = - - - - - - - - - - - - - - - - - - = * & % % % $ # @     ",
"  @ ; > , , ' ' ) ! ~ { { { { { { { { { { { { { { { { { { ~ ! ) ' ' , , > ; @   ",
". # > ] ^ / ( _ : < [ } } } } } } } } } } } } } } } } } } [ < : _ ( / ^ ] > # . ",
"+ $ , ^ | 1 2 3 4 5 6 7 7 7 7 7 7 7 7 7 7 7 7 7 7 7 7 7 7 6 5 4 3 8 1 | ^ , $ + ",
"+ % , | 1 2 9 0 a b c b b b b b b b b b b b b b b b b b b c b a 0 d 2 1 | , % + ",
"+ % e 1 2 f a b g h i i i i i i i i i i i i i i i i i i i i h g b a f 2 1 e % + ",
"j k l 8 d a b c m n o o o o o o o o o o o o o o o o o o o o n m c b a d 8 l k j ",
"p q r s a b c t u v w x y y y z y y y z z y A z y y z z x w v u t c b a s r q p ",
"B 2 C a b g m u v D E F G H I J K L M N O P Q R S T U V W X Y Z u m g b a C 2 B ",
"`  ...b g m u v +.@.#.$.%.&.*.=.-.;.>.,.'.).!.~.{.].^./.(._.:.<.v u m g b .. .` ",
"[.}.|.b 1.2.v 3.4.5.6.7.8.9.0.a.b.c.d.e.f.g.h.i.j.k.].l.m.n.o.p.q.v 2.1.b |.}.[.",
"[.r.|.b s.t.u.v.w.x.y.z.A.B.C.D.E.F.G.H.I.J.K.L.M.N.y.O.P.P.L.a.v.u.t.s.b |.r.[.",
"[.r.|.b s.Q.R.S.T.U.V.W.X.Y.Z.`. +.+++@+#+$+%+&+*+=+$+%+%+$+-+;+S.R.Q.s.b |.r.[.",
"[.r.|.b >+,+'+)+!+~+{+]+^+/+(+_+:+/+<+[+}+|+/+1+2+3+4+5+5+6+7+8+)+'+,+>+b |.r.[.",
"[.r.|.b m 9+0+a+b+c+d+e+f+g+h+f+g+f+i+j+k+l+f+g+f+h+h+h+e+m+n+o+a+0+9+m b |.r.[.",
"[.r.|.b m p+q+r+s+t+u+v+w+w+w+w+w+w+x+y+z+u+w+w+w+w+w+w+v+A+B+C+r+q+p+m b |.r.[.",
"[.r.|.b s.D+E+F+G+H+I+J+K+L+M+N+O+L+P+Q+R+S+K+K+T+M+L+K+J+P+U+V+W+E+D+s.b |.r.[.",
"[.r.|.b s.Q.X+Y+Z+P.`+ @.@+@@@z..@#@@@$@%@&@*@=@-@;@>@*@$@,@z.x.'@)@Q.s.b |.r.[.",
"[.r.|.b s.Q.!@~@{@]@^@/@(@_@:@<@]@[@:@P.}@|@1@2@3@4@5@L.w.6@w.7@[@)@Q.s.b |.r.[.",
"[.r.|.b s.Q.!@8@M.a.^@G.9@8@^@0@(@a@b@c@d@e@f@g@3@h@i@H.j@k@w.l@m@X+Q.s.b |.r.[.",
"[.r.|.b s.Q.!@8@M.a.^@_@n@o@p@<@(@a@b@c@k@q@H.r@3@s@=.t@u@4@v@w@m@X+Q.s.b |.r.[.",
"[.r.|.b s.Q.!@8@M.x@y@z@A@B@C@0@(@a@D@E@F@G@H@M.|@s@I@J@K@L@M@N@m@X+Q.s.b |.r.[.",
"[.r.|.b s.Q.!@8@M.x@O@P@Q@R@d@0@(@[@S@c@D@T@U@V@W@X@Y@Z@`@ #.#+#[@)@Q.s.b |.r.[.",
"[.r.|.b s.Q.!@8@M.x@O@P@@#B.:@0@(@c@##$#%#F@&#*#a.=#-#;#>#,#'#)#!#)@Q.s.b |.r.[.",
"[.r.|.b s.Q.!@8@M.x@O@P@@#~#:@0@(@{#n.]#^#a@/#@#]@4@(#_#:#<#[#}#|#1#2#s.b |.r.[.",
"[.r.|.b s.Q.!@8@M.x@O@P@M.v@:@0@7@c@3#4#5#6#7#8#9#0#a#b#c#d#e#f#g#h#i#s.b |.r.[.",
"[.r.|.b s.Q.!@8@M.x@O@&#j#w.:@<@k#l#X@m#n#6#7#o#p#q#r#s#t#u#v#G+w#x#y#m b |.r.[.",
"[.r.|.b s.Q.!@8@M.x@O@&#z#A#:@*@B#C#d@2@Q@6#7#D#E#F#G#H#z.Y+I#J#K#L#M#N#b |.r.[.",
"[.r.|.b s.Q.!@O#M.W@O@&#z#G.P#$@0@C#S@a.Q@6#7#Q#R#f#S#T#U#V#W#X#Y#Z#`#>+b |.r.[.",
"[.r.|.b s.Q.!@ $q@.$+$@$#$@$$$%$/@s@S@a.Q@6#7#H.&$*$=$-$;$>$,$'$)$!$~$s.b |.r.[.",
"[.r.|.b s.Q.{$Y+2@0@s@]$^$/$($_$:$s@S@(@H.<$7#z#0@[$}$|$1$2$3$4$5${$Q.s.b |.r.[.",
"[.r.|.b s.Q.6$>@7$8$9$v@0$#$a$[@+@b$J.c$d$X@e$f$X@g$=@h$i$j$k$l$m$6$Q.s.b |.r.[.",
"[.r.|.b s.n$o$S.p$q$r$s$t$c.u$W.$$%+v$w$w$x$y$z$A$%+O#B$C$r$D$p$E$o$n$s.b |.r.[.",
"[.r.|.b >+,+'+F$G$H$I$]+J$2+K$_+L$M$N$O$P$Q$R$_+S$T$U$V$]+N$W$X$Y$Z$,+>+b |.r.[.",
"[.r.|.b m 9+`$ %.%+%@%e+f+f+h+f+f+f+m+n+#%$%f+%%f+f+f+f+h+&%*%=%-%0+9+m b |.r.[.",
"[.r.|.b m p+q+;%>%,%A+v+w+w+w+w+w+v+A+'%)%!%w+w+w+w+w+w+v+~%{%]%^%/%p+m b |.r.[.",
"[.r.|.b s.D+E+(%V+U+_%:%<%L+M+N+O+J+P+[%}%P+J+O+N+M+L+O+J+P+U+V+(%E+D+s.b |.r.[.",
"[.r.|.b s.Q.6$6@8$+@@@P#|% @@@z.1%9$2%3%8$4%9$5%6%7%K.D.6.;@8%8$6@6$Q.s.b |.r.[.",
"[.r.|.b s.Q.9%0%a%b%<$c%C@/@k@x@(@:$S@B#2@C@6%3@.@J.!#b%l#9$A#c$d%9%Q.s.b |.r.[."};
