/* XPM */
static char *a4edc1c023e94ffbc422dfe37281da72ymdx5ekVxFdNdxSb[] = {
/* columns rows colors chars-per-pixel */
"16 16 216 2 ",
"   c None",
".  c #2D1A17",
"X  c #2B171A",
"o  c #271F1D",
"O  c #251F1E",
"+  c #301B1A",
"@  c #301B1B",
"#  c #311C1A",
"$  c #351E1A",
"%  c #371F1A",
"&  c #3A1E1B",
"*  c #3D1F1E",
"=  c #36231D",
"-  c #35241F",
";  c #39211A",
":  c #3A211A",
">  c #3B221B",
",  c #3C2018",
"<  c #3F2219",
"1  c #3E211B",
"2  c #3F211E",
"3  c #3B251F",
"4  c #2E2926",
"5  c #2E2A29",
"6  c #2E2A2A",
"7  c #2F2A2A",
"8  c #372021",
"9  c #342521",
"0  c #342622",
"q  c #352324",
"w  c #3D2327",
"e  c #302929",
"r  c #352A29",
"t  c #342E2D",
"y  c #352E2E",
"u  c #352F2E",
"i  c #372F2E",
"p  c #362F2F",
"a  c #3F2E2D",
"s  c #36312F",
"d  c #37312F",
"f  c #3B302E",
"g  c #383030",
"h  c #393130",
"j  c #3A3131",
"k  c #393331",
"l  c #3A3231",
"z  c #3B3331",
"x  c #3A3432",
"c  c #3A3433",
"v  c #3C3432",
"b  c #3E3533",
"n  c #3D3633",
"m  c #3D3434",
"M  c #3F3634",
"N  c #3E3736",
"B  c #3B3834",
"V  c #3F3834",
"C  c #3C3D3B",
"Z  c #3D3D3B",
"A  c #47251A",
"S  c #41211E",
"D  c #47251C",
"F  c #47251D",
"G  c #48261C",
"H  c #48261D",
"J  c #4A271D",
"K  c #4E271D",
"L  c #411C21",
"P  c #471F23",
"I  c #481F23",
"U  c #472120",
"Y  c #482023",
"T  c #4B2122",
"R  c #4A2023",
"E  c #4D2222",
"W  c #4E2222",
"Q  c #422923",
"!  c #422429",
"~  c #47252C",
"^  c #472928",
"/  c #472D2B",
"(  c #512420",
")  c #522521",
"_  c #502720",
"`  c #502422",
"'  c #512522",
"]  c #522522",
"[  c #522622",
"{  c #542721",
"}  c #552721",
"|  c #562921",
" . c #572921",
".. c #582921",
"X. c #592921",
"o. c #582A20",
"O. c #592A21",
"+. c #5B2B20",
"@. c #5B2B21",
"#. c #5C2B20",
"$. c #5C2C20",
"%. c #5C2D20",
"&. c #5D2D20",
"*. c #5E2D20",
"=. c #5C2F21",
"-. c #5F2E20",
";. c #5D2825",
":. c #5E2826",
">. c #562628",
",. c #5F2729",
"<. c #502B2B",
"1. c #512C28",
"2. c #532E29",
"3. c #522E2A",
"4. c #4C352D",
"5. c #58302A",
"6. c #442E31",
"7. c #403634",
"8. c #403835",
"9. c #403935",
"0. c #423936",
"q. c #423837",
"w. c #433937",
"e. c #423A37",
"r. c #443937",
"t. c #433B39",
"y. c #453A38",
"u. c #453B38",
"i. c #463B38",
"p. c #473B38",
"a. c #453C38",
"s. c #473D3A",
"d. c #483C39",
"f. c #493C3A",
"g. c #4C3E3C",
"h. c #5F3A30",
"j. c #553A3C",
"k. c #602F20",
"l. c #612F20",
"z. c #622A26",
"x. c #642B27",
"c. c #682D27",
"v. c #60252B",
"b. c #60262B",
"n. c #62272A",
"m. c #662A2A",
"M. c #6B2C29",
"N. c #6D2D29",
"B. c #6C2E28",
"V. c #6D2E29",
"C. c #6E2F29",
"Z. c #6F2F29",
"A. c #723226",
"S. c #763624",
"D. c #793723",
"F. c #793627",
"G. c #7A3627",
"H. c #7A3727",
"J. c #7D3827",
"K. c #7F3A26",
"L. c #723128",
"P. c #733129",
"I. c #733228",
"U. c #743228",
"Y. c #743328",
"T. c #753328",
"R. c #763428",
"E. c #773428",
"W. c #4E403E",
"Q. c #4F453F",
"!. c #50413E",
"~. c #60463C",
"^. c #3C4441",
"/. c #3D4442",
"(. c #444747",
"). c #414844",
"_. c #424E4B",
"`. c #504640",
"'. c #514640",
"]. c #514740",
"[. c #554441",
"{. c #594D46",
"}. c #5A4D46",
"|. c #574E49",
" X c #5D4F4A",
".X c #57514D",
"XX c #5F514B",
"oX c #445450",
"OX c #4A5652",
"+X c #60544E",
"@X c #655750",
"#X c #615850",
"$X c #6D5E53",
"%X c #6E6157",
"&X c #76665B",
"*X c #536461",
"=X c #586D6A",
"-X c #5E6C6A",
";X c #42706C",
":X c #6D6C69",
">X c #7A6E64",
",X c #64716D",
"<X c #647F7B",
"1X c #813B26",
"2X c #803A27",
"3X c #833C26",
"4X c #857669",
"5X c #89786B",
"6X c #8D7869",
"7X c #8F7A6B",
"8X c #8A7B6E",
"9X c #908071",
"0X c #9D8979",
"qX c #4B8682",
"wX c #608984",
"eX c #628984",
/* pixels */
"  7X9X>X@Xz d.z f.v y.+X#X0X6X  ",
"&X5X Xg.r.5 y e y 5 t v !.+X%X$X",
"8Xt.l O = : J + F : J 3 9 d l 4X",
"|.y.9 K A.l.3X` E.=.P.@.S.o w.l ",
"l i =.@.V.=.G.*.U.@.m.) P.: r d ",
"r.Q D.#.n.| E.=.V.{ v.I M.) 3.W.",
"Z OX~.4.,.{ V.| V.@.B.= / Y 3.m ",
"/.eX=X).:.{ n.P P.@.h.;XqX_.^ y.",
"l 4 & 1 M.{ ,.I G.) j.<X*X-Xw w.",
"y.1.V.@.P.#.V.| K.P >..X:X/ ! y.",
"m f :._ P.*.K.@.A.Y V.S A L ~ w.",
"/.eX,X).x.*.K.@.V.E G.=.3XY <.y.",
"Z oXV 5 x.) P.| P.) K.=.1XE 5.w.",
"l - 1 . 2 + 2 % A % F # S X q y.",
"[.m !.{.V `.`.V {.V ].Q.V {.w.f.",
"l V w.a.d w.w.d a.d w.m v a.d d "
};
