/* XPM */
static char * doors_closed_knight_right_xpm[] = {
"40 40 825 2",
"  	c #40264D",
". 	c #41274E",
"+ 	c #42284F",
"@ 	c #3F254C",
"# 	c #492E57",
"$ 	c #5A3D69",
"% 	c #5B3E6A",
"& 	c #5C416C",
"* 	c #5E446E",
"= 	c #5F466F",
"- 	c #5F456E",
"; 	c #573F65",
"> 	c #636778",
", 	c #65697A",
"' 	c #889597",
") 	c #513A5E",
"! 	c #4A3058",
"~ 	c #583B67",
"{ 	c #5E3F6E",
"] 	c #5F416F",
"^ 	c #665178",
"/ 	c #6F6083",
"( 	c #716586",
"_ 	c #716485",
": 	c #6B5F7E",
"< 	c #7B8095",
"[ 	c #AFB8CD",
"} 	c #B0BACF",
"| 	c #A7AEC7",
"1 	c #BBCBD1",
"2 	c #665C78",
"3 	c #5D3E6E",
"4 	c #563767",
"5 	c #593D6A",
"6 	c #645177",
"7 	c #6A5B7E",
"8 	c #6A5E7E",
"9 	c #69617D",
"0 	c #68617C",
"a 	c #68627C",
"b 	c #2A2B37",
"c 	c #667E9B",
"d 	c #A3A9C4",
"e 	c #848E96",
"f 	c #5C5F70",
"g 	c #646976",
"h 	c #3B4042",
"i 	c #5A3E6B",
"j 	c #635076",
"k 	c #6B607E",
"l 	c #6C6481",
"m 	c #665F7A",
"n 	c #5D5770",
"o 	c #5A546C",
"p 	c #5A546D",
"q 	c #232330",
"r 	c #4F6B88",
"s 	c #354C62",
"t 	c #616576",
"u 	c #808A93",
"v 	c #89959A",
"w 	c #4D4F5E",
"x 	c #59536B",
"y 	c #6A5F7E",
"z 	c #655C78",
"A 	c #5E5770",
"B 	c #5B556D",
"C 	c #58526A",
"D 	c #585269",
"E 	c #575169",
"F 	c #1C1A24",
"G 	c #1A212F",
"H 	c #253545",
"I 	c #99A1BC",
"J 	c #787D90",
"K 	c #8F95AB",
"L 	c #989EB5",
"M 	c #3D394A",
"N 	c #655C77",
"O 	c #604370",
"P 	c #645C76",
"Q 	c #565068",
"R 	c #565067",
"S 	c #707077",
"T 	c #C3C3CA",
"U 	c #4B4747",
"V 	c #1F2737",
"W 	c #657893",
"X 	c #7A7E93",
"Y 	c #4F5260",
"Z 	c #6C7082",
"` 	c #514B61",
" .	c #42294F",
"..	c #5D426C",
"+.	c #69557B",
"@.	c #534D64",
"#.	c #4C475C",
"$.	c #494458",
"%.	c #2D2A37",
"&.	c #A9A1A0",
"*.	c #CAC7CA",
"=.	c #C0BDC1",
"-.	c #8C8C91",
";.	c #2E485F",
">.	c #7487A4",
",.	c #7F8399",
"'.	c #4E505E",
").	c #413C4E",
"!.	c #462F54",
"~.	c #675479",
"{.	c #6B607F",
"].	c #635D77",
"^.	c #534D63",
"/.	c #4A455A",
"(.	c #413C4D",
"_.	c #3A3440",
":.	c #37313A",
"<.	c #211D24",
"[.	c #4A545A",
"}.	c #797373",
"|.	c #D0D1D8",
"1.	c #BFB9BA",
"2.	c #DADAE2",
"3.	c #3E3F42",
"4.	c #647791",
"5.	c #464855",
"6.	c #364045",
"7.	c #342E36",
"8.	c #38313B",
"9.	c #37313B",
"0.	c #5E516F",
"a.	c #645D78",
"b.	c #38313C",
"c.	c #372D2B",
"d.	c #483A2D",
"e.	c #392F26",
"f.	c #4F5C63",
"g.	c #364353",
"h.	c #354455",
"i.	c #8F8F94",
"j.	c #B6B5BA",
"k.	c #100C09",
"l.	c #B6B7BD",
"m.	c #3E4D58",
"n.	c #90A8B3",
"o.	c #453A31",
"p.	c #4C4037",
"q.	c #3E332B",
"r.	c #4B3F35",
"s.	c #54473D",
"t.	c #493D33",
"u.	c #372E2D",
"v.	c #36303C",
"w.	c #403B4D",
"x.	c #736A86",
"y.	c #675F7A",
"z.	c #5B556E",
"A.	c #3B343E",
"B.	c #352A29",
"C.	c #3A2D20",
"D.	c #43382D",
"E.	c #889EAA",
"F.	c #7D92A0",
"G.	c #313C4A",
"H.	c #212835",
"I.	c #2A3648",
"J.	c #9A9AA0",
"K.	c #D9D8DE",
"L.	c #A09C9E",
"M.	c #CDCACF",
"N.	c #000000",
"O.	c #516171",
"P.	c #455259",
"Q.	c #605041",
"R.	c #473A2D",
"S.	c #56483B",
"T.	c #685848",
"U.	c #5A4B3D",
"V.	c #423529",
"W.	c #41352F",
"X.	c #433A40",
"Y.	c #78708C",
"Z.	c #645E77",
"`.	c #554F66",
" +	c #4B455A",
".+	c #3B333D",
"++	c #3E312D",
"@+	c #3E2F21",
"#+	c #2C2015",
"$+	c #94ACB9",
"%+	c #404F61",
"&+	c #425163",
"*+	c #425164",
"=+	c #171821",
"-+	c #0C0911",
";+	c #7F706E",
">+	c #4E4846",
",+	c #66646C",
"'+	c #A5B3B9",
")+	c #30373D",
"!+	c #1F2630",
"~+	c #5F4D3B",
"{+	c #493A2B",
"]+	c #5B4A3A",
"^+	c #544434",
"/+	c #4A3B2A",
"(+	c #544331",
"_+	c #4D3E35",
":+	c #3B343D",
"<+	c #655E78",
"[+	c #534E65",
"}+	c #454053",
"|+	c #39323D",
"1+	c #3B2E2A",
"2+	c #463525",
"3+	c #463423",
"4+	c #5E6E75",
"5+	c #414E56",
"6+	c #181E2D",
"7+	c #888DA4",
"8+	c #2F0E15",
"9+	c #330E15",
"0+	c #9297B0",
"a+	c #C0CEDC",
"b+	c #2F363C",
"c+	c #5B4732",
"d+	c #513F2C",
"e+	c #3B2C1D",
"f+	c #443422",
"g+	c #443423",
"h+	c #523F2C",
"i+	c #4E3C2A",
"j+	c #454052",
"k+	c #393035",
"l+	c #433428",
"m+	c #513F2F",
"n+	c #4D3D2D",
"o+	c #67787F",
"p+	c #586A79",
"q+	c #2D3744",
"r+	c #435264",
"s+	c #354253",
"t+	c #252E3D",
"u+	c #383A45",
"v+	c #9EA3BE",
"w+	c #9298B0",
"x+	c #2D0B11",
"y+	c #1E0C14",
"z+	c #B6C1D5",
"A+	c #23272B",
"B+	c #020101",
"C+	c #584533",
"D+	c #51402F",
"E+	c #403225",
"F+	c #433426",
"G+	c #4B3B2C",
"H+	c #4F3E2E",
"I+	c #534E64",
"J+	c #4B4656",
"K+	c #5A5353",
"L+	c #6E655D",
"M+	c #7A6F65",
"N+	c #766D63",
"O+	c #58676E",
"P+	c #536473",
"Q+	c #161720",
"R+	c #030101",
"S+	c #3D3F4A",
"T+	c #A2A8C3",
"U+	c #979BB3",
"V+	c #794C29",
"W+	c #9DA6AA",
"X+	c #252A2F",
"Y+	c #8DA4B0",
"Z+	c #49413A",
"`+	c #675D55",
" @	c #5B534C",
".@	c #5C524B",
"+@	c #5D534C",
"@@	c #6B6159",
"#@	c #756B61",
"$@	c #796E64",
"%@	c #524D5B",
"&@	c #79716F",
"*@	c #948B84",
"=@	c #9F968E",
"-@	c #6C6661",
";@	c #8FA6B2",
">@	c #1F2732",
",@	c #354150",
"'@	c #1B2030",
")@	c #49627D",
"!@	c #597390",
"~@	c #A0A7C2",
"{@	c #A0A6C1",
"]@	c #514649",
"^@	c #7C4F2C",
"/@	c #48363C",
"(@	c #0C0F17",
"_@	c #242C3E",
":@	c #5F5953",
"<@	c #4B4B4A",
"[@	c #B1C0C5",
"}@	c #C8DADF",
"|@	c #BED0D4",
"1@	c #464745",
"2@	c #999088",
"3@	c #9D948C",
"4@	c #4F4A59",
"5@	c #6B6463",
"6@	c #817871",
"7@	c #898179",
"8@	c #55504B",
"9@	c #1C2533",
"0@	c #313C4D",
"a@	c #1E2530",
"b@	c #625A55",
"c@	c #363C44",
"d@	c #506B87",
"e@	c #537290",
"f@	c #374F65",
"g@	c #53150A",
"h@	c #D78B35",
"i@	c #5D2824",
"j@	c #34141B",
"k@	c #1A232F",
"l@	c #787F95",
"m@	c #5D6071",
"n@	c #B6C2D3",
"o@	c #A3A9C5",
"p@	c #A2A7C3",
"q@	c #A5ACC6",
"r@	c #BCC9D9",
"s@	c #919E9F",
"t@	c #867C75",
"u@	c #494455",
"v@	c #4C4547",
"w@	c #584D46",
"x@	c #5C5148",
"y@	c #90A7B2",
"z@	c #889FAC",
"A@	c #1D242E",
"B@	c #443B33",
"C@	c #554B42",
"D@	c #201E1E",
"E@	c #3D4B5D",
"F@	c #2D1611",
"G@	c #6D322A",
"H@	c #70312D",
"I@	c #D58A35",
"J@	c #72342D",
"K@	c #5F2B24",
"L@	c #433932",
"M@	c #4A6580",
"N@	c #9CA2BB",
"O@	c #3C3F4A",
"P@	c #504E5C",
"Q@	c #969BB4",
"R@	c #B4BFD2",
"S@	c #696E7B",
"T@	c #534A42",
"U@	c #362E32",
"V@	c #433425",
"W@	c #4A3926",
"X@	c #44525F",
"Y@	c #242D3D",
"Z@	c #36271A",
"`@	c #403020",
" #	c #110B07",
".#	c #3D2423",
"+#	c #542F29",
"@#	c #57302A",
"##	c #602D2A",
"$#	c #E09336",
"%#	c #8D502E",
"&#	c #71352C",
"*#	c #5C6365",
"=#	c #6B767B",
"-#	c #2E2B33",
";#	c #39171E",
">#	c #342B33",
",#	c #A0A6C0",
"'#	c #989EB7",
")#	c #302319",
"!#	c #362D32",
"~#	c #372E33",
"{#	c #4E3D2C",
"]#	c #57432F",
"^#	c #344150",
"/#	c #1B2631",
"(#	c #7C8096",
"_#	c #3C2D1F",
":#	c #473626",
"<#	c #140D08",
"[#	c #180D0F",
"}#	c #1E0E12",
"|#	c #33131A",
"1#	c #5F3A23",
"2#	c #633B29",
"3#	c #734929",
"4#	c #220C15",
"5#	c #484A57",
"6#	c #535665",
"7#	c #300F13",
"8#	c #3D546B",
"9#	c #9095AD",
"0#	c #A4AAC6",
"a#	c #72768A",
"b#	c #A5ABC6",
"c#	c #949BB4",
"d#	c #445365",
"e#	c #252E39",
"f#	c #4F3D2C",
"g#	c #2F2317",
"h#	c #B3BDD1",
"i#	c #9FA5BF",
"j#	c #413122",
"k#	c #150D07",
"l#	c #0C0000",
"m#	c #341219",
"n#	c #33141A",
"o#	c #673E29",
"p#	c #744A29",
"q#	c #31111B",
"r#	c #050100",
"s#	c #2C0D13",
"t#	c #476079",
"u#	c #283A4C",
"v#	c #6D6F81",
"w#	c #30141B",
"x#	c #384657",
"y#	c #405062",
"z#	c #CADBE4",
"A#	c #999EB8",
"B#	c #4E3C2C",
"C#	c #5F4B39",
"D#	c #53595A",
"E#	c #9AA9B2",
"F#	c #475263",
"G#	c #492925",
"H#	c #532F29",
"I#	c #743A2D",
"J#	c #52241E",
"K#	c #0E0404",
"L#	c #2B1216",
"M#	c #1E0A0D",
"N#	c #131014",
"O#	c #351B23",
"P#	c #100000",
"Q#	c #3E4C5D",
"R#	c #272D37",
"S#	c #2E2217",
"T#	c #CBDCE5",
"U#	c #3B3B45",
"V#	c #5E4A36",
"W#	c #483829",
"X#	c #4E5869",
"Y#	c #47261F",
"Z#	c #59312B",
"`#	c #70352D",
" $	c #2B0E08",
".$	c #242D39",
"+$	c #180C12",
"@$	c #1F090E",
"#$	c #371218",
"$$	c #414F60",
"%$	c #3F4D5F",
"&$	c #37291D",
"*$	c #3E3F49",
"=$	c #5C4733",
"-$	c #312419",
";$	c #C7D9DE",
">$	c #7D859C",
",$	c #293644",
"'$	c #462622",
")$	c #140100",
"!$	c #8B90A7",
"~$	c #979DB6",
"{$	c #384656",
"]$	c #2D2F3A",
"^$	c #30171E",
"/$	c #28333F",
"($	c #364253",
"_$	c #4C4641",
":$	c #433324",
"<$	c #584430",
"[$	c #220000",
"}$	c #AFBFC3",
"|$	c #160A0E",
"1$	c #2E1C10",
"2$	c #72461D",
"3$	c #A1A7C2",
"4$	c #263340",
"5$	c #293848",
"6$	c #8E98B3",
"7$	c #384555",
"8$	c #323D4C",
"9$	c #3F4E5F",
"0$	c #2C3647",
"a$	c #676665",
"b$	c #766F6A",
"c$	c #433223",
"d$	c #322619",
"e$	c #3E2612",
"f$	c #130000",
"g$	c #2C1419",
"h$	c #774C2A",
"i$	c #030206",
"j$	c #6F787C",
"k$	c #A4AAC5",
"l$	c #25313E",
"m$	c #46586D",
"n$	c #557391",
"o$	c #4C5160",
"p$	c #2B3545",
"q$	c #5B5B5C",
"r$	c #757473",
"s$	c #625C57",
"t$	c #45382E",
"u$	c #342C31",
"v$	c #444052",
"w$	c #2E2318",
"x$	c #210D10",
"y$	c #230E11",
"z$	c #1C0B0D",
"A$	c #261610",
"B$	c #623F21",
"C$	c #3B4B5D",
"D$	c #4D6680",
"E$	c #354B61",
"F$	c #4D5B70",
"G$	c #7B7F93",
"H$	c #181F28",
"I$	c #34414F",
"J$	c #4A6179",
"K$	c #808FAB",
"L$	c #A3A8C4",
"M$	c #435365",
"N$	c #374354",
"O$	c #364254",
"P$	c #1C2233",
"Q$	c #393938",
"R$	c #515150",
"S$	c #555251",
"T$	c #595451",
"U$	c #56514D",
"V$	c #4B474A",
"W$	c #484455",
"X$	c #423324",
"Y$	c #241A10",
"Z$	c #3F3022",
"`$	c #403223",
" %	c #7D512D",
".%	c #483827",
"+%	c #5A6265",
"@%	c #4F5A64",
"#%	c #405266",
"$%	c #3D5166",
"%%	c #26313F",
"&%	c #49617B",
"*%	c #9499B3",
"=%	c #C4D6DB",
"-%	c #232B3D",
";%	c #1E2435",
">%	c #2B2A2E",
",%	c #3A322D",
"'%	c #433A32",
")%	c #524439",
"!%	c #5F544B",
"~%	c #7A7673",
"{%	c #817F81",
"]%	c #565261",
"^%	c #4D3B2A",
"/%	c #413223",
"(%	c #4A3A29",
"_%	c #584531",
":%	c #3B2C1E",
"<%	c #C8DBDF",
"[%	c #CBDEE2",
"}%	c #9398B0",
"|%	c #464A58",
"1%	c #20232B",
"2%	c #53718F",
"3%	c #4F6984",
"4%	c #9499B2",
"5%	c #656E72",
"6%	c #1E1F21",
"7%	c #0B0E17",
"8%	c #706D6C",
"9%	c #6B635D",
"0%	c #514030",
"a%	c #413021",
"b%	c #55412D",
"c%	c #5E4D3E",
"d%	c #736E6A",
"e%	c #7B7A7D",
"f%	c #54515F",
"g%	c #524D64",
"h%	c #4F3E2D",
"i%	c #4D3C2A",
"j%	c #51402D",
"k%	c #3A2C1E",
"l%	c #26323F",
"m%	c #8196A0",
"n%	c #71838B",
"o%	c #3A2B1D",
"p%	c #0D111C",
"q%	c #040000",
"r%	c #0E0705",
"s%	c #787D91",
"t%	c #8990A2",
"u%	c #C3D1DF",
"v%	c #A0AFB1",
"w%	c #94A2A5",
"x%	c #44403C",
"y%	c #534C47",
"z%	c #5F5955",
"A%	c #615B56",
"B%	c #685F58",
"C%	c #655C55",
"D%	c #5D5754",
"E%	c #545256",
"F%	c #4A4657",
"G%	c #4B3A2A",
"H%	c #574430",
"I%	c #4B3A28",
"J%	c #413222",
"K%	c #52402E",
"L%	c #5C4834",
"M%	c #1E242E",
"N%	c #425062",
"O%	c #8EA4AF",
"P%	c #3A2B1E",
"Q%	c #5B4632",
"R%	c #26303D",
"S%	c #1D1D23",
"T%	c #6A6B7C",
"U%	c #C0D1D6",
"V%	c #C9DBE2",
"W%	c #B5C6C9",
"X%	c #646363",
"Y%	c #6E6D6C",
"Z%	c #6E6C6B",
"`%	c #686461",
" &	c #524D4A",
".&	c #3B353A",
"+&	c #454153",
"@&	c #362E33",
"#&	c #4F3C2A",
"$&	c #473625",
"%&	c #3F3021",
"&&	c #513F2D",
"*&	c #5F4B36",
"=&	c #1F252D",
"-&	c #293243",
";&	c #1C130B",
">&	c #4E3B2A",
",&	c #332619",
"'&	c #95969C",
")&	c #444955",
"!&	c #4A3C30",
"~&	c #453424",
"{&	c #34281D",
"]&	c #484750",
"^&	c #626B6D",
"/&	c #545353",
"(&	c #595858",
"_&	c #5A5756",
":&	c #57504B",
"<&	c #473D35",
"[&	c #352D32",
"}&	c #3E2E20",
"|&	c #4A3625",
"1&	c #443222",
"2&	c #483726",
"3&	c #36291C",
"4&	c #8197A2",
"5&	c #8BA1AD",
"6&	c #607079",
"7&	c #3F2F1F",
"8&	c #392A1C",
"9&	c #4B3826",
"0&	c #231B15",
"a&	c #223A52",
"b&	c #9D9EA4",
"c&	c #5F5A58",
"d&	c #3E2F20",
"e&	c #473524",
"f&	c #4C3C2E",
"g&	c #423830",
"h&	c #3D352F",
"i&	c #44392F",
"j&	c #483729",
"k&	c #3E2D1F",
"l&	c #454152",
"m&	c #393135",
"n&	c #4E3D2D",
"o&	c #49392B",
"p&	c #3F3124",
"q&	c #453527",
"r&	c #32251A",
"s&	c #8F95AE",
"t&	c #2B3546",
"u&	c #121520",
"v&	c #3E3024",
"w&	c #4D3C2D",
"x&	c #221C19",
"y&	c #8492AE",
"z&	c #565A6C",
"A&	c #453628",
"B&	c #3D3124",
"C&	c #513F2E",
"D&	c #453528",
"E&	c #49392A",
"F&	c #433529",
"G&	c #6D635B",
"H&	c #776C63",
"I&	c #746B62",
"J&	c #6B6259",
"K&	c #695F56",
"L&	c #483F38",
"M&	c #5F7591",
"N&	c #4B433D",
"O&	c #6D6158",
"P&	c #695F57",
"Q&	c #6A6058",
"R&	c #766A61",
"S&	c #373331",
"T&	c #5F554D",
"U&	c #685E56",
"V&	c #6D6258",
"W&	c #706459",
"X&	c #6F6358",
"Y&	c #73685F",
"Z&	c #786D64",
"`&	c #6F665E",
" *	c #5B5353",
".*	c #79726F",
"+*	c #928981",
"@*	c #9C938B",
"#*	c #9A928A",
"$*	c #918880",
"%*	c #8B827A",
"&*	c #5C5550",
"**	c #637A97",
"=*	c #6A635D",
"-*	c #8C837B",
";*	c #90877F",
">*	c #9A9189",
",*	c #837C76",
"'*	c #344960",
")*	c #6F7E98",
"!*	c #7B746D",
"~*	c #8B827B",
"{*	c #8F867E",
"]*	c #988F87",
"^*	c #9D958C",
"/*	c #958D86",
"(*	c #807770",
"_*	c #877E76",
":*	c #857C75",
"<*	c #7E756E",
"[*	c #7B726A",
"}*	c #504A45",
"|*	c #7C859E",
"1*	c #2B3443",
"2*	c #7B726B",
"3*	c #867D76",
"4*	c #030212",
"5*	c #3B536B",
"6*	c #6E655F",
"7*	c #7E746D",
"8*	c #857B73",
"9*	c #887E76",
"0*	c #827971",
"a*	c #6C6463",
"b*	c #574C45",
"c*	c #5D5148",
"d*	c #5B4F46",
"e*	c #544A43",
"f*	c #544A42",
"g*	c #45413E",
"h*	c #C7DADE",
"i*	c #626C6D",
"j*	c #564B42",
"k*	c #574C43",
"l*	c #554A42",
"m*	c #554B43",
"n*	c #5C5147",
"o*	c #594E45",
"p*	c #93A1A4",
"q*	c #C6D9DD",
"r*	c #687072",
"s*	c #554A41",
"t*	c #534941",
"u*	c #3B2C1F",
"v*	c #36281B",
"w*	c #34271A",
"x*	c #737A7B",
"y*	c #7C8789",
"z*	c #443323",
"A*	c #37281C",
"B*	c #433222",
"C*	c #3C2E23",
"D*	c #646D6F",
"E*	c #22180F",
"F*	c #3E2E1F",
"G*	c #453323",
"H*	c #3C2D1E",
"I*	c #37291C",
"J*	c #402F20",
"K*	c #352E32",
"L*	c #4A3726",
"M*	c #4B3828",
"N*	c #443425",
"O*	c #3A2C1F",
"P*	c #3D2E20",
"Q*	c #423122",
"R*	c #3B2D1F",
"S*	c #3F2F21",
"T*	c #4B3827",
"U*	c #402F21",
"V*	c #4A3827",
"W*	c #463424",
"X*	c #3F2F22",
"      . + + + + + + + + + + + + + + + + + + + + + + + + + + + + + + + + .       ",
"    @ # $ % % % & * = - - - - ; > , ' ) - - - - - - - - - = * & % % % $ # @     ",
"  @ ! ~ { { ] ] ^ / ( _ _ _ : < [ } | 1 2 _ _ _ _ _ _ _ _ ( / ^ ] ] { { ~ ! @   ",
". # ~ 3 4 5 6 7 8 9 0 a a a b c d e f g h a a a a a a a a 0 9 8 7 6 5 4 3 ~ # . ",
"+ $ { 4 i j k l m n o p p p q r s t u v v w x p p p p p p o n m l y j i 4 { $ + ",
"+ % { i j k z A B C D C C E F G H I J K L M C C C C C C C D C B A N k j i { % + ",
"+ % O j k P B C E Q R R R S T U V W X Y Z ` R R R R R R R R Q E C B P k j O % + ",
" ...+.y N B C D @.#.$.$.%.&.*.=.-.;.>.,.'.).$.$.$.$.$.$.$.$.#.@.D C B N y +... .",
"!.~.{.].B C D ^./.(._.:.<.[.}.|.1.2.3.4.5.6.7.8.9.9.8.8.:._.(./.^.D C B ].{.~.!.",
"0.k a.B C E @./.(.b.c.d.e.f.g.h.i.1.j.k.l.m.n.o.p.q.r.s.t.u.v.w./.@.E C B a.k 0.",
"x.y.z.C E @./.(.A.B.C.D.E.F.G.H.I.J.K.L.M.N.O.P.Q.R.S.T.U.V.W.X.(./.@.E C z.y.x.",
"Y.Z.x C `. +(..+++@+#+$+%+&+&+*+=+-+;+>+,+'+)+!+~+{+R.]+^+/+(+_+:+(. +`.C x Z.Y.",
"Y.<+x C [+}+|+1+2+3+4+5+&+&+&+&+6+7+8+9+0+a+b+!+c+d+e+f+g+g+h+i+1+|+}+[+C x <+Y.",
"Y.<+x C [+j+k+l+m+n+o+p+q+r+s+t+u+v+w+x+y+z+A+B+C+D+E+F+F+E+G+H+l+k+j+[+C x <+Y.",
"Y.<+x C I+J+K+L+M+N+O+P+r+Q+R+S+T+d d U+V+W+X+Y+Z+`+ @.@+@@@#@$@L+K+J+I+C x <+Y.",
"Y.<+x C @.%@&@*@=@-@;@>@,@'@)@!@~@~@{@]@^@/@(@_@:@<@[@}@|@1@2@3@*@&@%@@.C x <+Y.",
"Y.<+x C @.4@5@6@7@8@9@0@a@b@c@d@e@f@g@h@i@j@k@l@m@n@o@p@q@r@s@t@6@5@4@@.C x <+Y.",
"Y.<+x C [+u@v@w@x@y@z@A@B@C@D@E@F@G@H@I@J@K@L@M@N@O@P@Q@d d R@S@T@v@u@[+C x <+Y.",
"Y.<+x C [+j+U@V@W@X@&+Y@Z@`@ #.#+#@###$#%#&#*#=#-#;#>#,#d d d '#)#!#j+[+C x <+Y.",
"Y.<+x C [+j+~#{#]#^#/#(#_#:#<#[#}#|#1#2#3#4#5#6#7#8#9#0#a#b#c#d#e#!#j+[+C x <+Y.",
"Y.<+x C [+j+~#f#c+g#h#i#j#f#k#l#m#n#1#o#p#q#r#s#N.t#u#v#w#x#y#&+e#U@j+[+C x <+Y.",
"Y.<+x C [+j+~#f#c+g#z#A#B#C#D#E#F#G#H#I#&#J#K#L#M#N#O#P#Q#&+&+&+R#U@j+[+C x <+Y.",
"Y.<+x C [+j+~#f#c+S#T#U#V#W#}@p@{@X#Y#Z#`# $N.N..$+$@$#$$$&+&+%$&$U@j+[+C x <+Y.",
"Y.<+x C [+j+~#f#c+S#T#*$=$-$;$p@d >$,$'$)$!$~${$]$^$/$^#&+&+($_$:$!#j+[+C x <+Y.",
"Y.<+x C [+j+~#f#<$[$}$|$1$2$;$p@d 3$4$5$6$d Q@7$8$9$&+&+&+0$a$b$c$!#j+[+C x <+Y.",
"Y.<+x C [+j+~#f#d$e$f$g$h$i$j$k$d 3$l$m$n$k${@o$r+&+&+&+p$q$r$s$t$u$v$[+C x <+Y.",
"Y.<+x C [+j+~#w$x$y$z$A$B$C$D$E$F$G$H$I$J$K$L$6#M$N$O$P$Q$R$S$T$U$V$W$[+C x <+Y.",
"Y.<+x C [+j+~#X$Y$Z$`$ %.%_#+%@%#%d@$%%%&%*%=%N.-%;%>%,%'%B@)%!%~%{%]%@.C x <+Y.",
"Y.<+x C [+j+~#f#c+^%/%(%_%:%<%[%}%|%1%2%3%4%5%6%7%8%9%0%a%V@b%c%d%e%f%g%C x <+Y.",
"Y.<+x C [+j+~#h%c+i%/%j%_%k%l%m%n%o%p%q%r%s%t%u%v%w%x%y%z%A%B%C%D%E%F%I+C x <+Y.",
"Y.<+x C [+j+~#G%H%I%J%K%L%M%N%&+O%:%P%i%Q%R%Q#S%T%U%V%W%X%Y%Z%`% &.&+&[+C x <+Y.",
"Y.<+x C [+j+@&V@#&$&%&&&*&=&-&*+;&%&P%>&,&'&)&!&~&{&]&^&/&(&_&:&<&@&j+[+C x <+Y.",
"Y.<+x C [+j+[&}&|&1&:%2&3&4&5&6&,&7&8&9&0&a&b&c&d&Z@e&f&g&h&i&j&k&[&j+[+C x <+Y.",
"Y.<+x C [+l&m&l+n&o&p&q&r&s&t&u&W#F+v&w&x&y&z&A&B&F+h%C&D&p&E&n&F&m&l&[+C x <+Y.",
"Y.<+x C I+J+K+G&H&I&J&K&L&3$M&N&O&P&Q&R&S&K$Q@T&U&V&W&X&K&Q&Y&Z&`& *J+I+C x <+Y.",
"Y.<+x C @.%@.*+*@*#*$*%*&*k$**=*-*-*;*>*,*'*)*!*-*-*-*-*~*{*]*^*/*&@%@@.C x <+Y.",
"Y.<+x C @.4@5@(*_*:*<*[*}*|*1*2*2*[*<*t@3*4*5*6*2*2*2*2*[*7*8*9*0*a*4@@.C x <+Y.",
"Y.<+x C [+u@v@b*c*d*e*f*g*h*i*j*k*l*m*n*o*p*q*r*s*t*C@k*l*m*d*c*b*v@u@[+C x <+Y.",
"Y.<+x C [+j+[&u*1&`@v*w*x*N.y*a%z*:%A*B*C*D*N.N.k#E*F*G*H*I*J*1&u*[&j+[+C x <+Y.",
"Y.<+x C [+j+K*Z$L*M*N*O*P*Q*R*^%>&S*P%T*#&P*U*V*W*8&c$M*j#:%~&9&X*K*j+[+C x <+Y."};
