/* XPM */
static char * doors_closed_knight_left_xpm[] = {
"40 40 838 2",
"  	c #40264D",
". 	c #41274E",
"+ 	c #42284F",
"@ 	c #3F254C",
"# 	c #492E57",
"$ 	c #5A3D69",
"% 	c #5B3E6A",
"& 	c #5C416C",
"* 	c #5E446E",
"= 	c #5F466F",
"- 	c #5F456E",
"; 	c #513A5E",
"> 	c #889597",
", 	c #65697A",
"' 	c #636778",
") 	c #573F65",
"! 	c #4A3058",
"~ 	c #583B67",
"{ 	c #5E3F6E",
"] 	c #5F416F",
"^ 	c #665178",
"/ 	c #6F6083",
"( 	c #716586",
"_ 	c #716485",
": 	c #665C78",
"< 	c #BBCBD1",
"[ 	c #A7AEC7",
"} 	c #B0BACF",
"| 	c #AFB8CD",
"1 	c #7B8095",
"2 	c #6B5F7E",
"3 	c #5D3E6E",
"4 	c #563767",
"5 	c #593D6A",
"6 	c #645177",
"7 	c #6A5B7E",
"8 	c #6A5E7E",
"9 	c #69617D",
"0 	c #68617C",
"a 	c #68627C",
"b 	c #3B4042",
"c 	c #646976",
"d 	c #5C5F70",
"e 	c #848E96",
"f 	c #A3A9C4",
"g 	c #667E9B",
"h 	c #2A2B37",
"i 	c #5A3E6B",
"j 	c #635076",
"k 	c #6B607E",
"l 	c #6C6481",
"m 	c #665F7A",
"n 	c #5D5770",
"o 	c #5A546C",
"p 	c #5A546D",
"q 	c #59536B",
"r 	c #4D4F5E",
"s 	c #89959A",
"t 	c #808A93",
"u 	c #616576",
"v 	c #354C62",
"w 	c #4F6B88",
"x 	c #232330",
"y 	c #6A5F7E",
"z 	c #655C78",
"A 	c #5E5770",
"B 	c #5B556D",
"C 	c #58526A",
"D 	c #585269",
"E 	c #3D394A",
"F 	c #989EB5",
"G 	c #8F95AB",
"H 	c #787D90",
"I 	c #99A1BC",
"J 	c #253545",
"K 	c #1A212F",
"L 	c #1C1A24",
"M 	c #575169",
"N 	c #655C77",
"O 	c #604370",
"P 	c #645C76",
"Q 	c #565068",
"R 	c #565067",
"S 	c #514B61",
"T 	c #6C7082",
"U 	c #4F5260",
"V 	c #7A7E93",
"W 	c #657893",
"X 	c #1F2737",
"Y 	c #4B4747",
"Z 	c #C3C3CA",
"` 	c #707077",
" .	c #42294F",
"..	c #5D426C",
"+.	c #69557B",
"@.	c #534D64",
"#.	c #4C475C",
"$.	c #494458",
"%.	c #413C4E",
"&.	c #4E505E",
"*.	c #7F8399",
"=.	c #7487A4",
"-.	c #2E485F",
";.	c #8C8C91",
">.	c #C0BDC1",
",.	c #CAC7CA",
"'.	c #A9A1A0",
").	c #2D2A37",
"!.	c #462F54",
"~.	c #675479",
"{.	c #6B607F",
"].	c #635D77",
"^.	c #534D63",
"/.	c #4A455A",
"(.	c #413C4D",
"_.	c #3A3440",
":.	c #37313A",
"<.	c #37313B",
"[.	c #38313B",
"}.	c #332E37",
"|.	c #364045",
"1.	c #464855",
"2.	c #647791",
"3.	c #3E3F42",
"4.	c #DADAE2",
"5.	c #BFB9BA",
"6.	c #D0D1D8",
"7.	c #797373",
"8.	c #4A545A",
"9.	c #221D24",
"0.	c #5E516F",
"a.	c #645D78",
"b.	c #38313C",
"c.	c #372D2B",
"d.	c #483A2D",
"e.	c #564636",
"f.	c #4F4031",
"g.	c #3A2F24",
"h.	c #46382B",
"i.	c #4B3C2D",
"j.	c #91A8B3",
"k.	c #3E4D58",
"l.	c #B6B7BD",
"m.	c #100C09",
"n.	c #B6B5BA",
"o.	c #8F8F94",
"p.	c #354455",
"q.	c #364353",
"r.	c #4F5C63",
"s.	c #372F2A",
"t.	c #493D33",
"u.	c #372E2D",
"v.	c #36303C",
"w.	c #403B4D",
"x.	c #736A86",
"y.	c #675F7A",
"z.	c #5B556E",
"A.	c #3B343E",
"B.	c #352A29",
"C.	c #3A2D20",
"D.	c #574532",
"E.	c #6C5740",
"F.	c #624F3B",
"G.	c #433524",
"H.	c #54422F",
"I.	c #455259",
"J.	c #516171",
"K.	c #000000",
"L.	c #CDCACF",
"M.	c #A09C9E",
"N.	c #D9D8DE",
"O.	c #9A9AA0",
"P.	c #2A3648",
"Q.	c #212835",
"R.	c #313C4A",
"S.	c #7D92A0",
"T.	c #889EAA",
"U.	c #453C34",
"V.	c #423529",
"W.	c #41352F",
"X.	c #433A40",
"Y.	c #78708C",
"Z.	c #645E77",
"`.	c #554F66",
" +	c #4B455A",
".+	c #3B333D",
"++	c #3E312D",
"@+	c #3E2F21",
"#+	c #3C2D1E",
"$+	c #4E3D2B",
"%+	c #624D38",
"&+	c #5B4735",
"*+	c #403222",
"=+	c #4E3C2A",
"-+	c #1F2630",
";+	c #30373D",
">+	c #A5B3B9",
",+	c #66646C",
"'+	c #4E4846",
")+	c #7F706E",
"!+	c #0C0911",
"~+	c #171821",
"{+	c #425164",
"]+	c #425163",
"^+	c #404F61",
"/+	c #94ACB9",
"(+	c #372C1E",
"_+	c #544331",
":+	c #4D3E35",
"<+	c #3B343D",
"[+	c #655E78",
"}+	c #534E65",
"|+	c #454053",
"1+	c #39323D",
"2+	c #3B2E2A",
"3+	c #463525",
"4+	c #463423",
"5+	c #3B2C1D",
"6+	c #413021",
"7+	c #4F3B29",
"8+	c #493726",
"9+	c #392B1C",
"0+	c #453323",
"a+	c #2F363C",
"b+	c #C0CEDC",
"c+	c #9297B0",
"d+	c #330E15",
"e+	c #2F0E15",
"f+	c #888DA4",
"g+	c #181E2D",
"h+	c #414E56",
"i+	c #5E6E75",
"j+	c #523F2C",
"k+	c #454052",
"l+	c #393035",
"m+	c #433428",
"n+	c #513F2F",
"o+	c #4D3D2D",
"p+	c #403326",
"q+	c #443527",
"r+	c #4E3C2C",
"s+	c #463628",
"t+	c #3D2F23",
"u+	c #49382A",
"v+	c #020101",
"w+	c #23272B",
"x+	c #B6C1D5",
"y+	c #1E0C14",
"z+	c #2D0B11",
"A+	c #9298B0",
"B+	c #9EA3BE",
"C+	c #383A45",
"D+	c #252E3D",
"E+	c #354253",
"F+	c #435264",
"G+	c #2D3744",
"H+	c #586A79",
"I+	c #67787F",
"J+	c #4B3B2C",
"K+	c #4F3E2E",
"L+	c #534E64",
"M+	c #4B4656",
"N+	c #5A5353",
"O+	c #6E655D",
"P+	c #7A6F65",
"Q+	c #766D63",
"R+	c #6B625A",
"S+	c #5D544C",
"T+	c #60554D",
"U+	c #60564F",
"V+	c #665D55",
"W+	c #48403A",
"X+	c #8DA4B0",
"Y+	c #252A2F",
"Z+	c #9DA6AA",
"`+	c #794C29",
" @	c #979BB3",
".@	c #A2A8C3",
"+@	c #3D3F4A",
"@@	c #030101",
"#@	c #161720",
"$@	c #536473",
"%@	c #58676E",
"&@	c #756B61",
"*@	c #796E64",
"=@	c #524D5B",
"-@	c #79716F",
";@	c #948B84",
">@	c #9F968E",
",@	c #9B938B",
"'@	c #474746",
")@	c #BED0D4",
"!@	c #C8DADF",
"~@	c #B1C0C5",
"{@	c #4B4B4A",
"]@	c #5F5953",
"^@	c #242C3E",
"/@	c #0C0F17",
"(@	c #48363C",
"_@	c #7C4F2C",
":@	c #514649",
"<@	c #A0A6C1",
"[@	c #A0A7C2",
"}@	c #597390",
"|@	c #49627D",
"1@	c #1B2030",
"2@	c #354150",
"3@	c #1F2732",
"4@	c #8FA6B2",
"5@	c #6B645E",
"6@	c #9D948C",
"7@	c #4F4A59",
"8@	c #6B6463",
"9@	c #817871",
"0@	c #877F77",
"a@	c #929EA0",
"b@	c #BCC9D9",
"c@	c #A5ACC6",
"d@	c #A2A7C3",
"e@	c #A3A9C5",
"f@	c #B6C2D3",
"g@	c #5D6071",
"h@	c #787F95",
"i@	c #1A232F",
"j@	c #34141B",
"k@	c #5D2824",
"l@	c #D78B35",
"m@	c #53150A",
"n@	c #374F65",
"o@	c #537290",
"p@	c #506B87",
"q@	c #363C44",
"r@	c #625A55",
"s@	c #1E2530",
"t@	c #313C4D",
"u@	c #1C2533",
"v@	c #534D48",
"w@	c #887E77",
"x@	c #494455",
"y@	c #4C4547",
"z@	c #544A43",
"A@	c #696E7B",
"B@	c #B4BFD2",
"C@	c #969BB4",
"D@	c #504E5C",
"E@	c #3C3F4A",
"F@	c #9CA2BB",
"G@	c #4A6580",
"H@	c #403931",
"I@	c #5F2B24",
"J@	c #72342D",
"K@	c #D58A35",
"L@	c #70312D",
"M@	c #6D322A",
"N@	c #2D1611",
"O@	c #3D4B5D",
"P@	c #201E1E",
"Q@	c #554B42",
"R@	c #443B33",
"S@	c #1D242E",
"T@	c #889FAC",
"U@	c #90A7B2",
"V@	c #5A4E45",
"W@	c #574D45",
"X@	c #362E32",
"Y@	c #35281C",
"Z@	c #989EB7",
"`@	c #A0A6C0",
" #	c #342B33",
".#	c #39171E",
"+#	c #2E2B33",
"@#	c #6B767B",
"##	c #5C6365",
"$#	c #71352C",
"%#	c #8D502E",
"&#	c #E09336",
"*#	c #602D2A",
"=#	c #57302A",
"-#	c #542F29",
";#	c #3D2423",
">#	c #110B07",
",#	c #3E2E20",
"'#	c #36281A",
")#	c #242D3D",
"!#	c #44525F",
"~#	c #433221",
"{#	c #3D2E21",
"]#	c #362D32",
"^#	c #372E33",
"/#	c #252E39",
"(#	c #445365",
"_#	c #949BB4",
":#	c #A5ABC6",
"<#	c #72768A",
"[#	c #A4AAC6",
"}#	c #9095AD",
"|#	c #3D546B",
"1#	c #300F13",
"2#	c #535665",
"3#	c #484A57",
"4#	c #220C15",
"5#	c #734929",
"6#	c #633B29",
"7#	c #5F3A23",
"8#	c #33131A",
"9#	c #1E0E12",
"0#	c #180D0F",
"a#	c #150F09",
"b#	c #493827",
"c#	c #3F3021",
"d#	c #7C8096",
"e#	c #1B2631",
"f#	c #344150",
"g#	c #4B3927",
"h#	c #433324",
"i#	c #405062",
"j#	c #384657",
"k#	c #30141B",
"l#	c #6D6F81",
"m#	c #283A4C",
"n#	c #476079",
"o#	c #2C0D13",
"p#	c #050100",
"q#	c #31111B",
"r#	c #744A29",
"s#	c #673E29",
"t#	c #33141A",
"u#	c #341219",
"v#	c #0C0000",
"w#	c #160E08",
"x#	c #53412E",
"y#	c #453525",
"z#	c #9FA5BF",
"A#	c #B3BDD1",
"B#	c #2A1E14",
"C#	c #4E3C29",
"D#	c #433325",
"E#	c #282E37",
"F#	c #3E4C5D",
"G#	c #100000",
"H#	c #351B23",
"I#	c #131014",
"J#	c #1E0A0D",
"K#	c #2B1216",
"L#	c #0E0404",
"M#	c #52241E",
"N#	c #743A2D",
"O#	c #532F29",
"P#	c #492925",
"Q#	c #475263",
"R#	c #9AA9B2",
"S#	c #53595A",
"T#	c #53412F",
"U#	c #483827",
"V#	c #999EB8",
"W#	c #CADBE4",
"X#	c #2B2014",
"Y#	c #4F3D2A",
"Z#	c #413223",
"`#	c #3F4D5F",
" $	c #414F60",
".$	c #371218",
"+$	c #1F090E",
"@$	c #180C12",
"#$	c #242D39",
"$$	c #2B0E08",
"%$	c #70352D",
"&$	c #59312B",
"*$	c #47261F",
"=$	c #4E5869",
"-$	c #493828",
";$	c #5D4A38",
">$	c #3A3B45",
",$	c #CBDCE5",
"'$	c #352A20",
")$	c #574533",
"!$	c #4F3D2C",
"~$	c #3D3024",
"{$	c #364253",
"]$	c #28333F",
"^$	c #30171E",
"/$	c #2D2F3A",
"($	c #384656",
"_$	c #979DB6",
":$	c #8B90A7",
"<$	c #140100",
"[$	c #462622",
"}$	c #293644",
"|$	c #7D859C",
"1$	c #C7D9DE",
"2$	c #3B2F23",
"3$	c #7F766E",
"4$	c #44464F",
"5$	c #595653",
"6$	c #716860",
"7$	c #5B4732",
"8$	c #32261B",
"9$	c #2C3647",
"0$	c #3F4E5F",
"a$	c #323D4C",
"b$	c #384555",
"c$	c #8E98B3",
"d$	c #293848",
"e$	c #263340",
"f$	c #A1A7C2",
"g$	c #72461D",
"h$	c #34261F",
"i$	c #170D11",
"j$	c #AFBFC3",
"k$	c #220000",
"l$	c #726B66",
"m$	c #433223",
"n$	c #4D3B2A",
"o$	c #2F241B",
"p$	c #2B3545",
"q$	c #4C5160",
"r$	c #A4AAC5",
"s$	c #557391",
"t$	c #46586D",
"u$	c #25313E",
"v$	c #6F787C",
"w$	c #030206",
"x$	c #774C2A",
"y$	c #2C1419",
"z$	c #130000",
"A$	c #3E2612",
"B$	c #36322F",
"C$	c #45382E",
"D$	c #342C31",
"E$	c #444052",
"F$	c #392C1E",
"G$	c #1C2233",
"H$	c #364254",
"I$	c #374354",
"J$	c #435365",
"K$	c #A3A8C4",
"L$	c #808FAB",
"M$	c #4A6179",
"N$	c #34414F",
"O$	c #181F28",
"P$	c #7B7F93",
"Q$	c #4D5B70",
"R$	c #354B61",
"S$	c #4D6680",
"T$	c #3B4B5D",
"U$	c #623F21",
"V$	c #261610",
"W$	c #1C0B0D",
"X$	c #230E11",
"Y$	c #210D10",
"Z$	c #332F2D",
"`$	c #4B474A",
" %	c #484455",
".%	c #51402D",
"+%	c #3F3122",
"@%	c #1C181D",
"#%	c #1E2435",
"$%	c #232B3D",
"%%	c #C4D6DB",
"&%	c #9499B3",
"*%	c #49617B",
"=%	c #26313F",
"-%	c #3D5166",
";%	c #405266",
">%	c #4F5A64",
",%	c #5A6265",
"'%	c #625D5A",
")%	c #433A33",
"!%	c #7C512E",
"~%	c #433B33",
"{%	c #44382E",
"]%	c #26201C",
"^%	c #686462",
"/%	c #817F81",
"(%	c #565261",
"_%	c #584531",
":%	c #433323",
"<%	c #312518",
"[%	c #0B0E17",
"}%	c #1E1F21",
"|%	c #656E72",
"1%	c #9499B2",
"2%	c #4F6984",
"3%	c #53718F",
"4%	c #20232B",
"5%	c #464A58",
"6%	c #9398B0",
"7%	c #CBDEE2",
"8%	c #C8DBDF",
"9%	c #5F5852",
"0%	c #514030",
"a%	c #3B2B1E",
"b%	c #433425",
"c%	c #55412D",
"d%	c #5E4D3E",
"e%	c #736E6A",
"f%	c #7B7A7D",
"g%	c #54515F",
"h%	c #524D64",
"i%	c #4F3E2D",
"j%	c #4D3C2A",
"k%	c #4A3A29",
"l%	c #2F2317",
"m%	c #94A1A4",
"n%	c #A0AFB1",
"o%	c #C3D1DF",
"p%	c #8990A2",
"q%	c #787D91",
"r%	c #0E0705",
"s%	c #040000",
"t%	c #0D111C",
"u%	c #71838B",
"v%	c #8196A0",
"w%	c #26323F",
"x%	c #534E49",
"y%	c #625A54",
"z%	c #5F5955",
"A%	c #615B56",
"B%	c #685F58",
"C%	c #655C55",
"D%	c #5D5754",
"E%	c #545256",
"F%	c #4A4657",
"G%	c #4B3A2A",
"H%	c #574430",
"I%	c #4B3A28",
"J%	c #413222",
"K%	c #4D3F33",
"L%	c #B5C6C9",
"M%	c #C9DBE2",
"N%	c #C0D1D6",
"O%	c #696B7C",
"P%	c #1D1D23",
"Q%	c #26303D",
"R%	c #4D3B29",
"S%	c #5B4633",
"T%	c #453626",
"U%	c #4B3A29",
"V%	c #8EA4AF",
"W%	c #425062",
"X%	c #1F252F",
"Y%	c #6A6765",
"Z%	c #6D6C6B",
"`%	c #6E6D6C",
" &	c #6E6C6B",
".&	c #686461",
"+&	c #524D4A",
"@&	c #3B353A",
"#&	c #454153",
"$&	c #362E33",
"%&	c #4F3C2A",
"&&	c #473625",
"*&	c #4D3E31",
"=&	c #626B6C",
"-&	c #4E494F",
";&	c #423225",
">&	c #372D26",
",&	c #444955",
"'&	c #95969C",
")&	c #2C2015",
"!&	c #594531",
"~&	c #443425",
"{&	c #503E2C",
"]&	c #291F14",
"^&	c #293243",
"/&	c #1F252D",
"(&	c #5B5450",
"_&	c #5A5857",
":&	c #595858",
"<&	c #5A5756",
"[&	c #57504B",
"}&	c #473D35",
"|&	c #352D32",
"1&	c #4A3625",
"2&	c #443222",
"3&	c #3B2C1E",
"4&	c #483726",
"5&	c #574330",
"6&	c #5C4834",
"7&	c #5A4633",
"8&	c #595656",
"9&	c #9D9EA4",
"0&	c #223A52",
"a&	c #201914",
"b&	c #503D2A",
"c&	c #3E2F20",
"d&	c #4E3D2A",
"e&	c #607079",
"f&	c #8BA1AD",
"g&	c #8197A2",
"h&	c #423830",
"i&	c #3D352F",
"j&	c #44392F",
"k&	c #483729",
"l&	c #3E2D1F",
"m&	c #454152",
"n&	c #393135",
"o&	c #4E3D2D",
"p&	c #49392B",
"q&	c #3F3124",
"r&	c #453527",
"s&	c #503D2D",
"t&	c #4D3C2C",
"u&	c #463729",
"v&	c #3F3123",
"w&	c #565A6C",
"x&	c #8492AE",
"y&	c #221C19",
"z&	c #4D3C2D",
"A&	c #3F3125",
"B&	c #4D3D2C",
"C&	c #4E3E2E",
"D&	c #121520",
"E&	c #2B3546",
"F&	c #8F95AE",
"G&	c #33271B",
"H&	c #453528",
"I&	c #49392A",
"J&	c #433529",
"K&	c #6D635B",
"L&	c #776C63",
"M&	c #746B62",
"N&	c #6B6259",
"O&	c #695F56",
"P&	c #6F6258",
"Q&	c #6C6157",
"R&	c #675D56",
"S&	c #6B6057",
"T&	c #60564E",
"U&	c #36312F",
"V&	c #786E65",
"W&	c #6B635B",
"X&	c #6B6157",
"Y&	c #49423C",
"Z&	c #5F7591",
"`&	c #483F38",
" *	c #6A6058",
".*	c #73685F",
"+*	c #786D64",
"@*	c #6F665E",
"#*	c #5B5353",
"$*	c #79726F",
"%*	c #928981",
"&*	c #9C938B",
"**	c #9A928A",
"=*	c #918880",
"-*	c #8B827A",
";*	c #8C837B",
">*	c #8B827B",
",*	c #7C746D",
"'*	c #6F7E98",
")*	c #344960",
"!*	c #807972",
"~*	c #9D958D",
"{*	c #928A82",
"]*	c #8B837B",
"^*	c #6A635D",
"/*	c #637A97",
"(*	c #5C5550",
"_*	c #8F867E",
":*	c #988F87",
"<*	c #9D958C",
"[*	c #958D86",
"}*	c #807770",
"|*	c #877E76",
"1*	c #857C75",
"2*	c #7E756E",
"3*	c #7B726A",
"4*	c #7B726B",
"5*	c #6E655F",
"6*	c #3B536B",
"7*	c #030212",
"8*	c #857B74",
"9*	c #877E77",
"0*	c #7F766F",
"a*	c #2B3443",
"b*	c #7C859E",
"c*	c #504A45",
"d*	c #7E746D",
"e*	c #857B73",
"f*	c #887E76",
"g*	c #827971",
"h*	c #6C6463",
"i*	c #574C45",
"j*	c #5D5148",
"k*	c #5B4F46",
"l*	c #544A42",
"m*	c #574B43",
"n*	c #534941",
"o*	c #554A41",
"p*	c #687072",
"q*	c #C6D9DD",
"r*	c #93A1A4",
"s*	c #594F45",
"t*	c #5C5047",
"u*	c #554B43",
"v*	c #554A42",
"w*	c #574C43",
"x*	c #564B42",
"y*	c #626C6D",
"z*	c #C7DADE",
"A*	c #45413E",
"B*	c #3B2C1F",
"C*	c #403020",
"D*	c #36281B",
"E*	c #34271A",
"F*	c #3E2D1E",
"G*	c #3D2D1F",
"H*	c #22180F",
"I*	c #160E07",
"J*	c #646D6F",
"K*	c #3B2E23",
"L*	c #37291B",
"M*	c #443223",
"N*	c #402F21",
"O*	c #7C8789",
"P*	c #747B7B",
"Q*	c #37291C",
"R*	c #402F20",
"S*	c #352E32",
"T*	c #3F3022",
"U*	c #4A3726",
"V*	c #4B3828",
"W*	c #3A2C1F",
"X*	c #3D2E20",
"Y*	c #423122",
"Z*	c #3B2D1F",
"`*	c #4E3B2A",
" =	c #3F2F21",
".=	c #3A2B1E",
"+=	c #4B3827",
"@=	c #4A3827",
"#=	c #463424",
"$=	c #392A1C",
"%=	c #413122",
"&=	c #453424",
"*=	c #4B3826",
"==	c #3F2F22",
"      . + + + + + + + + + + + + + + + + + + + + + + + + + + + + + + + + .       ",
"    @ # $ % % % & * = - - - - - - - - - ; > , ' ) - - - - = * & % % % $ # @     ",
"  @ ! ~ { { ] ] ^ / ( _ _ _ _ _ _ _ _ : < [ } | 1 2 _ _ _ ( / ^ ] ] { { ~ ! @   ",
". # ~ 3 4 5 6 7 8 9 0 a a a a a a a a b c d e f g h a a a 0 9 8 7 6 5 4 3 ~ # . ",
"+ $ { 4 i j k l m n o p p p p p p q r s s t u v w x p p p o n m l y j i 4 { $ + ",
"+ % { i j k z A B C D C C C C C C C E F G H I J K L M C C D C B A N k j i { % + ",
"+ % O j k P B C M Q R R R R R R R R S T U V W X Y Z ` R R R Q M C B P k j O % + ",
" ...+.y N B C D @.#.$.$.$.$.$.$.$.$.%.&.*.=.-.;.>.,.'.).$.$.#.@.D C B N y +... .",
"!.~.{.].B C D ^./.(._.:.<.<.<.[.<.}.|.1.2.3.4.5.6.7.8.9.:._.(./.^.D C B ].{.~.!.",
"0.k a.B C M @./.(.b.c.d.e.f.g.h.i.j.k.l.m.n.5.o.p.q.r.s.t.u.v.w./.@.M C B a.k 0.",
"x.y.z.C M @./.(.A.B.C.D.E.F.G.H.I.J.K.L.M.N.O.P.Q.R.S.T.U.V.W.X.(./.@.M C z.y.x.",
"Y.Z.q C `. +(..+++@+#+$+%+&+*+=+-+;+>+,+'+)+!+~+{+]+]+^+/+(+_+:+<+(. +`.C q Z.Y.",
"Y.[+q C }+|+1+2+3+4+5+6+7+8+9+0+-+a+b+c+d+e+f+g+]+]+]+]+h+i+j+=+2+1+|+}+C q [+Y.",
"Y.[+q C }+k+l+m+n+o+p+q+r+s+t+u+v+w+x+y+z+A+B+C+D+E+F+G+H+I+J+K+m+l+k+}+C q [+Y.",
"Y.[+q C L+M+N+O+P+Q+R+S+T+U+V+W+X+Y+Z+`+ @f f .@+@@@#@F+$@%@&@*@O+N+M+L+C q [+Y.",
"Y.[+q C @.=@-@;@>@,@'@)@!@~@{@]@^@/@(@_@:@<@[@[@}@|@1@2@3@4@5@6@;@-@=@@.C q [+Y.",
"Y.[+q C @.7@8@9@0@a@b@c@d@e@f@g@h@i@j@k@l@m@n@o@p@q@r@s@t@u@v@w@9@8@7@@.C q [+Y.",
"Y.[+q C }+x@y@z@A@B@f f C@D@E@F@G@H@I@J@K@L@M@N@O@P@Q@R@S@T@U@V@W@y@x@}+C q [+Y.",
"Y.[+q C }+k+X@Y@Z@f f f `@ #.#+#@###$#%#&#*#=#-#;#>#,#'#)#]+!#~#{#]#k+}+C q [+Y.",
"Y.[+q C }+k+^#/#(#_#:#<#[#}#|#1#2#3#4#5#6#7#8#9#0#a#b#c#d#e#f#g#h#]#k+}+C q [+Y.",
"Y.[+q C }+k+^#/#]+i#j#k#l#m#n#K.o#p#q#r#s#7#t#u#v#w#x#y#z#A#B#C#D#X@k+}+C q [+Y.",
"Y.[+q C }+k+^#E#]+]+]+F#G#H#I#J#K#L#M#$#N#O#P#Q#R#S#T#U#V#W#X#Y#D#X@k+}+C q [+Y.",
"Y.[+q C }+k+^#Z#`#]+]+ $.$+$@$#$K.K.$$%$&$*$=$<@d@!@-$;$>$,$'$)$D#X@k+}+C q [+Y.",
"Y.[+q C }+k+^#!$~${$]+]+f#]$^$/$($_$:$<$[$}$|$f d@1$2$3$4$,$5$6$h#]#k+}+C q [+Y.",
"Y.[+q C }+k+^#!$7$8$9$]+]+]+0$a$b$C@f c$d$e$f$f d@1$g$h$i$j$k$l$m$]#k+}+C q [+Y.",
"Y.[+q C }+k+^#!$7$n$o$p$]+]+]+F+q$<@r$s$t$u$f$f r$v$w$x$y$z$A$B$C$D$E$}+C q [+Y.",
"Y.[+q C }+k+^#!$7$n$Z#F$G$H$I$J$2#K$L$M$N$O$P$Q$R$S$T$U$V$W$X$Y$Z$`$ %}+C q [+Y.",
"Y.[+q C }+k+^#!$7$n$Z#.%+%@%#%$%K.%%&%*%=%-%p@;%>%,%'%)%!%~%{%]%^%/%(%@.C q [+Y.",
"Y.[+q C }+k+^#!$7$n$Z#.%_%:%<%[%}%|%1%2%3%4%5%6%7%8%9%0%a%b%c%d%e%f%g%h%C q [+Y.",
"Y.[+q C }+k+^#i%7$j%Z#.%k%l%m%n%o%p%q%r%s%t%b#u%v%w%x%y%z%A%B%C%D%E%F%L+C q [+Y.",
"Y.[+q C }+k+^#G%H%I%J%K%L%M%N%O%P%F#Q%R%S%T%U%V%]+W%X%Y%Z%`% &.&+&@&#&}+C q [+Y.",
"Y.[+q C }+k+$&b%%&&&c#*&=&-&)$;&>&,&'&)&!&~&{&]&{+^&/&(&_&:&<&[&}&$&k+}+C q [+Y.",
"Y.[+q C }+k+|&,#1&2&3&4&5&6&7&h#8&9&0&a&b&c&d&:%e&f&g&o$h&i&j&k&l&|&k+}+C q [+Y.",
"Y.[+q C }+m&n&m+o&p&q&r&s&t&u&q+v&w&x&y&z&A&B&C&D&E&F&G&H&q&I&o&J&n&m&}+C q [+Y.",
"Y.[+q C L+M+N+K&L&M&N&O&P&Q&R&S&T&C@L$U&V&W&X&S&Y&Z&f$`&O& *.*+*@*#*M+L+C q [+Y.",
"Y.[+q C @.=@$*%*&***=*-*;*;*>*;*,*'*)*!*~*{*;*]*^*/*r$(*>*_*:*<*[*-@=@@.C q [+Y.",
"Y.[+q C @.7@8@}*|*1*2*3*4*4*4*4*5*6*7*8*9*0*4*4*4*a*b*c*3*d*e*f*g*h*7@@.C q [+Y.",
"Y.[+q C }+x@y@i*j*k*z@l*m*Q@n*o*p*q*r*s*t*u*v*w*x*y*z*A*v*u*k*j*i*y@x@}+C q [+Y.",
"Y.[+q C }+k+|&B*2&C*D*E*F*G*H*I*K.K.J*K*2&L*3&M*N*O*K.P*#+Q*R*2&B*|&k+}+C q [+Y.",
"Y.[+q C }+k+S*T*U*V*~&W*X*Y*Z*n$`* =.=+=%&X*N*@=#=$=m$V*%=3&&=*===S*k+}+C q [+Y."};
