/* XPM */
static char * doors_open_xpm[] = {
"40 40 95 2",
"  	c #40264D",
". 	c #41274E",
"+ 	c #42284F",
"@ 	c #452D52",
"# 	c #493357",
"$ 	c #4A3558",
"% 	c #3F254C",
"& 	c #492E57",
"* 	c #5A3D69",
"= 	c #5B3E6A",
"- 	c #5C406B",
"; 	c #5D416C",
"> 	c #645075",
", 	c #6D6081",
"' 	c #706484",
") 	c #6F6484",
"! 	c #4A3058",
"~ 	c #583B67",
"{ 	c #5E3F6E",
"] 	c #604370",
"^ 	c #69557B",
"/ 	c #6D5D80",
"( 	c #6C5F80",
"_ 	c #6A617E",
": 	c #6A627E",
"< 	c #5D3E6E",
"[ 	c #593E6B",
"} 	c #635076",
"| 	c #6B617F",
"1 	c #6D6582",
"2 	c #67607A",
"3 	c #5D566F",
"4 	c #5A536C",
"5 	c #5A546C",
"6 	c #624E75",
"7 	c #6C6181",
"8 	c #645C77",
"9 	c #5D576F",
"0 	c #5A546D",
"a 	c #58526A",
"b 	c #645C76",
"c 	c #635C76",
"d 	c #575169",
"e 	c #565068",
"f 	c #5C416C",
"g 	c #68557B",
"h 	c #6A607F",
"i 	c #534D63",
"j 	c #4B465B",
"k 	c #494458",
"l 	c #462F54",
"m 	c #675579",
"n 	c #6B607F",
"o 	c #645D77",
"p 	c #5B556D",
"q 	c #524D64",
"r 	c #4A465A",
"s 	c #3F3B4D",
"t 	c #322F3E",
"u 	c #2D2A37",
"v 	c #5E506F",
"w 	c #6B607E",
"x 	c #645D78",
"y 	c #5B546D",
"z 	c #585269",
"A 	c #534D64",
"B 	c #2F2D3B",
"C 	c #18161F",
"D 	c #0C0A10",
"E 	c #0C0B11",
"F 	c #736B88",
"G 	c #675F79",
"H 	c #534E64",
"I 	c #4A4559",
"J 	c #3F3C4D",
"K 	c #030304",
"L 	c #000000",
"M 	c #77708D",
"N 	c #655E78",
"O 	c #58526B",
"P 	c #554F66",
"Q 	c #494559",
"R 	c #403C4D",
"S 	c #2F2C3A",
"T 	c #17161F",
"U 	c #59526B",
"V 	c #544E65",
"W 	c #444053",
"X 	c #030305",
"Y 	c #433F52",
"Z 	c #25222D",
"` 	c #07060A",
" .	c #23212C",
"..	c #060508",
"+.	c #060509",
"      . + + + + @ # $ $ $ $ $ $ $ $ $ $ $ $ $ $ $ $ $ $ $ $ # @ + + + + .       ",
"    % & * = - ; > , ' ) ) ) ) ) ) ) ) ) ) ) ) ) ) ) ) ) ) ' , > ; - = * & %     ",
"  % ! ~ { ] ^ / ( _ : : : : : : : : : : : : : : : : : : : : _ ( / ^ ] { ~ ! %   ",
". & ~ < [ } | 1 2 3 4 5 5 5 5 5 5 5 5 5 5 5 5 5 5 5 5 5 5 4 3 2 1 | } [ < ~ & . ",
"+ * { [ 6 7 8 9 0 a a a a a a a a a a a a a a a a a a a a a a 0 9 b 7 6 [ { * + ",
"+ = ] } 7 c 0 a d e e e e e e e e e e e e e e e e e e e e e e d a 0 c 7 } ] = + ",
"+ f g h b 0 a a i j k k k k k k k k k k k k k k k k k k k k j i a a 0 b h g f + ",
"l m n o p a a q r s t u u u u u u u u u u u u u u u u u u t s r q a a p o n m l ",
"v w x y a z A r s B C D E E E E E E E E E E E E E E E E D C B s r A z a y x w v ",
"F G p a d H I J B C K L L L L L L L L L L L L L L L L L L K C B J I H d a p G F ",
"M N O a P Q R S T K L L L L L L L L L L L L L L L L L L L L K T S R Q P a O N M ",
"M N U a V W S C X L L L L L L L L L L L L L L L L L L L L L L X C S W V a U N M ",
"M N U a V Y Z ` L L L L L L L L L L L L L L L L L L L L L L L L ` Z Y V a U N M ",
"M N U a V Y  ...L L L L L L L L L L L L L L L L L L L L L L L L .. .Y V a U N M ",
"M N U a V Y  .+.L L L L L L L L L L L L L L L L L L L L L L L L +. .Y V a U N M ",
"M N U a V Y  .+.L L L L L L L L L L L L L L L L L L L L L L L L +. .Y V a U N M ",
"M N U a V Y  .+.L L L L L L L L L L L L L L L L L L L L L L L L +. .Y V a U N M ",
"M N U a V Y  .+.L L L L L L L L L L L L L L L L L L L L L L L L +. .Y V a U N M ",
"M N U a V Y  .+.L L L L L L L L L L L L L L L L L L L L L L L L +. .Y V a U N M ",
"M N U a V Y  .+.L L L L L L L L L L L L L L L L L L L L L L L L +. .Y V a U N M ",
"M N U a V Y  .+.L L L L L L L L L L L L L L L L L L L L L L L L +. .Y V a U N M ",
"M N U a V Y  .+.L L L L L L L L L L L L L L L L L L L L L L L L +. .Y V a U N M ",
"M N U a V Y  .+.L L L L L L L L L L L L L L L L L L L L L L L L +. .Y V a U N M ",
"M N U a V Y  .+.L L L L L L L L L L L L L L L L L L L L L L L L +. .Y V a U N M ",
"M N U a V Y  .+.L L L L L L L L L L L L L L L L L L L L L L L L +. .Y V a U N M ",
"M N U a V Y  .+.L L L L L L L L L L L L L L L L L L L L L L L L +. .Y V a U N M ",
"M N U a V Y  .+.L L L L L L L L L L L L L L L L L L L L L L L L +. .Y V a U N M ",
"M N U a V Y  .+.L L L L L L L L L L L L L L L L L L L L L L L L +. .Y V a U N M ",
"M N U a V Y  .+.L L L L L L L L L L L L L L L L L L L L L L L L +. .Y V a U N M ",
"M N U a V Y  .+.L L L L L L L L L L L L L L L L L L L L L L L L +. .Y V a U N M ",
"M N U a V Y  .+.L L L L L L L L L L L L L L L L L L L L L L L L +. .Y V a U N M ",
"M N U a V Y  .+.L L L L L L L L L L L L L L L L L L L L L L L L +. .Y V a U N M ",
"M N U a V Y  .+.L L L L L L L L L L L L L L L L L L L L L L L L +. .Y V a U N M ",
"M N U a V Y  .+.L L L L L L L L L L L L L L L L L L L L L L L L +. .Y V a U N M ",
"M N U a V Y  .+.L L L L L L L L L L L L L L L L L L L L L L L L +. .Y V a U N M ",
"M N U a V Y  .+.L L L L L L L L L L L L L L L L L L L L L L L L +. .Y V a U N M ",
"M N U a V Y  .+.L L L L L L L L L L L L L L L L L L L L L L L L +. .Y V a U N M ",
"M N U a V Y  .+.L L L L L L L L L L L L L L L L L L L L L L L L +. .Y V a U N M ",
"M N U a V Y  .+.L L L L L L L L L L L L L L L L L L L L L L L L +. .Y V a U N M ",
"M N U a V Y  .+.L L L L L L L L L L L L L L L L L L L L L L L L +. .Y V a U N M "};
