/* XPM */
static char *cffb7ea649914379d263b177fe37b43aDl9oBJPv51oOmtPX[] = {
/* columns rows colors chars-per-pixel */
"32 32 72 1 ",
"  c #1F2020",
". c #202020",
"X c #222222",
"o c #232323",
"O c #242323",
"+ c #272525",
"@ c #292626",
"# c #292727",
"$ c #2A2727",
"% c #2A2827",
"& c #2B2828",
"* c #2C2828",
"= c #2C2928",
"- c #2F2A2A",
"; c #2F2B2B",
": c #312C2B",
"> c #312C2C",
", c #322D2C",
"< c #352F2E",
"1 c #36302E",
"2 c #38312F",
"3 c #373030",
"4 c #3A3231",
"5 c #3C3332",
"6 c #3E3433",
"7 c #3E3434",
"8 c #3F3534",
"9 c #3F3535",
"0 c #403535",
"q c #413734",
"w c #413736",
"e c #433837",
"r c #443837",
"t c #443938",
"y c #463938",
"u c #473B38",
"i c #473A3A",
"p c #473B3A",
"a c #483B3A",
"s c #493C3B",
"d c #4A3C3B",
"f c #4C3E3C",
"g c #4E3F3D",
"h c #4F403E",
"j c #51413F",
"k c #53433F",
"l c #524240",
"z c #544341",
"x c #544441",
"c c #554541",
"v c #584742",
"b c #594744",
"n c #594843",
"m c #5A4844",
"M c #5D4A46",
"N c #5E4B46",
"B c #5F4B47",
"V c #604C47",
"C c #604C48",
"Z c #654F4A",
"A c #65504A",
"S c #66504C",
"D c #6B534E",
"F c #6B544E",
"G c #6C544F",
"H c #6D554F",
"J c #6E5550",
"K c #6F5751",
"L c #705751",
"P c #775C55",
"I c #7A5E56",
"U c #7B5F57",
/* pixels */
"XXX  &88#XXXX  %waaaaw$$00*.....",
"XO$&%,ww,###:#$,wiaaaw::ww:$$:<<",
" $<8wwiiw8887w6waaaaarwwarw67avC",
"$,wdiaaassssiaiaaaaaaaaaaaaaizLU",
"wwaaaaaaiduupsuuaaaaaaaauiddixHI",
"iaaaaaaaiidisusuaaaaaaaaudirizDI",
"aaaaaaaaiiaaiadiaaaaaaaasiaaalJP",
"0wraaiafllgaaaidaaaaaaaaidaialJP",
"$:wadiijASldiiuuusasduiduspppzLP",
"$:wfjxjnCmiehlhipuuiiidudiusplJU",
"6wrjZLLVw:%6NShippssdidiiiduplJI",
"wwagMZZx1+$1vmuihlsiuuidusiiplBD",
"$,wi4<<266661,&4BSlaudiufriapggl",
".$34-$$:rdde,++4xMlaiiiuaidsssll",
"XO$-466wifui8884<4esiiiirfiiilZJ",
".X+:waaairudssse:-4rjxxjdaiiilBH",
"X$3wisidisdiuuuiw1:4nLLAjaduidjj",
"$,esdsuiduissduiw6<8xAANxxxxxxxj",
"6wiuiuusiuiupsd6,2xnw<1eCLLHHHHH",
"uiidisidisdissxu:,MV6++1xACAZHJI",
"siusidiidsiiijAN:$ajw6461111<rHI",
"ewiisuusiussxmBx2:0addde,%+++4MH",
"&,widiiduidlABe36wrauddi86666ehj",
" $6disuisiigNx1;0aaaudiisaddudii",
"X$8duspsuude4158idididuiiduspssp",
"X$6dupaiuhld&&6duidiuisduupupsll",
"X$8dasaaijSm,$6ddisasisidudiplBJ",
" $6iaiaiihNl,%6iduuuiiuudiuiplKU",
" $8aiaiaue4-X%8iiiiiiiddiiiiilJI",
"<8glxlgdjh8,-1dxxxxlljddlxlllMJI",
"NADDJZglBKSxiuNJFJFKHZglBJFJJKJI",
"IUIIIFllHUUKlxJIIIPPIHjxFIIPIPPP"
};
