/* XPM */
static char *_360c7489533491d9c3163817262a1f73FzqE2UPOef4AsQu[] = {
/* columns rows colors chars-per-pixel */
"32 32 153 2 ",
"   c #0E0B0A",
".  c #120C0D",
"X  c #1D1414",
"o  c #1D171C",
"O  c #1D1A1B",
"+  c #231B1C",
"@  c #291B1B",
"#  c #311E1B",
"$  c #21201E",
"%  c #29201E",
"&  c #36241F",
"*  c #1E1D23",
"=  c #231F23",
"-  c #281F22",
";  c #321D22",
":  c #232222",
">  c #2A2624",
",  c #272823",
"<  c #2A2927",
"1  c #23242A",
"2  c #28272C",
"3  c #24282F",
"4  c #2C2A2B",
"5  c #302625",
"6  c #3E2B23",
"7  c #332D2B",
"8  c #3A2E2D",
"9  c #32302F",
"0  c #38302E",
"q  c #242730",
"w  c #272831",
"e  c #2C2B31",
"r  c #292E39",
"t  c #342D34",
"y  c #2D323C",
"u  c #353235",
"i  c #3E3433",
"p  c #31353E",
"a  c #383538",
"s  c #373B3E",
"d  c #3F3A3E",
"f  c #442621",
"g  c #422C22",
"h  c #4C302A",
"j  c #5C332C",
"k  c #57382D",
"l  c #423535",
"z  c #453937",
"x  c #483A34",
"c  c #463A39",
"v  c #493B3A",
"b  c #523B33",
"n  c #623A2F",
"m  c #4E403F",
"M  c #51423F",
"N  c #5B463B",
"B  c #6D432F",
"V  c #6B492F",
"C  c #6C4636",
"Z  c #774834",
"A  c #313742",
"S  c #353A45",
"D  c #3A3B44",
"F  c #373E4B",
"G  c #393E4A",
"H  c #403D43",
"J  c #3D4553",
"K  c #424447",
"L  c #4C4343",
"P  c #44454A",
"I  c #4C4C4D",
"U  c #554341",
"Y  c #594743",
"T  c #5C4A45",
"R  c #434651",
"E  c #434954",
"W  c #4E4C54",
"Q  c #444D5C",
"!  c #4B4D5A",
"~  c #524D55",
"^  c #4F5257",
"/  c #46505F",
"(  c #4C545D",
")  c #545255",
"_  c #56565A",
"`  c #58575E",
"'  c #5C5A5C",
"]  c #614D47",
"[  c #624E48",
"{  c #66524B",
"}  c #6B544E",
"|  c #6E5651",
" . c #605C5C",
".. c #765C55",
"X. c #785B55",
"o. c #465060",
"O. c #4B5363",
"+. c #4F5769",
"@. c #4E596E",
"#. c #545663",
"$. c #535964",
"%. c #5B5D64",
"&. c #545D6C",
"*. c #4E5B72",
"=. c #5F6164",
"-. c #55606F",
";. c #59626D",
":. c #5D6373",
">. c #536179",
",. c #63656C",
"<. c #686B6F",
"1. c #616170",
"2. c #656972",
"3. c #6A6C72",
"4. c #616678",
"5. c #64697C",
"6. c #686D7D",
"7. c #6C7076",
"8. c #757476",
"9. c #74797C",
"0. c #825135",
"q. c #84797C",
"w. c #6C6F80",
"e. c #6E7182",
"r. c #667189",
"t. c #6B758B",
"y. c #707A82",
"u. c #7B7F87",
"i. c #75798C",
"p. c #727C94",
"a. c #7F8491",
"s. c #7A859F",
"d. c #868588",
"f. c #84888D",
"g. c #8A898D",
"h. c #888D97",
"j. c #838599",
"k. c #868A9D",
"l. c #8B9398",
"z. c #92979E",
"x. c #848CA4",
"c. c #898BA1",
"v. c #8E93AB",
"b. c #9497AF",
"n. c #9499AE",
"m. c #969AB1",
"M. c #989EB9",
"N. c #9EA2BC",
"B. c #A7A5A9",
"V. c #AEACB0",
"C. c #A1A6B9",
"Z. c #A3A7C2",
"A. c #A3A8C0",
/* pixels */
": : : : : < i i < : : : : : : < i v v v v l > > l i > : : : : : ",
": : , < < 7 l l 7 < < < < < < 7 l v v v v l 7 7 l l t < < 4 7 0 ",
": , 0 i i l c v l i l l i i > 7 l v v v v c l l v z l i i z Y ] ",
"< 7 l v v v v v v v v v z ~ k.z.L v v v v v v v v v v v v Y } ..",
"l l c v v v v v v v v l t s.j.$.K 7 c v v c v v v v v v v M } ..",
"v c v v v v v v v v v l : *.P 2.2.' l v v v c v v v v v v Y } ..",
"v v v v v v v v v v c c ) 1 5.! 5.c v v v v v v v v v x v U } ..",
"i l c v v v v v L U z  .B.d.#.+.6.5 z v v v v v v v v v v U } ..",
"> 7 l v v v v m [ ] z P _ f.V.%.E : c z v v v v v v v v v U } ..",
"< 7 l v M U U Y T Y m ( p D g.B.8.K $.l v v v v c v v v v Y } ..",
"i l c U ] } } T z 9 $.-.Q A e q.g.I ( u v v x v v v v v c Y } ..",
"i l v v T ] ] U u s J / o.G ! t t n.E 4 v v v v c v v v c U T } ",
"< 7 l z i 7 7 i i ^ $.F y w j.j.8 ,.p a z v v x v v v v v v U Y ",
": < 7 i 7 < < 7 0 s y y r p.M.j.N b 1 1 a ` ,.I v v v v v v m U ",
": : , 4 i i i l i s 3 4 3 >.R C B # 2 :.1.m.C.C.3.l v v v M [ } ",
": , , 7 i v v l ^ -.1 l : 4 h Z 0.j - -.t a c.A.m.D v v v m [ } ",
": , 0 l v v v l t G 1 z X X @ 6 V # %.t = 1.v.M.c.R l v v b H C ",
"< 7 l v v v v x 7 e.#.z : - 5 h k f = o A #.D ! @.J h H H ] ] H ",
"l l c v v v v v 7 h.W c ,.y.7 h n f   .   + t o.o.S ] } } | | | ",
"v v v v v v v v 7 u.c z h.Z.x.4 5 H D 1 o 1 F o.G z ] ] ] { | X.",
"v v v v v v v z > I @ x l.A.N.y o.b.#.A p Q Q A 4 t 0 0 8 z { X.",
"i l c v v v c > + . & i O.e.x.3 @.x.m.J o.J A 7 7 < < < > i T } ",
"< 7 l v v v x + + % 6 u ( / Q y J t.k.A A w 7 z l l l i l l v U ",
": < i v v v v l l c l c <.7.E A J w.%.1 * t c v v v v v v v v v ",
": < i v v v v v c v v 9 R 9.d O 2 P 5.3.9.) L v v v v v v v v v ",
": < i v v v v v v m m : J Q u v l 1 D 7 ' f.' v v v v v v v M Y ",
": < i v v v v v v M m ;.-.w i v 8 S ,.c v v v v v v v v v M ] } ",
": > l v v v v v x m m 2.&.O i v 7 *.D l v v v v v v v v v U } ..",
"$ < i v v v v v m i 7 i.r.+ i v 8 O.Q i v v v v v v v c v U } X.",
"0 i m U Y L v v m m 7 :.O.7 v Y v t e z U M v v M U U Y U T | ..",
"[ { } } } [ U M [ } ] ;.W v T } { L 9.v ] ] M M ] } } } } | ....",
"..X.....X.} U U } ....i c U } ....T 8 8 x } U U } ..X.....X.X..."
};
