/* XPM */
static char *f7d9fe76e3734bf9ef309731efe41464V7hZ2LbgUZzF1LBj[] = {
/* columns rows colors chars-per-pixel */
"32 32 153 2 ",
"   c #0E0B0C",
".  c #120D0D",
"X  c #1B100E",
"o  c #1A1213",
"O  c #1B1618",
"+  c #1C1A1C",
"@  c #251816",
"#  c #271718",
"$  c #241A1C",
"%  c #2C1C1C",
"&  c #27201F",
"*  c #2B211E",
"=  c #30231D",
"-  c #191C21",
";  c #241E23",
":  c #2C1E22",
">  c #1F2026",
",  c #222223",
"<  c #2A2524",
"1  c #272823",
"2  c #2A2927",
"3  c #24252B",
"4  c #2F262C",
"5  c #2C292B",
"6  c #322526",
"7  c #382123",
"8  c #372826",
"9  c #332D2B",
"0  c #392E2D",
"q  c #38302E",
"w  c #232631",
"e  c #262A33",
"r  c #2B2C34",
"t  c #2B2F3C",
"y  c #312E33",
"u  c #382F30",
"i  c #2C313B",
"p  c #3E3433",
"a  c #3D3936",
"s  c #32343C",
"d  c #3D3739",
"f  c #3B3939",
"g  c #462924",
"h  c #532F28",
"j  c #483527",
"k  c #45362B",
"l  c #533727",
"z  c #53352C",
"x  c #59342D",
"c  c #5C3E2A",
"v  c #423535",
"b  c #453936",
"n  c #483A37",
"m  c #463A3A",
"M  c #493B3A",
"N  c #62382F",
"B  c #4D413E",
"V  c #51423F",
"C  c #60422B",
"Z  c #704132",
"A  c #313741",
"S  c #353A44",
"D  c #3B3B42",
"F  c #353B49",
"G  c #453C43",
"H  c #483F40",
"J  c #3F4247",
"K  c #3D424C",
"L  c #3B4352",
"P  c #434245",
"I  c #4D4444",
"U  c #4B4549",
"Y  c #46484C",
"T  c #4B4B4D",
"R  c #554341",
"E  c #594743",
"W  c #5C4A45",
"Q  c #594F4D",
"!  c #404655",
"~  c #444952",
"^  c #4B4E54",
"/  c #434C5B",
"(  c #4C4E59",
")  c #554F50",
"_  c #514E5A",
"`  c #4F515B",
"'  c #53555A",
"]  c #555859",
"[  c #614D46",
"{  c #624E48",
"}  c #66524B",
"|  c #6B544E",
" . c #6E5651",
".. c #6B5853",
"X. c #775C55",
"o. c #785C55",
"O. c #475161",
"+. c #4C5465",
"@. c #525563",
"#. c #565863",
"$. c #5B5D64",
"%. c #525B6A",
"&. c #5A5D68",
"*. c #4F5C72",
"=. c #5B626C",
"-. c #5F6475",
";. c #5F6B78",
":. c #636266",
">. c #62646C",
",. c #65696C",
"<. c #68686B",
"1. c #726C6D",
"2. c #636574",
"3. c #636B77",
"4. c #6E6D70",
"5. c #65697C",
"6. c #6F737B",
"7. c #757273",
"8. c #787A7F",
"9. c #8E6238",
"0. c #9C6839",
"q. c #5D6C85",
"w. c #646D83",
"e. c #6A7287",
"r. c #677189",
"t. c #6F758B",
"y. c #727484",
"u. c #7C7E85",
"i. c #727689",
"p. c #767A8C",
"a. c #7A7B8F",
"s. c #7E838B",
"d. c #7D839A",
"f. c #848285",
"g. c #808690",
"h. c #848798",
"j. c #83889E",
"k. c #8E9699",
"l. c #8D92A3",
"z. c #8C94AD",
"x. c #9296A5",
"c. c #9E9DA1",
"v. c #9195AD",
"b. c #9599B3",
"n. c #9B9FB7",
"m. c #979EB9",
"M. c #9BA2B0",
"N. c #9CA0BA",
"B. c #A3A1A4",
"V. c #A9A7AA",
"C. c #A3A7C2",
"Z. c #A5AAC3",
"A. c #C0C9D8",
/* pixels */
", , , , , 2 p v 5 > & > & > & 2 a M M M M p 5 5 p p 5 , , , , , ",
", , 1 2 2 9 p v 9 5 1 5 2 1 1 9 v b M M M v 9 9 v v 9 5 2 2 9 0 ",
", 2 q p v v m n v v p p a a v q 9 0 M n M b v v m n v p p m E [ ",
"2 9 v n M M M n M M M m M M v 8.l.y.m M M M m M n M M M M E | X.",
"v v m M M M M M M M M M M p f &.6.v.K p n M M M M M M M M R | X.",
"M n n M M M M M M M M M M u >.6.( ! t p M M M M M M M M M R | X.",
"M M M M M M M M m M M n M m 2.^ e.w G I b M M M M M M n n V | X.",
"p v m M M M M M R R M m M p 2.+.%.:.V.7.v M M M M M M M n E | X.",
"5 9 p n M M M V [ { V M b P D ~ c.c.,.Y p n M M M M m M M R | X.",
"5 9 v M V V E E W E b a Y ^ 4.7.B.( A ~ ^ m M M M M M m M E | X.",
"p v m R { | | W b 9 5 q S ` f.1.P r L %.;.f m n M M M M n E | X.",
"p v b I W { { V p 2 2 9 3 x._ 7 @.w / +.L Y m M M M M M n B { | ",
"2 9 b b p 0 q q p p p q e s.0 2.v.K w S S =.H n M M M M M H R R ",
", 2 q q 5 1 2 f $.=.U + w m l f.b.z./ e S D d m M M M M M M R R ",
", , 1 5 p p T x.N.N.a.2.L # z 9.H *.F 4 3 S f m M M M M m R { | ",
"; , 2 9 p 6 h.Z.Z.] ; 2.S g N 0.x 6 - 0 * / =.m M M M n n B { | ",
"; 2 u v u y p.n.b.a.4 4 #.@ c C % $   6 * S D V V M M M M M V V ",
"2 9 v M v A +.@.y +.F X ; % z z 7 : O q < l.U W E V R R R R R E ",
"p v n M v 4 / O.D ; O   . o N z < -.s.I 9 M.T n W | | | | | | | ",
"M n M M M p s / ! r ; 3 3 >.6 6 5.Z.A.I q g.T q V } [ { [ } X.o.",
"M M M M M M u s O.O.F F A n.w., j.Z.A.B * T a q p 0 q q 0 b } o.",
"v v m m M M M v r F / ( 5.m.q.t y.i.-.D j o o $ 2 2 2 5 5 q W | ",
"5 9 v n M M M n u e A F ' l.O.t L / %.D k * $ o 6 p d v p b B R ",
", 5 p M M M M M M d : - J p.+.K K &.k.f b b b p m M M M M n n n ",
", 2 p M M M M M m ) :.,.6.` r ; 6 3.3.9 n M M n M M M M M M M M ",
", 2 v M M M M n B s.4.f > ` 5 M b J / e p M M M M M M M M M V E ",
", 2 p M M M M M M V { V ] K 5 M M r @.-.d M M M M M M M n B { | ",
", 2 p n M M M M M B W B , t.r n n p L -.d M M M M M M M M E | X.",
", 2 p M M M M M M b p 5 5 e.y M M n L d.G m m M M n M n M R  .X.",
"q p B R R R M M V M p 6 , F p V E M D 5.m V M M R R E R R W  .X.",
"[ { | | ..W R R [ | { b ' ,.E } | | I >.Q { V I W  .| | |  .X.X.",
"o.o.X.X.X.| R R | o.[ 8 < 9 { o.o.o...b | | V R  .X.X.X.X.o.o.X."
};
