/* XPM */
static char * player_left_xpm[] = {
"40 40 491 2",
"  	c #40264D",
". 	c #41274E",
"+ 	c #42284F",
"@ 	c #3F254C",
"# 	c #492E57",
"$ 	c #5A3D69",
"% 	c #5B3E6A",
"& 	c #4D345A",
"* 	c #889597",
"= 	c #65697A",
"- 	c #636778",
"; 	c #533861",
"> 	c #4A3058",
", 	c #583B67",
"' 	c #5E3F6E",
") 	c #563F64",
"! 	c #BACBD0",
"~ 	c #A7AEC7",
"{ 	c #B0BACF",
"] 	c #AFB8CD",
"^ 	c #7B7F94",
"/ 	c #593C68",
"( 	c #5D3E6E",
"_ 	c #563767",
": 	c #3A4041",
"< 	c #646976",
"[ 	c #5C5F70",
"} 	c #848E96",
"| 	c #A3A9C4",
"1 	c #667E9B",
"2 	c #241E30",
"3 	c #583968",
"4 	c #573868",
"5 	c #553665",
"6 	c #4D4F5E",
"7 	c #89959A",
"8 	c #808A93",
"9 	c #616576",
"0 	c #354C62",
"a 	c #4F6B88",
"b 	c #22192E",
"c 	c #573867",
"d 	c #5E3F6F",
"e 	c #5C3D6D",
"f 	c #3C2648",
"g 	c #989EB5",
"h 	c #8F95AB",
"i 	c #787D90",
"j 	c #99A1BC",
"k 	c #253545",
"l 	c #1A212F",
"m 	c #1C0F23",
"n 	c #553666",
"o 	c #593A6A",
"p 	c #593A69",
"q 	c #513461",
"r 	c #6C7082",
"s 	c #4F5260",
"t 	c #7A7E93",
"u 	c #657893",
"v 	c #1F2737",
"w 	c #4B4747",
"x 	c #C3C3CA",
"y 	c #706E77",
"z 	c #5B3C6C",
"A 	c #4D305C",
"B 	c #4E505E",
"C 	c #7F8399",
"D 	c #7487A4",
"E 	c #2E485F",
"F 	c #8C8C91",
"G 	c #C0BDC1",
"H 	c #CAC7CA",
"I 	c #A9A1A0",
"J 	c #362141",
"K 	c #5D3E6D",
"L 	c #624373",
"M 	c #614271",
"N 	c #4F335F",
"O 	c #364045",
"P 	c #464855",
"Q 	c #647791",
"R 	c #3E3F42",
"S 	c #DADAE2",
"T 	c #BFB9BA",
"U 	c #D0D1D8",
"V 	c #797373",
"W 	c #4A545A",
"X 	c #372142",
"Y 	c #5F406F",
"Z 	c #634473",
"` 	c #4D315D",
" .	c #91A8B3",
"..	c #3E4D58",
"+.	c #B6B7BD",
"@.	c #100C09",
"#.	c #B6B5BA",
"$.	c #8F8F94",
"%.	c #354455",
"&.	c #364353",
"*.	c #4F5C63",
"=.	c #392544",
"-.	c #455259",
";.	c #516171",
">.	c #000000",
",.	c #CDCACF",
"'.	c #A09C9E",
").	c #D9D8DE",
"!.	c #9A9AA0",
"~.	c #2A3648",
"{.	c #212835",
"].	c #313C4A",
"^.	c #7D92A0",
"/.	c #889EAA",
"(.	c #432F50",
"_.	c #1F2631",
":.	c #30373D",
"<.	c #A5B3B9",
"[.	c #66646C",
"}.	c #4E4846",
"|.	c #7F706E",
"1.	c #0C0911",
"2.	c #171821",
"3.	c #425164",
"4.	c #425163",
"5.	c #404F61",
"6.	c #94ACB9",
"7.	c #41284E",
"8.	c #2F363C",
"9.	c #C0CEDC",
"0.	c #9297B0",
"a.	c #330E15",
"b.	c #2F0E15",
"c.	c #888DA4",
"d.	c #181E2D",
"e.	c #414E56",
"f.	c #5E6E75",
"g.	c #020104",
"h.	c #23272B",
"i.	c #B6C1D5",
"j.	c #1E0C14",
"k.	c #2D0B11",
"l.	c #9298B0",
"m.	c #9EA3BE",
"n.	c #383A45",
"o.	c #252E3D",
"p.	c #354253",
"q.	c #435264",
"r.	c #2D3744",
"s.	c #586A79",
"t.	c #67787F",
"u.	c #4C305C",
"v.	c #4B2F5A",
"w.	c #4E325E",
"x.	c #392345",
"y.	c #8DA4B0",
"z.	c #252A2F",
"A.	c #9DA6AA",
"B.	c #794C29",
"C.	c #979BB3",
"D.	c #A2A8C3",
"E.	c #3D3F4A",
"F.	c #030101",
"G.	c #161720",
"H.	c #536473",
"I.	c #58676E",
"J.	c #37363F",
"K.	c #BED0D4",
"L.	c #C8DADF",
"M.	c #B0BFC5",
"N.	c #3B3945",
"O.	c #242C3E",
"P.	c #0C0F17",
"Q.	c #48363C",
"R.	c #7C4F2C",
"S.	c #514649",
"T.	c #A0A6C1",
"U.	c #A0A7C2",
"V.	c #597390",
"W.	c #49627D",
"X.	c #1B2030",
"Y.	c #354150",
"Z.	c #1F2732",
"`.	c #8FA6B2",
" +	c #3A2446",
".+	c #8D9A9E",
"++	c #BCC9D9",
"@+	c #A5ACC6",
"#+	c #A2A7C3",
"$+	c #A3A9C5",
"%+	c #B6C2D3",
"&+	c #5D6071",
"*+	c #787F95",
"=+	c #1A232F",
"-+	c #34141B",
";+	c #5D2824",
">+	c #D78B35",
",+	c #53150A",
"'+	c #374F65",
")+	c #537290",
"!+	c #506B87",
"~+	c #2F3344",
"{+	c #442A51",
"]+	c #1E2530",
"^+	c #313C4D",
"/+	c #1C2533",
"(+	c #342040",
"_+	c #523463",
":+	c #696D7C",
"<+	c #B4BFD2",
"[+	c #969BB4",
"}+	c #504E5C",
"|+	c #3C3F4A",
"1+	c #9CA2BB",
"2+	c #4A6580",
"3+	c #41294F",
"4+	c #5F2B24",
"5+	c #72342D",
"6+	c #D58A35",
"7+	c #70312D",
"8+	c #6D322A",
"9+	c #2D1611",
"0+	c #3D4B5D",
"a+	c #21182B",
"b+	c #432A51",
"c+	c #1D242E",
"d+	c #889FAC",
"e+	c #90A7B2",
"f+	c #533563",
"g+	c #442B52",
"h+	c #989EB7",
"i+	c #A0A6C0",
"j+	c #342B33",
"k+	c #39171E",
"l+	c #2E2B33",
"m+	c #6B767B",
"n+	c #5C6365",
"o+	c #71352C",
"p+	c #8D502E",
"q+	c #E09336",
"r+	c #602D2A",
"s+	c #57302A",
"t+	c #542F29",
"u+	c #3D2423",
"v+	c #1F1126",
"w+	c #432A50",
"x+	c #242D3D",
"y+	c #44525F",
"z+	c #252E39",
"A+	c #445365",
"B+	c #949BB4",
"C+	c #A5ABC6",
"D+	c #72768A",
"E+	c #A4AAC6",
"F+	c #9095AD",
"G+	c #3D546B",
"H+	c #300F13",
"I+	c #535665",
"J+	c #484A57",
"K+	c #220C15",
"L+	c #734929",
"M+	c #633B29",
"N+	c #5F3A23",
"O+	c #33131A",
"P+	c #1E0E12",
"Q+	c #180D0F",
"R+	c #201227",
"S+	c #7C8096",
"T+	c #1B2631",
"U+	c #344150",
"V+	c #405062",
"W+	c #384657",
"X+	c #30141B",
"Y+	c #6D6F81",
"Z+	c #283A4C",
"`+	c #476079",
" @	c #2C0D13",
".@	c #050100",
"+@	c #31111B",
"@@	c #744A29",
"#@	c #673E29",
"$@	c #33141A",
"%@	c #341219",
"&@	c #0C0000",
"*@	c #201126",
"=@	c #9FA5BF",
"-@	c #B3BDD1",
";@	c #2A2E3D",
">@	c #3E4C5D",
",@	c #100000",
"'@	c #351B23",
")@	c #131014",
"!@	c #1E0A0D",
"~@	c #2B1216",
"{@	c #0E0404",
"]@	c #52241E",
"^@	c #743A2D",
"/@	c #532F29",
"(@	c #492925",
"_@	c #475263",
":@	c #9AA9B2",
"<@	c #555960",
"[@	c #553766",
"}@	c #452B53",
"|@	c #999EB8",
"1@	c #CADBE4",
"2@	c #34203F",
"3@	c #472D55",
"4@	c #3F4D5F",
"5@	c #414F60",
"6@	c #371218",
"7@	c #1F090E",
"8@	c #180C12",
"9@	c #242D39",
"0@	c #2B0E08",
"a@	c #70352D",
"b@	c #59312B",
"c@	c #47261F",
"d@	c #4E5869",
"e@	c #4A2F59",
"f@	c #3B3B48",
"g@	c #CBDCE5",
"h@	c #392546",
"i@	c #364253",
"j@	c #28333F",
"k@	c #30171E",
"l@	c #2D2F3A",
"m@	c #384656",
"n@	c #979DB6",
"o@	c #8B90A7",
"p@	c #140100",
"q@	c #462622",
"r@	c #293644",
"s@	c #7D859C",
"t@	c #C7D9DE",
"u@	c #392346",
"v@	c #3E3F4C",
"w@	c #583969",
"x@	c #2C3647",
"y@	c #3F4E5F",
"z@	c #323D4C",
"A@	c #384555",
"B@	c #8E98B3",
"C@	c #293848",
"D@	c #263340",
"E@	c #A1A7C2",
"F@	c #72461D",
"G@	c #2D1A1A",
"H@	c #16090F",
"I@	c #AFBFC3",
"J@	c #220000",
"K@	c #5D3F6D",
"L@	c #40294D",
"M@	c #2B3545",
"N@	c #4C5160",
"O@	c #A4AAC5",
"P@	c #557391",
"Q@	c #46586D",
"R@	c #25313E",
"S@	c #6F787C",
"T@	c #030206",
"U@	c #774C2A",
"V@	c #2C1419",
"W@	c #130000",
"X@	c #3E2612",
"Y@	c #372440",
"Z@	c #3E284B",
"`@	c #1C2233",
" #	c #364254",
".#	c #374354",
"+#	c #435365",
"@#	c #A3A8C4",
"##	c #808FAB",
"$#	c #4A6179",
"%#	c #34414F",
"&#	c #181F28",
"*#	c #7B7F93",
"=#	c #4D5B70",
"-#	c #354B61",
";#	c #4D6680",
">#	c #3B4B5D",
",#	c #623F21",
"'#	c #261610",
")#	c #1C0B0D",
"!#	c #230E11",
"~#	c #210D10",
"{#	c #40294C",
"]#	c #231A2E",
"^#	c #1E2435",
"/#	c #232B3D",
"(#	c #C4D6DB",
"_#	c #9499B3",
":#	c #49617B",
"<#	c #26313F",
"[#	c #3D5166",
"}#	c #405266",
"|#	c #4F5A64",
"1#	c #5A6265",
"2#	c #492E58",
"3#	c #452C54",
"4#	c #7D5038",
"5#	c #211329",
"6#	c #573968",
"7#	c #523761",
"8#	c #0B0E17",
"9#	c #1E1F21",
"0#	c #656E72",
"a#	c #9499B2",
"b#	c #4F6984",
"c#	c #53718F",
"d#	c #20232B",
"e#	c #464A58",
"f#	c #9398B0",
"g#	c #CBDEE2",
"h#	c #C8DBDF",
"i#	c #4F325E",
"j#	c #3D264A",
"k#	c #94A1A5",
"l#	c #A0AFB1",
"m#	c #C3D1DF",
"n#	c #8990A2",
"o#	c #787D91",
"p#	c #0E0705",
"q#	c #040000",
"r#	c #0D111C",
"s#	c #71838B",
"t#	c #8196A0",
"u#	c #26323F",
"v#	c #503860",
"w#	c #B5C6C9",
"x#	c #C9DBE2",
"y#	c #C0D1D6",
"z#	c #6B6B80",
"A#	c #1D1D23",
"B#	c #26303D",
"C#	c #503360",
"D#	c #8EA4B0",
"E#	c #425062",
"F#	c #1E242F",
"G#	c #513860",
"H#	c #626A6D",
"I#	c #4A445A",
"J#	c #4F325F",
"K#	c #533564",
"L#	c #483257",
"M#	c #444955",
"N#	c #95969C",
"O#	c #311D3B",
"P#	c #281731",
"Q#	c #293243",
"R#	c #1F252D",
"S#	c #60586A",
"T#	c #9D9EA4",
"U#	c #223A52",
"V#	c #261830",
"W#	c #462C54",
"X#	c #607079",
"Y#	c #8BA1AD",
"Z#	c #8197A2",
"`#	c #4C305B",
" $	c #565A6C",
".$	c #8492AE",
"+$	c #261A32",
"@$	c #121520",
"#$	c #2B3546",
"$$	c #8F95AE",
"%$	c #3C2548",
"&$	c #5F7591",
"*$	c #6F7E98",
"=$	c #344960",
"-$	c #472E56",
";$	c #40284D",
">$	c #637A97",
",$	c #3B536B",
"'$	c #030212",
")$	c #272F43",
"!$	c #7C859E",
"~$	c #4A2F58",
"{$	c #687074",
"]$	c #C6D9DD",
"^$	c #93A1A4",
"/$	c #5B3D6A",
"($	c #636B6F",
"_$	c #C7DADE",
":$	c #483C54",
"<$	c #3C2847",
"[$	c #211428",
"}$	c #646D6F",
"|$	c #4F385C",
"1$	c #7D888B",
"2$	c #7A7D89",
"      . + + + + + + + + + + + + + + + + + + + + + + + + + + + + + + + + .       ",
"    @ # $ % % % % % % % % % % % % % % % & * = - ; % % % % % % % % % % $ # @     ",
"  @ > , ' ' ' ' ' ' ' ' ' ' ' ' ' ' ' ) ! ~ { ] ^ / ' ' ' ' ' ' ' ' ' ' , > @   ",
". # , ( _ _ _ _ _ _ _ _ _ _ _ _ _ _ _ : < [ } | 1 2 _ _ _ _ _ _ _ _ _ _ ( , # . ",
"+ $ ' _ _ _ 3 4 _ _ _ _ _ _ _ _ _ 5 6 7 7 8 9 0 a b _ _ _ _ _ _ _ _ _ _ _ ' $ + ",
"+ % ' _ _ c d e _ _ _ _ _ _ _ _ _ _ f g h i j k l m n _ _ _ _ _ _ _ _ _ _ ' % + ",
"+ % ' _ _ _ o p _ _ _ _ _ _ _ _ _ _ q r s t u v w x y _ _ _ _ ( z _ _ _ _ ' % + ",
"+ % ' _ _ _ _ _ _ _ _ _ _ _ _ _ _ _ A B C D E F G H I J _ 4 K L M z _ _ _ ' % + ",
"+ % ' _ _ _ _ _ _ _ _ _ _ _ _ _ _ N O P Q R S T U V W X _ 3 Y Z L ( _ _ _ ' % + ",
"+ % ' _ _ _ _ _ _ _ _ _ _ _ _ _ `  ...+.@.#.T $.%.&.*.=._ _ 4 Y K _ _ _ _ ' % + ",
"+ % ' _ _ _ _ _ _ _ _ _ _ _ _ _ -.;.>.,.'.).!.~.{.].^./.(._ _ 3 4 _ _ _ _ ' % + ",
"+ % ' _ _ _ _ _ _ _ _ _ _ _ _ _ _.:.<.[.}.|.1.2.3.4.4.5.6.7._ _ _ _ _ _ _ ' % + ",
"+ % ' _ _ _ _ _ _ _ _ _ _ _ _ _ _.8.9.0.a.b.c.d.4.4.4.4.e.f._ _ _ _ _ _ _ ' % + ",
"+ % ' _ _ _ _ _ _ _ _ _ _ _ _ _ g.h.i.j.k.l.m.n.o.p.q.r.s.t._ _ _ _ _ _ _ ' % + ",
"+ % ' _ _ _ _ _ _ _ _ u.v.w._ x.y.z.A.B.C.| | D.E.F.G.q.H.I._ _ _ _ _ _ _ ' % + ",
"+ % ' _ _ _ _ _ _ n J.K.L.M.N.x.O.P.Q.R.S.T.U.U.V.W.X.Y.Z.`. +_ _ _ _ _ _ ' % + ",
"+ % ' _ _ _ _ _ 5 .+++@+#+$+%+&+*+=+-+;+>+,+'+)+!+~+{+]+^+/+(+_ _ _ _ _ _ ' % + ",
"+ % ' _ _ _ _ _+:+<+| | [+}+|+1+2+3+4+5+6+7+8+9+0+a+_ b+c+d+e+f+_ _ _ _ _ ' % + ",
"+ % ' _ _ _ _ g+h+| | | i+j+k+l+m+n+o+p+q+r+s+t+u+v+_ w+x+4.y+f+_ _ _ _ _ ' % + ",
"+ % ' _ _ _ _ z+A+B+C+D+E+F+G+H+I+J+K+L+M+N+O+P+Q+R+_ w+S+T+U+f+_ _ _ _ _ ' % + ",
"+ % ' _ _ _ _ z+4.V+W+X+Y+Z+`+>. @.@+@@@#@N+$@%@&@*@_ w+=@-@(+_ _ _ _ _ _ ' % + ",
"+ % ' _ _ _ _ ;@4.4.4.>@,@'@)@!@~@{@]@o+^@/@(@_@:@<@[@}@|@1@2@_ _ _ _ _ _ ' % + ",
"+ % ' _ _ _ _ 3@4@4.4.5@6@7@8@9@>.>.0@a@b@c@d@T.#+L.e@_ f@g@2@_ _ _ _ _ _ ' % + ",
"+ % ' _ _ _ _ _ h@i@4.4.U+j@k@l@m@n@o@p@q@r@s@| #+t@u@_ v@g@(+o w@_ _ _ _ ' % + ",
"+ % ' _ _ _ _ _ _ x.x@4.4.4.y@z@A@[+| B@C@D@E@| #+t@F@G@H@I@J@K@( _ _ _ _ ' % + ",
"+ % ' _ _ _ _ _ _ _ L@M@4.4.4.q.N@T.O@P@Q@R@E@| O@S@T@U@V@W@X@Y@( _ _ _ _ ' % + ",
"+ % ' _ _ _ _ _ _ _ _ Z@`@ #.#+#I+@###$#%#&#*#=#-#;#>#,#'#)#!#~#2@_ _ _ _ ' % + ",
"+ % ' _ _ _ _ _ _ _ _ _ {#]#^#/#>.(#_#:#<#[#!+}#|#1#2#3#4#[@3@5## _ _ _ _ ' % + ",
"+ % ' _ _ _ _ _ _ _ _ _ _ 6#7#8#9#0#a#b#c#d#e#f#g#h#e@_ i#_ _ _ _ _ _ _ _ ' % + ",
"+ % ' _ _ _ _ _ _ _ _ _ # j#k#l#m#n#o#p#q#r#w.s#t#u#v._ _ _ _ _ _ _ _ _ _ ' % + ",
"+ % ' _ _ _ _ _ _ _ _ v#w#x#y#z#A#>@B#n [@[@C#D#4.E#F#_ _ _ _ _ _ _ _ _ _ ' % + ",
"+ % ' _ _ _ _ _ _ _ _ G#H#I#J#K#L#M#N#O#_ _ _ P#3.Q#R#_ _ _ _ _ _ _ _ _ _ ' % + ",
"+ % ' _ _ _ _ _ _ _ _ _ _ _ _ _ S#T#U#V#_ _ _ W#X#Y#Z#J _ _ _ _ _ _ _ _ _ ' % + ",
"+ % ' _ _ _ _ _ _ _ _ _ _ _ _ _ `# $.$+$_ _ _ _ @$#$$$X _ _ _ _ _ _ _ _ _ ' % + ",
"+ % Y 4 _ _ _ _ _ _ _ _ _ _ _ _ `#[+##+$_ _ _ _ %$&$E@X _ _ _ _ _ _ _ _ _ ' % + ",
"+ $ Z Y 4 _ _ _ _ _ _ _ _ _ _ _ `#*$=$-$_ _ _ _ ;$>$O@X _ _ _ _ _ _ _ _ _ ' $ + ",
". # $ Z Y 4 _ _ _ _ _ _ _ _ _ _ u.,$'$[@_ _ _ _ _ )$!$X _ _ _ _ _ _ _ _ ( , # . ",
"  @ ~$$ Z Y ' ' ' ' ' ' ' ' ' K {$]$^$/$' ' ' ' ' ($_$:$' ' ' ' ' ' ' ' , > @   ",
"    @ # $ % % % % % % % % % <$[$>.>.}$|$% % % % % 1$>.2$% % % % % % % $ # @     ",
"      . + + + + + + + + + + + + + + + + + + + + + + + + + + + + + + + + .       "};
