/* XPM */
static char *b7a59116757b44b6c584023bde1519f9NWzqIvo0CvVtIV5J[] = {
/* columns rows colors chars-per-pixel */
"32 32 162 2 ",
"   c #0E0E0D",
".  c #120C0D",
"X  c #111111",
"o  c #1C1415",
"O  c #16171A",
"+  c #1C1C1D",
"@  c #1D171C",
"#  c #241214",
"$  c #2D171D",
"%  c #241C1E",
"&  c #291B1B",
"*  c #331C1B",
"=  c #20201F",
"-  c #34241D",
";  c #1D1E23",
":  c #241F24",
">  c #291D21",
",  c #321D22",
"<  c #222222",
"1  c #2A2424",
"2  c #23242A",
"3  c #2E2129",
"4  c #24282F",
"5  c #2A2A2C",
"6  c #3F2823",
"7  c #30242D",
"8  c #382728",
"9  c #262831",
"0  c #2E2B31",
"q  c #292F39",
"w  c #342D34",
"e  c #2D323C",
"r  c #333233",
"t  c #31353E",
"y  c #3C3A3E",
"u  c #402219",
"i  c #4B271A",
"p  c #58291C",
"a  c #642F1F",
"s  c #6B301F",
"d  c #461B23",
"f  c #541F29",
"g  c #48212A",
"h  c #48282E",
"j  c #432922",
"k  c #5A2D21",
"l  c #59202B",
"z  c #532D24",
"x  c #4C302A",
"c  c #5B332B",
"v  c #543A2E",
"b  c #522831",
"n  c #423635",
"m  c #4B3432",
"M  c #453938",
"N  c #483B3A",
"B  c #543731",
"V  c #583B35",
"C  c #62232F",
"Z  c #663629",
"A  c #723C2D",
"S  c #793E2E",
"D  c #5B463B",
"F  c #6B492F",
"G  c #6D432F",
"H  c #6C4636",
"J  c #774834",
"K  c #313742",
"L  c #343A46",
"P  c #3B3B44",
"I  c #383E4A",
"U  c #373E4B",
"Y  c #463940",
"T  c #3E434F",
"R  c #3D4554",
"E  c #424345",
"W  c #44454C",
"Q  c #49474F",
"!  c #4C4D4E",
"~  c #424652",
"^  c #434A54",
"/  c #444D5C",
"(  c #4B4D5A",
")  c #584E56",
"_  c #46505F",
"`  c #4D545D",
"'  c #595557",
"]  c #67534F",
"[  c #73544D",
"{  c #665A5D",
"}  c #685D5A",
"|  c #775C55",
" . c #465061",
".. c #4C5462",
"X. c #4F5769",
"o. c #4E596E",
"O. c #525564",
"+. c #545965",
"@. c #5B5D65",
"#. c #545C6C",
"$. c #4E5B72",
"%. c #4C6A6E",
"&. c #55606F",
"*. c #5C626A",
"=. c #5C6272",
"-. c #536179",
";. c #63656D",
":. c #686B6F",
">. c #6B6262",
",. c #616373",
"<. c #656972",
"1. c #6B6F75",
"2. c #616678",
"3. c #64697C",
"4. c #686D7D",
"5. c #767879",
"6. c #853C26",
"7. c #8B3E28",
"8. c #81402C",
"9. c #8F4029",
"0. c #825135",
"q. c #8E7666",
"w. c #957C6B",
"e. c #84797C",
"r. c #AA8D7A",
"t. c #A38775",
"y. c #6C6F80",
"u. c #667189",
"i. c #6C7387",
"p. c #717181",
"a. c #75798C",
"s. c #707B82",
"d. c #727C94",
"f. c #807F86",
"g. c #7F8491",
"h. c #7A859F",
"j. c #779A9E",
"k. c #5DAEA8",
"l. c #72D6CE",
"z. c #868588",
"x. c #8B898D",
"c. c #838599",
"v. c #85899C",
"b. c #8A8B96",
"n. c #8C9499",
"m. c #848CA4",
"M. c #898BA1",
"N. c #8E93AB",
"B. c #9497AF",
"V. c #9499AE",
"C. c #969BB3",
"Z. c #989EB9",
"A. c #9EA2BC",
"S. c #A7A5A9",
"D. c #AEACB0",
"F. c #A0A5B9",
"G. c #BFBAB2",
"H. c #D3BFA9",
"J. c #A3A7C2",
"K. c #A3A8C0",
"L. c #FDF7ED",
"P. c white",
/* pixels */
"P.P.< r.r.< H.H.H.< < < < < < < < < < < < < < H.H.< r.r.r.< P.P.",
"P.< r.r.H.H.< < < | | < | | | < | | | < | | | < < < H.H.r.r.< P.",
"< r.r.H.< < | | | N N < N n 8 + N N N < N N N < | | < < H.r.< < ",
"r.< H.< | | < N N < < < < W v.n.0 < < < < < < | N N | | < < r.r.",
"r.H.< N N N < < < X X X ; h.g.@.W   X X X X X < < < N N N < H.r.",
"H.< < N N < X X X 9.X 6.6 $.~ <.<.{ X 9.9.7.o 9.X X < < < < < H.",
"H.< | < < X X 9.9.9.X A ) < =.( <.V X 9.9.C X 9.7.9.X < | | < = ",
"< N N | < 7.X 9.C 9.X } S.z.+.X.y., X 9.9.C X 7.9.9.X < < N N < ",
"< N N < X 9.X 9.l 9.X W ' x.D.#.^ 1 < 6.9.C X 9.C 9.X X < N N < ",
"N N N < 9.9.X 9.C 9.< ` t I x.S.5.E ` A C C X 9.C 9.X 9.< < < < ",
"< < < X 9.9.X 9.C b ` &.^ K 0 e.x.W ` c C C X C C 9.X 9.C < | | ",
"| | < 9.9.9.X 9.C Y ^  . .U ( w r V.^ z C C   C 9.C X C 7.< N N ",
"N < < < 9.9.X 9.9.' X.L e 9 c.c.6 <.t B 6.C X C 9.C X C 9.< N N ",
"N < l.< < < < < f P K q e d.Z.b.D V 2 1 h { ;.y 1 < X 9.C < N N ",
"< < l.L.l.L.l.< Z P 2 z 3 -.~ H G - 2 2.,.V.K.F.j.= < < 9.< < < ",
"| < l.< < < < % ] #.; 6.& 5 h J 0.c % #.w r M.K.C.%.l.< C < | | ",
"N < < < X X X X m L ; 6.# o & 6 F - +.w > ,.B.Z.m.~ k.< C < N N ",
"N N < X 7.C X 9.k p.` 6.$ < , x c j : o q ..Y / #.R G.< C < N N ",
"< < < 9.9.C X 9.Z b.P 8.>.a.0 x V j   .   % w /  .W + X C < < < ",
"| | = C 9.C X 9.d f.2 A n.F.m.5 - Y P 2 @ 2 U  .L ; X C C < | | ",
"N N < C 9.C X 6.i ! o v n.K.A.e ..N.O.K t / / L O X X C C < N N ",
"N < < < 9.C X p # . - r X.y.v.9 o.m.C.^  .R 0 Z 7.7.X C C < N N ",
"< < l.< = < = o # - - v ` _ / e R u.M.e K 7 O 7.9.9.X C C < < < ",
"| < l.L.l.L.l.= l 6.o S :.1.^ K R y.@.2 > Z X 7.9.9.X C 7.< | | ",
"N < l.< < = < < C 9.X g ^ s.5 * , Q <.1.5.[ < 9.9.9.X C 7.< N N ",
"N < < < X X X X C 9.X > R ( O 9.l 7 P 8 | x.! 6.9.9.X C 9.< N N ",
"N N < 9.9.9.X 9.l 9.X *.&.w   9.Z L :.A 9.9.X C 9.C X C C < < < ",
"< < < X X X X X X X X 2.#.O X   . X.P X X X X X X X X X X < | | ",
"| | < < < < < < < < + a.u.O < < @  ./ + < < < < < < < < < < N N ",
"N N | < r.r.r.r.r.X q.=.#.w.X r.t.y q X r.r.r.r.X r.r.r.r.< N N ",
"N N N | < N N N N < M *.! N < N t D 5.< n N N < N N N N < N N N ",
"< < < < < < < < < < 1 = 5 < < < = 5 X O o < < < < < < < < < < < "
};
