/* XPM */
static char * player_right_xpm[] = {
"40 40 495 2",
"  	c #40264D",
". 	c #41274E",
"+ 	c #42284F",
"@ 	c #3F254C",
"# 	c #492E57",
"$ 	c #5A3D69",
"% 	c #5B3E6A",
"& 	c #533861",
"* 	c #636778",
"= 	c #65697A",
"- 	c #889597",
"; 	c #4D345A",
"> 	c #4A3058",
", 	c #583B67",
"' 	c #5E3F6E",
") 	c #593C68",
"! 	c #7B7F94",
"~ 	c #AFB8CD",
"{ 	c #B0BACF",
"] 	c #A7AEC7",
"^ 	c #BACBD0",
"/ 	c #563F64",
"( 	c #5D3E6E",
"_ 	c #563767",
": 	c #241E30",
"< 	c #667E9B",
"[ 	c #A3A9C4",
"} 	c #848E96",
"| 	c #5C5F70",
"1 	c #646976",
"2 	c #3A4041",
"3 	c #583968",
"4 	c #573868",
"5 	c #22192E",
"6 	c #4F6B88",
"7 	c #354C62",
"8 	c #616576",
"9 	c #808A93",
"0 	c #89959A",
"a 	c #4D4F5E",
"b 	c #553665",
"c 	c #573867",
"d 	c #5E3F6F",
"e 	c #5C3D6D",
"f 	c #553666",
"g 	c #1C0F23",
"h 	c #1A212F",
"i 	c #253545",
"j 	c #99A1BC",
"k 	c #787D90",
"l 	c #8F95AB",
"m 	c #989EB5",
"n 	c #3C2648",
"o 	c #593A6A",
"p 	c #593A69",
"q 	c #706E77",
"r 	c #C3C3CA",
"s 	c #4B4747",
"t 	c #1F2737",
"u 	c #657893",
"v 	c #7A7E93",
"w 	c #4F5260",
"x 	c #6C7082",
"y 	c #513461",
"z 	c #5B3C6C",
"A 	c #362141",
"B 	c #A9A1A0",
"C 	c #CAC7CA",
"D 	c #C0BDC1",
"E 	c #8C8C91",
"F 	c #2E485F",
"G 	c #7487A4",
"H 	c #7F8399",
"I 	c #4E505E",
"J 	c #4D305C",
"K 	c #5D3E6D",
"L 	c #624373",
"M 	c #614271",
"N 	c #372142",
"O 	c #4A545A",
"P 	c #797373",
"Q 	c #D0D1D8",
"R 	c #BFB9BA",
"S 	c #DADAE2",
"T 	c #3E3F42",
"U 	c #647791",
"V 	c #464855",
"W 	c #364045",
"X 	c #4F335F",
"Y 	c #5F406F",
"Z 	c #634473",
"` 	c #392544",
" .	c #4F5C63",
"..	c #364353",
"+.	c #354455",
"@.	c #8F8F94",
"#.	c #B6B5BA",
"$.	c #100C09",
"%.	c #B6B7BD",
"&.	c #3E4D58",
"*.	c #91A8B3",
"=.	c #4D315D",
"-.	c #432F50",
";.	c #889EAA",
">.	c #7D92A0",
",.	c #313C4A",
"'.	c #212835",
").	c #2A3648",
"!.	c #9A9AA0",
"~.	c #D9D8DE",
"{.	c #A09C9E",
"].	c #CDCACF",
"^.	c #000000",
"/.	c #516171",
"(.	c #455259",
"_.	c #41284E",
":.	c #94ACB9",
"<.	c #404F61",
"[.	c #425163",
"}.	c #425164",
"|.	c #171821",
"1.	c #0C0911",
"2.	c #7F706E",
"3.	c #4E4846",
"4.	c #66646C",
"5.	c #A5B3B9",
"6.	c #30373D",
"7.	c #1F2631",
"8.	c #5E6E75",
"9.	c #414E56",
"0.	c #181E2D",
"a.	c #888DA4",
"b.	c #2F0E15",
"c.	c #330E15",
"d.	c #9297B0",
"e.	c #C0CEDC",
"f.	c #2F363C",
"g.	c #67787F",
"h.	c #586A79",
"i.	c #2D3744",
"j.	c #435264",
"k.	c #354253",
"l.	c #252E3D",
"m.	c #383A45",
"n.	c #9EA3BE",
"o.	c #9298B0",
"p.	c #2D0B11",
"q.	c #1E0C14",
"r.	c #B6C1D5",
"s.	c #23272B",
"t.	c #020104",
"u.	c #58676E",
"v.	c #536473",
"w.	c #161720",
"x.	c #030101",
"y.	c #3D3F4A",
"z.	c #A2A8C3",
"A.	c #979BB3",
"B.	c #794C29",
"C.	c #9DA6AA",
"D.	c #252A2F",
"E.	c #8DA4B0",
"F.	c #392345",
"G.	c #4E325E",
"H.	c #4B2F5A",
"I.	c #4C305C",
"J.	c #3A2446",
"K.	c #8FA6B2",
"L.	c #1F2732",
"M.	c #354150",
"N.	c #1B2030",
"O.	c #49627D",
"P.	c #597390",
"Q.	c #A0A7C2",
"R.	c #A0A6C1",
"S.	c #514649",
"T.	c #7C4F2C",
"U.	c #48363C",
"V.	c #0C0F17",
"W.	c #242C3E",
"X.	c #3B3945",
"Y.	c #B0BFC5",
"Z.	c #C8DADF",
"`.	c #BED0D4",
" +	c #37363F",
".+	c #342040",
"++	c #1C2533",
"@+	c #313C4D",
"#+	c #1E2530",
"$+	c #442A51",
"%+	c #2F3344",
"&+	c #506B87",
"*+	c #537290",
"=+	c #374F65",
"-+	c #53150A",
";+	c #D78B35",
">+	c #5D2824",
",+	c #34141B",
"'+	c #1A232F",
")+	c #787F95",
"!+	c #5D6071",
"~+	c #B6C2D3",
"{+	c #A3A9C5",
"]+	c #A2A7C3",
"^+	c #A5ACC6",
"/+	c #BCC9D9",
"(+	c #8D9A9E",
"_+	c #533563",
":+	c #90A7B2",
"<+	c #889FAC",
"[+	c #1D242E",
"}+	c #432A51",
"|+	c #21182B",
"1+	c #3D4B5D",
"2+	c #2D1611",
"3+	c #6D322A",
"4+	c #70312D",
"5+	c #D58A35",
"6+	c #72342D",
"7+	c #5F2B24",
"8+	c #41294F",
"9+	c #4A6580",
"0+	c #9CA2BB",
"a+	c #3C3F4A",
"b+	c #504E5C",
"c+	c #969BB4",
"d+	c #B4BFD2",
"e+	c #696D7C",
"f+	c #523463",
"g+	c #44525F",
"h+	c #242D3D",
"i+	c #432A50",
"j+	c #1F1126",
"k+	c #3D2423",
"l+	c #542F29",
"m+	c #57302A",
"n+	c #602D2A",
"o+	c #E09336",
"p+	c #8D502E",
"q+	c #71352C",
"r+	c #5C6365",
"s+	c #6B767B",
"t+	c #2E2B33",
"u+	c #39171E",
"v+	c #342B33",
"w+	c #A0A6C0",
"x+	c #989EB7",
"y+	c #442B52",
"z+	c #344150",
"A+	c #1B2631",
"B+	c #7C8096",
"C+	c #201227",
"D+	c #180D0F",
"E+	c #1E0E12",
"F+	c #33131A",
"G+	c #5F3A23",
"H+	c #633B29",
"I+	c #734929",
"J+	c #220C15",
"K+	c #484A57",
"L+	c #535665",
"M+	c #300F13",
"N+	c #3D546B",
"O+	c #9095AD",
"P+	c #A4AAC6",
"Q+	c #72768A",
"R+	c #A5ABC6",
"S+	c #949BB4",
"T+	c #445365",
"U+	c #252E39",
"V+	c #B3BDD1",
"W+	c #9FA5BF",
"X+	c #201126",
"Y+	c #0C0000",
"Z+	c #341219",
"`+	c #33141A",
" @	c #673E29",
".@	c #744A29",
"+@	c #31111B",
"@@	c #050100",
"#@	c #2C0D13",
"$@	c #476079",
"%@	c #283A4C",
"&@	c #6D6F81",
"*@	c #30141B",
"=@	c #384657",
"-@	c #405062",
";@	c #34203F",
">@	c #CADBE4",
",@	c #999EB8",
"'@	c #452B53",
")@	c #553766",
"!@	c #555960",
"~@	c #9AA9B2",
"{@	c #475263",
"]@	c #492925",
"^@	c #532F29",
"/@	c #743A2D",
"(@	c #52241E",
"_@	c #0E0404",
":@	c #2B1216",
"<@	c #1E0A0D",
"[@	c #131014",
"}@	c #351B23",
"|@	c #100000",
"1@	c #3E4C5D",
"2@	c #2A2E3D",
"3@	c #CBDCE5",
"4@	c #3B3B48",
"5@	c #4C315B",
"6@	c #4E5869",
"7@	c #47261F",
"8@	c #59312B",
"9@	c #70352D",
"0@	c #2B0E08",
"a@	c #242D39",
"b@	c #180C12",
"c@	c #1F090E",
"d@	c #371218",
"e@	c #414F60",
"f@	c #3F4D5F",
"g@	c #472D55",
"h@	c #3E3F4C",
"i@	c #583969",
"j@	c #3D2749",
"k@	c #C7D9DE",
"l@	c #7D859C",
"m@	c #293644",
"n@	c #462622",
"o@	c #140100",
"p@	c #8B90A7",
"q@	c #979DB6",
"r@	c #384656",
"s@	c #2D2F3A",
"t@	c #30171E",
"u@	c #28333F",
"v@	c #364253",
"w@	c #3B2748",
"x@	c #220000",
"y@	c #AFBFC3",
"z@	c #16090F",
"A@	c #2E1B1B",
"B@	c #72461D",
"C@	c #A1A7C2",
"D@	c #263340",
"E@	c #293848",
"F@	c #8E98B3",
"G@	c #384555",
"H@	c #323D4C",
"I@	c #3F4E5F",
"J@	c #2C3647",
"K@	c #604171",
"L@	c #2F1C39",
"M@	c #3E2612",
"N@	c #130000",
"O@	c #2C1419",
"P@	c #774C2A",
"Q@	c #030206",
"R@	c #6F787C",
"S@	c #A4AAC5",
"T@	c #25313E",
"U@	c #46586D",
"V@	c #557391",
"W@	c #4C5160",
"X@	c #2B3545",
"Y@	c #41294E",
"Z@	c #604170",
"`@	c #331F3E",
" #	c #210D10",
".#	c #230E11",
"+#	c #1C0B0D",
"@#	c #261610",
"##	c #623F21",
"$#	c #3B4B5D",
"%#	c #4D6680",
"&#	c #354B61",
"*#	c #4D5B70",
"=#	c #7B7F93",
"-#	c #181F28",
";#	c #34414F",
">#	c #4A6179",
",#	c #808FAB",
"'#	c #A3A8C4",
")#	c #435365",
"!#	c #374354",
"~#	c #364254",
"{#	c #1C2233",
"]#	c #3C2549",
"^#	c #5A3B6B",
"/#	c #5B3C6B",
"(#	c #211329",
"_#	c #7D5038",
":#	c #492F57",
"<#	c #4E335B",
"[#	c #5A6265",
"}#	c #4F5A64",
"|#	c #405266",
"1#	c #3D5166",
"2#	c #26313F",
"3#	c #49617B",
"4#	c #9499B3",
"5#	c #C4D6DB",
"6#	c #232B3D",
"7#	c #1E2435",
"8#	c #21192D",
"9#	c #3D2649",
"0#	c #4F325E",
"a#	c #4D325C",
"b#	c #C8DBDF",
"c#	c #CBDEE2",
"d#	c #9398B0",
"e#	c #464A58",
"f#	c #20232B",
"g#	c #53718F",
"h#	c #4F6984",
"i#	c #9499B2",
"j#	c #656E72",
"k#	c #1E1F21",
"l#	c #0B0E17",
"m#	c #543665",
"n#	c #26323F",
"o#	c #8196A0",
"p#	c #71838B",
"q#	c #0D111C",
"r#	c #040000",
"s#	c #0E0705",
"t#	c #787D91",
"u#	c #8990A2",
"v#	c #C3D1DF",
"w#	c #A0AFB1",
"x#	c #94A1A5",
"y#	c #3D264A",
"z#	c #1E242F",
"A#	c #425062",
"B#	c #8EA4B0",
"C#	c #503360",
"D#	c #26303D",
"E#	c #1D1D23",
"F#	c #6B6B80",
"G#	c #C0D1D6",
"H#	c #C9DBE2",
"I#	c #B5C6C9",
"J#	c #503860",
"K#	c #1F252D",
"L#	c #293243",
"M#	c #281731",
"N#	c #311D3B",
"O#	c #95969C",
"P#	c #444955",
"Q#	c #483257",
"R#	c #533564",
"S#	c #4F325F",
"T#	c #4A445A",
"U#	c #626A6D",
"V#	c #513860",
"W#	c #8197A2",
"X#	c #8BA1AD",
"Y#	c #607079",
"Z#	c #462C54",
"`#	c #261830",
" $	c #223A52",
".$	c #9D9EA4",
"+$	c #60586A",
"@$	c #8F95AE",
"#$	c #2B3546",
"$$	c #121520",
"%$	c #261A32",
"&$	c #8492AE",
"*$	c #565A6C",
"=$	c #4C305B",
"-$	c #5F7591",
";$	c #3C2548",
">$	c #637A97",
",$	c #40284D",
"'$	c #472E56",
")$	c #344960",
"!$	c #6F7E98",
"~$	c #7C859E",
"{$	c #272F43",
"]$	c #030212",
"^$	c #3B536B",
"/$	c #4A2F58",
"($	c #483C54",
"_$	c #C7DADE",
":$	c #636B6F",
"<$	c #5B3D6A",
"[$	c #93A1A4",
"}$	c #C6D9DD",
"|$	c #687074",
"1$	c #7A7D89",
"2$	c #7D888B",
"3$	c #4F385C",
"4$	c #646D6F",
"5$	c #211428",
"6$	c #3C2847",
"      . + + + + + + + + + + + + + + + + + + + + + + + + + + + + + + + + .       ",
"    @ # $ % % % % % % % % % % & * = - ; % % % % % % % % % % % % % % % $ # @     ",
"  @ > , ' ' ' ' ' ' ' ' ' ' ) ! ~ { ] ^ / ' ' ' ' ' ' ' ' ' ' ' ' ' ' ' , > @   ",
". # , ( _ _ _ _ _ _ _ _ _ _ : < [ } | 1 2 _ _ _ _ _ _ _ _ _ _ _ _ _ _ _ ( , # . ",
"+ $ ' _ _ _ 3 4 _ _ _ _ _ _ 5 6 7 8 9 0 0 a b _ _ _ _ _ _ _ _ _ _ _ _ _ _ ' $ + ",
"+ % ' _ _ c d e _ _ _ _ _ f g h i j k l m n _ _ _ _ _ _ _ _ _ _ _ _ _ _ _ ' % + ",
"+ % ' _ _ _ o p _ _ _ _ _ q r s t u v w x y _ _ _ _ _ _ _ _ _ ( z _ _ _ _ ' % + ",
"+ % ' _ _ _ _ _ _ _ _ _ A B C D E F G H I J _ _ _ _ _ _ _ 4 K L M z _ _ _ ' % + ",
"+ % ' _ _ _ _ _ _ _ _ _ N O P Q R S T U V W X _ _ _ _ _ _ 3 Y Z L ( _ _ _ ' % + ",
"+ % ' _ _ _ _ _ _ _ _ _ `  ...+.@.R #.$.%.&.*.=._ _ _ _ _ _ 4 Y K _ _ _ _ ' % + ",
"+ % ' _ _ _ _ _ _ _ _ -.;.>.,.'.).!.~.{.].^./.(._ _ _ _ _ _ _ 3 4 _ _ _ _ ' % + ",
"+ % ' _ _ _ _ _ _ _ _.:.<.[.[.}.|.1.2.3.4.5.6.7._ _ _ _ _ _ _ _ _ _ _ _ _ ' % + ",
"+ % ' _ _ _ _ _ _ _ 8.9.[.[.[.[.0.a.b.c.d.e.f.7._ _ _ _ _ _ _ _ _ _ _ _ _ ' % + ",
"+ % ' _ _ _ _ _ _ _ g.h.i.j.k.l.m.n.o.p.q.r.s.t._ _ _ _ _ _ _ _ _ _ _ _ _ ' % + ",
"+ % ' _ _ _ _ _ _ _ u.v.j.w.x.y.z.[ [ A.B.C.D.E.F._ G.H.I._ _ _ _ _ _ _ _ ' % + ",
"+ % ' _ _ _ _ _ _ J.K.L.M.N.O.P.Q.Q.R.S.T.U.V.W.F.X.Y.Z.`. +f _ _ _ _ _ _ ' % + ",
"+ % ' _ _ _ _ _ _ .+++@+#+$+%+&+*+=+-+;+>+,+'+)+!+~+{+]+^+/+(+b _ _ _ _ _ ' % + ",
"+ % ' _ _ _ _ _ _+:+<+[+}+_ |+1+2+3+4+5+6+7+8+9+0+a+b+c+[ [ d+e+f+_ _ _ _ ' % + ",
"+ % ' _ _ _ _ _ _+g+[.h+i+_ j+k+l+m+n+o+p+q+r+s+t+u+v+w+[ [ [ x+y+_ _ _ _ ' % + ",
"+ % ' _ _ _ _ _ _+z+A+B+i+_ C+D+E+F+G+H+I+J+K+L+M+N+O+P+Q+R+S+T+U+_ _ _ _ ' % + ",
"+ % ' _ _ _ _ _ _ .+V+W+i+_ X+Y+Z+`+G+ @.@+@@@#@^.$@%@&@*@=@-@[.U+_ _ _ _ ' % + ",
"+ % ' _ _ _ _ _ _ ;@>@,@'@)@!@~@{@]@^@/@q+(@_@:@<@[@}@|@1@[.[.[.2@_ _ _ _ ' % + ",
"+ % ' _ _ _ _ _ _ ;@3@4@_ 5@Z.]+R.6@7@8@9@0@^.^.a@b@c@d@e@[.[.f@g@_ _ _ _ ' % + ",
"+ % ' _ _ _ _ _ _ .+3@h@i@j@k@]+[ l@m@n@o@p@q@r@s@t@u@z+[.[.v@w@i@_ _ _ _ ' % + ",
"+ % ' _ _ _ _ _ _+x@y@z@A@B@k@]+[ C@D@E@F@[ c+G@H@I@[.[.[.J@J.K@( _ _ _ _ ' % + ",
"+ % ' _ _ _ _ _ L@M@N@O@P@Q@R@S@[ C@T@U@V@S@R.W@j.[.[.[.X@Y@Z@Z ( _ _ _ _ ' % + ",
"+ % ' _ _ _ _ `@ #.#+#@###$#%#&#*#=#-#;#>#,#'#L+)#!#~#{#]#4 ^#/#i@_ _ _ _ ' % + ",
"+ % ' _ _ _ _ # (#g@)@_#:#<#[#}#|#&+1#2#3#4#5#^.6#7#8#9#_ _ _ _ _ _ _ _ _ ' % + ",
"+ % ' _ _ _ _ _ _ _ _ 0#_ a#b#c#d#e#f#g#h#i#j#k#l#H.m#_ _ _ _ _ _ _ _ _ _ ' % + ",
"+ % ' _ _ _ _ _ _ _ _ _ _ H.n#o#p#G.q#r#s#t#u#v#w#x#y## _ _ _ _ _ _ _ _ _ ' % + ",
"+ % ' _ _ _ _ _ _ _ _ _ _ z#A#[.B#C#)@)@f D#1@E#F#G#H#I#J#_ _ _ _ _ _ _ _ ' % + ",
"+ % ' _ _ _ _ _ _ _ _ _ _ K#L#}.M#_ _ _ N#O#P#Q#R#S#T#U#V#_ _ _ _ _ _ _ _ ' % + ",
"+ % ' _ _ _ _ _ _ _ _ _ A W#X#Y#Z#_ _ _ `# $.$+$_ _ _ _ _ _ _ _ _ _ _ _ _ ' % + ",
"+ % ' _ _ _ _ _ _ _ _ _ N @$#$$$_ _ _ _ %$&$*$=$_ _ _ _ _ _ _ _ _ _ _ _ _ ' % + ",
"+ % Y 4 _ _ _ _ _ _ _ _ N C@-$;$_ _ _ _ %$,#c+=$_ _ _ _ _ _ _ _ _ _ _ _ _ ' % + ",
"+ $ Z Y 4 _ _ _ _ _ _ _ N S@>$,$_ _ _ _ '$)$!$=$_ _ _ _ _ _ _ _ _ _ _ _ _ ' $ + ",
". # $ Z Y 4 _ _ _ _ _ _ N ~${$_ _ _ _ _ )@]$^$I._ _ _ _ _ _ _ _ _ _ _ _ ( , # . ",
"  @ /$$ Z Y ' ' ' ' ' ' ($_$:$' ' ' ' ' <$[$}$|$K ' ' ' ' ' ' ' ' ' ' ' , > @   ",
"    @ # $ % % % % % % % 1$^.2$% % % % % 3$4$^.^.5$6$% % % % % % % % % $ # @     ",
"      . + + + + + + + + + + + + + + + + + + + + + + + + + + + + + + + + .       "};
