/* XPM */
static char *ee18783de04d45f095f5f4ad7db1d335qLjlVUQ9IHgruL2x[] = {
/* columns rows colors chars-per-pixel */
"32 32 113 2 ",
"   c #222222",
".  c #232122",
"X  c #232323",
"o  c #2A2927",
"O  c #3F3534",
"+  c #2B2A28",
"@  c #3E3634",
"#  c #493B3A",
"$  c #4A3C3B",
"%  c #3E3433",
"&  c #222220",
"*  c #212322",
"=  c #242422",
"-  c #272725",
";  c #292826",
":  c #332E2B",
">  c #403635",
",  c #413535",
"<  c #483A39",
"1  c #4A3A3A",
"2  c #332D2D",
"3  c #2E2A29",
"4  c #342F2C",
"5  c #38302E",
"6  c gray13",
"7  c #282725",
"8  c #473938",
"9  c #413634",
"0  c #463B39",
"q  c #594743",
"w  c #624D48",
"e  c #493B3B",
"r  c #554341",
"t  c #6B544E",
"y  c #775C55",
"u  c #483D3B",
"i  c #483A37",
"p  c #4B3D3C",
"a  c #514141",
"s  c #51423F",
"d  c #604D47",
"f  c #473C3A",
"g  c #785B55",
"h  c #403533",
"j  c #574543",
"k  c #5F4C46",
"l  c #433836",
"z  c #4E403F",
"x  c #4B3D3A",
"c  c #493B38",
"v  c #403434",
"b  c #614E48",
"n  c #69554E",
"m  c #69554C",
"M  c #5D4A44",
"N  c #443838",
"B  c #3B3331",
"V  c #5C4B44",
"C  c #524340",
"Z  c #5B4945",
"A  c #53443F",
"S  c #3A3230",
"D  c #25131A",
"F  c #50413E",
"G  c #423434",
"H  c #372F2D",
"J  c #2F2B2A",
"K  c gray7",
"L  c #272823",
"P  c #44504F",
"I  c #222224",
"U  c #252523",
"Y  c #313B35",
"T  c #606E6D",
"R  c black",
"E  c #50423F",
"W  c #433534",
"Q  c #55433F",
"!  c #BC4C51",
"~  c #CDD5D0",
"^  c #5E4B45",
"/  c #584644",
"(  c #564241",
")  c #453A38",
"_  c #624E47",
"`  c #66524B",
"'  c #715853",
"]  c #382F30",
"[  c #463B37",
"{  c #423636",
"}  c #2A2829",
"|  c #9A8571",
" . c #64594F",
".. c #483A3A",
"X. c #3F3536",
"o. c #E6A353",
"O. c #222021",
"+. c #2C2827",
"@. c #564442",
"#. c #4F4140",
"$. c #6C554F",
"%. c #3E3432",
"&. c #4D3F3C",
"*. c #534441",
"=. c #5D4A46",
"-. c #6F5651",
";. c #664E4A",
":. c #6A534D",
">. c #6D5650",
",. c #755A53",
"<. c #775B57",
"1. c #785D56",
"2. c #544240",
/* pixels */
"      . X o O O +             o @ # $ # # % o o O O o &       * ",
"X = - ; o : > , : o o o o o o : , < # 1 # , : : , , 2 o o 3 4 5 ",
"6 7 5 O O , 8 8 9 O O O O O O 9 8 # # 1 # 8 , , < 8 , O O 0 q w ",
"o : , # e # # # # # # < # # # < # # # # # # # # # # # # # r t y ",
"O , 8 # # # # # # # # # # # < # # # # # # # # # # # # # # r t y ",
"# < < # # # # # # # # # # # # # # # # # # # # # # # # # # r t y ",
"# # # # # # # # # # # # $ $ # # # # # # 1 # # # # u # i < r t y ",
"O , 8 # $ # # p a a p < $ # 1 1 # # # # # # # # # $ # # e r t y ",
"o : , # # # # s w d s # # e # # < # # # # # # # # f f # $ r t g ",
"o : h p s r r j k q 0 l z s x # # # # # # # f # e f # c # r t y ",
"v , 8 a b n m M N 4 3 B V b C # # # # $ # c c # # # # # # r t y ",
"O , 8 z Z w w A S o o S A D D D D D D D D # # # # # # # # F b t ",
"o : G l B 5 H S % O O % S D D D D D D D D f # # # # # # # p s r ",
"  7 5 S J o o : , # # , D K K K K K K K K D D # # # # # e p s r ",
"  = L J S O O , 8 # D D K K K K K K K P K D D # # # $ # # s b t ",
"I U 7 2 , # # # # # K K K P P Y Y T T Y Y R R D p # # # # E b t ",
"  7 5 W 8 # # # # # K K K P P Y Y T T Y Y R R D E # # # # p E Q ",
"o : , # # # # # # ! K K P T T Y ~ T T Y ~ D D ^ / r ( r r r r r ",
"O , < # # # # < K K ! ! P T T P P T T P P D D ) ^ t t t t t t t ",
"# # # # # # f # K K ! ! P T T P P T T P P D D S A w w w _ ` ' y ",
"# # # # # # f # # # # # D P P T T T T T T D D % S ] 5 5 5 [ ` y ",
"> { 8 < $ $ # # 1 # D D D D D D ~ D D D ~ D D , : o o o } B Z t ",
"o : , # # # # # # D | |  .| | | | | | | |  . .D , O O O O l z r ",
"  o @ # # # $ # # D | |  .| | | | | | | |  . .D # # # # $ [ < ..",
"  o X.# # $ # # c D  . .| | | | D o.o.D |  . .D $ # # # # # # # ",
"O.+.O # # # $ # f D D D D D D D D D D D D D D D # # $ # # p s @.",
"  + O # # # # # e s D D  . . . . .D D  . .D D 1 # # # # # s b t ",
"  o O # # # # # # #.D D  . . . . .D D  . .D D # 1 # # # # r t y ",
"  o O # # # # # # l D D |  . .| | D D |  .D D # # # # # # r $.y ",
"5 %.&.*.r s p p s D | |  .| | | D D D D  .D D p s r r r r =.-.y ",
"w ;.:.t t b s s b D | |  .| | | D D D D  .D D s b t t t t >.,.y ",
"<.g y y y t r r t y y t r @.t g 1.g y y y t 2.r t y y y y 1.g y "
};
