/* XPM */
static char * vampire_xpm[] = {
"40 40 50 1",
" 	c #40264D",
".	c #41274E",
"+	c #42284F",
"@	c #3F254C",
"#	c #492E57",
"$	c #5A3D69",
"%	c #5B3E6A",
"&	c #4D4F5A",
"*	c #4A3058",
"=	c #583B67",
"-	c #5E3F6E",
";	c #303138",
">	c #41424A",
",	c #5D3E6E",
"'	c #563767",
")	c #2B3B18",
"!	c #53732C",
"~	c #583968",
"{	c #573868",
"]	c #573867",
"^	c #5E3F6F",
"/	c #5C3D6D",
"(	c #593A6A",
"_	c #593A69",
":	c #5B3C6C",
"<	c #624373",
"[	c #614271",
"}	c #ECFF00",
"|	c #634473",
"1	c #5F406F",
"2	c #5D3E6D",
"3	c #884931",
"4	c #1D290E",
"5	c #C9DBB4",
"6	c #6A331E",
"7	c #BBC29C",
"8	c #3F1C0E",
"9	c #919970",
"0	c #D4D4D4",
"a	c #908C8C",
"b	c #583969",
"c	c #28292D",
"d	c #5B3C6B",
"e	c #5C3E6C",
"f	c #563A64",
"g	c #452C51",
"h	c #553963",
"i	c #41294D",
"j	c #51365F",
"k	c #4A2F58",
"   .++++++++++++++++++++++++++++++++.   ",
"  @#$%%%%%%%%%%%%%%%%%&%%%%%%%%%%%%$#@  ",
" @*=------------------;>>-----------=*@ ",
".#=,'''''''''')!''''''';>''''''''''',=#.",
"+$-'''~{''''''))!!!'''';;>''''!''''''-$+",
"+%-'']^/''''''')))!!!''!;;!'''!''''''-%+",
"+%-'''(_'''''''')))!!)!!!!!!'!),:''''-%+",
"+%-'''''''''''''')))!!)!!!!!)!)<[:'''-%+",
"+%-''''''''''''''')))!)}})!}!))|<,'''-%+",
"+%-''''''''''''''''))))}}))})){12''''-%+",
"+%-'''''''''''''''''))))!!))))'~{''''-%+",
"+%-'''''''''''''''33)4)))!!!)''''''''-%+",
"+%-'''''''''''!!!!!))454))!!'''''''''-%+",
"+%-'''''''''!!!)))))3)44)))!'''''''''-%+",
"+%-''''''''!!)))))))6))54)))'''''''''-%+",
"+%-'''''''7!))''''6633))454)6!'''''''-%+",
"+%-''88''779)'''''63333)>>)6!)'''''''-%+",
"+%-''8887799'''''''33333>;6!))'''''''-%+",
"+%-'''!!!9'''''''''33366;6!))''''''''-%+",
"+%-''')!!!)'''''''''66666!))'''''''''-%+",
"+%-''''))))'''''''>>8888!!)>>''''''''-%+",
"+%-''''))80'''''>>>>66!!!)>>>>'''''''-%+",
"+%-'''''8a0''b2{>>>cc3!))6>>>>>''''''-%+",
"+%-'''''0aa0bd$>>>>ccc!))6c>>>>>b''''-%+",
"+%-''''''0a0efg>>>cccc3336c>>>>>>''''-%+",
"+%-'''''''0ahi>>>ccccc'366cc>>>>>>'''-%+",
"+%-''''''''0aj>>cccccc'3666ccc>>cc'''-%+",
"+%-'''''''''0a>>ccccc'''666'cccccc'''-%+",
"+%-''''''''''0>3cccc'''''66'666666'''-%+",
"+%-'''''''''''336c'''''''6''66663''''-%+",
"+%-'''''''''''3366''''''''''66633''''-%+",
"+%-'''''''''''3366'''''''''''6633''''-%+",
"+%-'''''''''''3366'''''''''''6333''''-%+",
"+%-'''''''''''3366'''''''''''6333''''-%+",
"+%1{''''''''''336''''''''''''633'''''-%+",
"+$|1{'''''''''366''''''''''''6633''''-$+",
".#$|1{''''''33366''''''''''''66666'',=#.",
" @k$|1-----333666--------------6666-=*@ ",
"  @#$%%%%%%%%%%%%%%%%%%%%%%%%%%%%%%$#@  ",
"   .++++++++++++++++++++++++++++++++.   "};
