/* XPM */
static char *b9406fd9a72e43f8abca4012fbcc1f3aix7TUBpvS3YAHlf2[] = {
/* columns rows colors chars-per-pixel */
"32 32 52 1 ",
"  c #1F2020",
". c #202121",
"X c #222222",
"o c #242323",
"O c #262424",
"+ c #262524",
"@ c #272525",
"# c #282626",
"$ c #2A2727",
"% c #2A2827",
"& c #2B2828",
"* c #2D2929",
"= c #2F2B2A",
"- c #302B2A",
"; c #322D2B",
": c #322D2C",
"> c #352F2D",
", c #37302F",
"< c #38312F",
"1 c #373030",
"2 c #383030",
"3 c #3E3433",
"4 c #3E3434",
"5 c #403535",
"6 c #413736",
"7 c #443837",
"8 c #473B39",
"9 c #473B3A",
"0 c #483B3A",
"q c #493C3B",
"w c #4B3D3C",
"e c #4F403E",
"r c #52433F",
"t c #53433F",
"y c #544341",
"u c #544440",
"i c #554441",
"p c #594743",
"a c #5A4844",
"s c #5B4945",
"d c #5D4A46",
"f c #634E49",
"g c #644F4A",
"h c #65504A",
"j c #66504B",
"k c #6C544F",
"l c #6E5650",
"z c #6F5650",
"x c #6F5751",
"c c #705751",
"v c #785D56",
"b c #7A5E57",
/* pixels */
"vvvf>>fvvvvvvvvvvf>>fvvvvf>>fvvv",
"kllp::alkkkkkkkkca;;alllla;;pkkx",
"yii9**0yiiiyiiuyi0**8iiiyq**9iii",
"0004$$409q44999904$$4q8861$$4009",
"qqq4$O4wq6;;6q99q4%O4qq6:OX%4qq0",
"344,$O>662O$<4444<$O,44,O  $<443",
"%O%$XX$O%OXX$O$&$OXXO%&%XX XOO$$",
"2:OO;22:OO;<2>:1,,2,2;OO;,,12,,,",
"hr;*ihhu=;rhhfffgffhfu;=rhhhfhff",
"cd3,dxxa::axxlllllllla;:axlckllk",
"ie77eii8**8iiiiiuuiiiq**qiiiiiui",
"8qqqq8q4%#4q99989988q4%&38649009",
"8qqqqq84#*3qqq880000q3%&64-;6900",
"3334333,O#,4437444443,OO>>$O1655",
"O%%O%O&OXX#O#%*#$$$$%OXX$OXXO$$$",
"21,,,,,,,,,,,;OO:>11,22>12,;$ XX",
"ffggfhhhffhffu;=rfhfffffffhi:X X",
"llllkkkxlllllp;,plllllllllld:oO$",
"uuuiiiuiyyiiyq**qiyiiiiiiyi0*$26",
"999888439q00q4O*4000999q90q4$$6q",
"9999q7;,40q0q4$O4qqq8q88qqq3O&6q",
"444542OO,3443>$O24443433333,$O24",
"$$$$%OXXO$$$$$XoO%$O*%%$O&$+XX$O",
">>2-OO;,,,,1><><2,,;OO;,,1,,,,11",
"fffu--rhfhffffhffffr;*uhhfffffff",
"lcca:;dccklkclkklccp;;alxkllllll",
"yyi0**9yiiyryyyyyau9**quiuiiiiui",
"00q4*$30000000095596$$4874889999",
"00q4O$4q00000006:-65&%47=;4q9090",
"3462$O,66463455>@$22$O12$$266444",
"%*$O+X$%$$$$$$$$XX$$XO$OX+$O&O$*",
"XX XXXXX XoXXX XXXXXXXXXXXXXXXXX"
};
