/* XPM */
static char * wall_xpm[] = {
"40 40 547 2",
"  	c #452C51",
". 	c #776283",
"+ 	c #6E5879",
"@ 	c #42294F",
"# 	c #41274E",
"$ 	c #442B51",
"% 	c #41284E",
"& 	c #42294E",
"* 	c #41274D",
"= 	c #452D52",
"- 	c #483653",
"; 	c #6F5C7A",
"> 	c #816B8D",
", 	c #695475",
"' 	c #4E375A",
") 	c #715C7D",
"! 	c #786283",
"~ 	c #5F4A6B",
"{ 	c #553F61",
"] 	c #766081",
"^ 	c #4C3857",
"/ 	c #594862",
"( 	c #584761",
"_ 	c #483254",
": 	c #604A6C",
"< 	c #786383",
"[ 	c #816C8D",
"} 	c #826D8D",
"| 	c #6A5674",
"1 	c #4E385A",
"2 	c #715E7C",
"3 	c #786582",
"4 	c #786482",
"5 	c #604B6A",
"6 	c #554061",
"7 	c #766381",
"8 	c #564161",
"9 	c #523F5C",
"0 	c #63536B",
"a 	c #61516A",
"b 	c #4C3757",
"c 	c #604C6B",
"d 	c #796583",
"e 	c #846F90",
"f 	c #897395",
"g 	c #776183",
"h 	c #756280",
"i 	c #52415C",
"j 	c #473153",
"k 	c #5E4D66",
"l 	c #62536A",
"m 	c #62526A",
"n 	c #53405C",
"o 	c #493454",
"p 	c #5A4A62",
"q 	c #5A4B63",
"r 	c #53405D",
"s 	c #615169",
"t 	c #4E3B58",
"u 	c #5B4B63",
"v 	c #5C4C64",
"w 	c #705D7A",
"x 	c #826C8D",
"y 	c #695674",
"z 	c #44304F",
"A 	c #452E51",
"B 	c #5A4963",
"C 	c #5E4E67",
"D 	c #503D5B",
"E 	c #422B4E",
"F 	c #473651",
"G 	c #473652",
"H 	c #5E4E66",
"I 	c #5D4C66",
"J 	c #4B3556",
"K 	c #432E4F",
"L 	c #483752",
"M 	c #493953",
"N 	c #6B5775",
"O 	c #4D3759",
"P 	c #452E52",
"Q 	c #462D52",
"R 	c #4A3355",
"S 	c #4A3456",
"T 	c #493355",
"U 	c #463052",
"V 	c #483253",
"W 	c #452D51",
"X 	c #422A4F",
"Y 	c #432B4F",
"Z 	c #422A4E",
"` 	c #422B4F",
" .	c #462E52",
"..	c #483054",
"+.	c #473052",
"@.	c #442C50",
"#.	c #4F3C5A",
"$.	c #432A50",
"%.	c #473053",
"&.	c #56445F",
"*.	c #756081",
"=.	c #594762",
"-.	c #6B5676",
";.	c #796484",
">.	c #786284",
",.	c #816D8D",
"'.	c #6A5775",
").	c #766280",
"!.	c #52405C",
"~.	c #63546B",
"{.	c #5F4E67",
"].	c #6A5675",
"^.	c #75627F",
"/.	c #53415C",
"(.	c #584760",
"_.	c #462F52",
":.	c #453150",
"<.	c #503C5A",
"[.	c #4A3555",
"}.	c #5D4C65",
"|.	c #463451",
"1.	c #41294E",
"2.	c #453250",
"3.	c #442D50",
"4.	c #473054",
"5.	c #462F53",
"6.	c #412A4E",
"7.	c #432C50",
"8.	c #493754",
"9.	c #786384",
"0.	c #5F496B",
"a.	c #553E61",
"b.	c #8A7496",
"c.	c #5A4862",
"d.	c #432B50",
"e.	c #766082",
"f.	c #806B8B",
"g.	c #776381",
"h.	c #5D4D65",
"i.	c #615269",
"j.	c #513E5B",
"k.	c #543F60",
"l.	c #75617F",
"m.	c #695573",
"n.	c #806B8C",
"o.	c #745E81",
"p.	c #725E7D",
"q.	c #57485F",
"r.	c #584860",
"s.	c #503F5A",
"t.	c #442F51",
"u.	c #5B4B64",
"v.	c #605068",
"w.	c #5F4F67",
"x.	c #605067",
"y.	c #503D5A",
"z.	c #493554",
"A.	c #442F50",
"B.	c #503E58",
"C.	c #725E7C",
"D.	c #41294F",
"E.	c #6E587A",
"F.	c #665272",
"G.	c #44344E",
"H.	c #45344F",
"I.	c #422F4D",
"J.	c #422C4F",
"K.	c #574660",
"L.	c #4D3A58",
"M.	c #473353",
"N.	c #5B4A63",
"O.	c #57465F",
"P.	c #422C4E",
"Q.	c #42304C",
"R.	c #675372",
"S.	c #3E254C",
"T.	c #4A3458",
"U.	c #3F284C",
"V.	c #422B50",
"W.	c #463053",
"X.	c #473253",
"Y.	c #452F51",
"Z.	c #432E50",
"`.	c #412B4E",
" +	c #40294E",
".+	c #442E51",
"++	c #442E50",
"@+	c #453051",
"#+	c #463450",
"$+	c #4C3957",
"%+	c #4A3457",
"&+	c #3F274C",
"*+	c #624E6F",
"=+	c #705C7D",
"-+	c #483255",
";+	c #6A5576",
">+	c #705B7D",
",+	c #6F5B7C",
"'+	c #6F5A7C",
")+	c #594466",
"!+	c #52425B",
"~+	c #53435C",
"{+	c #6E597A",
"]+	c #4F3A5C",
"^+	c #463251",
"/+	c #5D4B67",
"(+	c #6E5A7B",
"_+	c #6F5A7B",
":+	c #6F5B7B",
"<+	c #705C7C",
"[+	c #40284C",
"}+	c #705B7C",
"|+	c #796685",
"1+	c #62506D",
"2+	c #483354",
"3+	c #6A5875",
"4+	c #705E7B",
"5+	c #594765",
"6+	c #463351",
"7+	c #5A4C62",
"8+	c #5C4E63",
"9+	c #6E5C79",
"0+	c #4F3C5B",
"a+	c #4C3A55",
"b+	c #63526B",
"c+	c #6F5C79",
"d+	c #6F5D7B",
"e+	c #7A6686",
"f+	c #806B8D",
"g+	c #52435B",
"h+	c #412C4D",
"i+	c #51425A",
"j+	c #55465D",
"k+	c #54465C",
"l+	c #54465D",
"m+	c #483652",
"n+	c #473351",
"o+	c #5B4D63",
"p+	c #53455C",
"q+	c #4D3B57",
"r+	c #5D4D63",
"s+	c #5C4C63",
"t+	c #5C4D64",
"u+	c #6D5B78",
"v+	c #7B6787",
"w+	c #3E274B",
"x+	c #695575",
"y+	c #6A5874",
"z+	c #4F3F58",
"A+	c #3D2749",
"B+	c #41304B",
"C+	c #43324C",
"D+	c #42324C",
"E+	c #3E2A49",
"F+	c #44314F",
"G+	c #56475E",
"H+	c #3D2748",
"I+	c #4B3854",
"J+	c #58485F",
"K+	c #57475F",
"L+	c #56485F",
"M+	c #574960",
"N+	c #382144",
"O+	c #443150",
"P+	c #3E2B49",
"Q+	c #392445",
"R+	c #392545",
"S+	c #3A2645",
"T+	c #392544",
"U+	c #392444",
"V+	c #3C2847",
"W+	c #3C2848",
"X+	c #3B2747",
"Y+	c #3D2848",
"Z+	c #402E4B",
"`+	c #412E4C",
" @	c #3F2C4A",
".@	c #402E4C",
"+@	c #3A2545",
"@@	c #392344",
"#@	c #3C2747",
"$@	c #3F2B49",
"%@	c #3D2A48",
"&@	c #42334C",
"*@	c #473752",
"=@	c #443050",
"-@	c #5B4868",
";@	c #685575",
">@	c #604E6C",
",@	c #4E3E56",
"'@	c #4D3D54",
")@	c #4D3D55",
"!@	c #46354E",
"~@	c #412D4D",
"{@	c #624F6F",
"]@	c #685475",
"^@	c #675475",
"/@	c #523F5E",
"(@	c #493555",
"_@	c #665373",
":@	c #493655",
"<@	c #412F4A",
"[@	c #4D3E55",
"}@	c #4C3D54",
"|@	c #493951",
"1@	c #3C2746",
"2@	c #5B4867",
"3@	c #3A2646",
"4@	c #685576",
"5@	c #796587",
"6@	c #6F5C7B",
"7@	c #58485E",
"8@	c #56475C",
"9@	c #57485C",
"0@	c #422E4D",
"a@	c #63516E",
"b@	c #695774",
"c@	c #685673",
"d@	c #695773",
"e@	c #53415D",
"f@	c #4A3754",
"g@	c #675572",
"h@	c #4A3755",
"i@	c #47364F",
"j@	c #55475C",
"k@	c #514258",
"l@	c #675374",
"m@	c #786486",
"n@	c #6F5C7D",
"o@	c #61506C",
"p@	c #4F4055",
"q@	c #4D3F54",
"r@	c #4E3F54",
"s@	c #4E4054",
"t@	c #47374E",
"u@	c #3B2846",
"v@	c #4F4156",
"w@	c #534559",
"x@	c #45354E",
"y@	c #3D2B47",
"z@	c #4C3E53",
"A@	c #4D3F53",
"B@	c #53455A",
"C@	c #4F4056",
"D@	c #3D2A47",
"E@	c #5D4B69",
"F@	c #715E7E",
"G@	c #352141",
"H@	c #5B4969",
"I@	c #564562",
"J@	c #3A2C42",
"K@	c #392B41",
"L@	c #382B41",
"M@	c #36263F",
"N@	c #362341",
"O@	c #483A50",
"P@	c #4B3E52",
"Q@	c #4B3D52",
"R@	c #3F3049",
"S@	c #33213E",
"T@	c #382A41",
"U@	c #3F3048",
"V@	c #4A3D51",
"W@	c #4A3D52",
"X@	c #47394F",
"Y@	c #372440",
"Z@	c #44354C",
"`@	c #5C4C68",
" #	c #5B4A6A",
".#	c #362142",
"+#	c #321D3E",
"@#	c #3D2A49",
"##	c #3C2A48",
"$#	c #342240",
"%#	c #331F3E",
"&#	c #352341",
"*#	c #362342",
"=#	c #362241",
"-#	c #362242",
";#	c #392744",
">#	c #3A2845",
",#	c #382643",
"'#	c #372441",
")#	c #382642",
"!#	c #352240",
"~#	c #33213F",
"{#	c #321F3E",
"]#	c #34213F",
"^#	c #352241",
"/#	c #372543",
"(#	c #372542",
"_#	c #362240",
":#	c #3A2C43",
"<#	c #40304A",
"[#	c #3D2A4A",
"}#	c #331D3F",
"|#	c #342040",
"1#	c #544262",
"2#	c #614E70",
"3#	c #5B4869",
"4#	c #604E6F",
"5#	c #604D6F",
"6#	c #604D6E",
"7#	c #4C3A59",
"8#	c #46374E",
"9#	c #46384E",
"0#	c #46384F",
"a#	c #4C3A5A",
"b#	c #5E4C6D",
"c#	c #43304F",
"d#	c #4B3958",
"e#	c #5F4D6E",
"f#	c #5F4D6D",
"g#	c #5E4D6D",
"h#	c #5E4C6C",
"i#	c #5F4E6E",
"j#	c #544362",
"k#	c #352041",
"l#	c #33203E",
"m#	c #5D4B6C",
"n#	c #655474",
"o#	c #52425E",
"p#	c #3B2946",
"q#	c #594965",
"r#	c #5E4E6A",
"s#	c #4A3A56",
"t#	c #392942",
"u#	c #4A3E51",
"v#	c #4B3F52",
"w#	c #5C4D68",
"x#	c #41304C",
"y#	c #493A54",
"z#	c #5D4E69",
"A#	c #5D4D69",
"B#	c #5C4D69",
"C#	c #635273",
"D#	c #69577A",
"E#	c #34203F",
"F#	c #2F1C3A",
"G#	c #4D3E5C",
"H#	c #4E415A",
"I#	c #3B2F42",
"J#	c #31203A",
"K#	c #3F3345",
"L#	c #413747",
"M#	c #413647",
"N#	c #372A3F",
"O#	c #36273F",
"P#	c #463B4C",
"Q#	c #473C4D",
"R#	c #413547",
"S#	c #33243C",
"T#	c #37293F",
"U#	c #413646",
"V#	c #403546",
"W#	c #52435F",
"X#	c #605071",
"Y#	c #584768",
"Z#	c #321E3C",
"`#	c #2C1A37",
" $	c #32243B",
".$	c #34283C",
"+$	c #312339",
"@$	c #2D1C37",
"#$	c #32253A",
"$$	c #33263A",
"%$	c #2F1F38",
"&$	c #34253D",
"*$	c #43374A",
"=$	c #44384A",
"-$	c #2E1D38",
";$	c #2F2038",
">$	c #332639",
",$	c #322539",
"'$	c #3E3245",
")$	c #534460",
"!$	c #534363",
"~$	c #311D3B",
"{$	c #2F1D3A",
"]$	c #301E3B",
"^$	c #301F3B",
"/$	c #2F1D3B",
"($	c #2F1E3A",
"_$	c #2E1C38",
":$	c #301E3A",
"<$	c #2F1E3B",
"[$	c #301F3C",
"}$	c #33233E",
"|$	c #34243E",
"1$	c #32223C",
"2$	c #2F1D39",
"3$	c #311F3B",
"4$	c #301D3B",
"5$	c #301F3A",
"6$	c #2F1F3A",
"7$	c #34263D",
"8$	c #392A44",
"9$	c #392745",
"0$	c #504061",
"a$	c #504161",
"b$	c #514162",
"c$	c #473856",
"d$	c #362840",
"e$	c #4C3D5D",
"f$	c #504062",
"g$	c #41324E",
"h$	c #3A2C46",
"i$	c #4F3F60",
"j$	c #504162",
"k$	c #514061",
"l$	c #514161",
"m$	c #524262",
"n$	c #534364",
"o$	c #5B4B6E",
"p$	c #544563",
"q$	c #50425D",
"r$	c #50425E",
"s$	c #51435E",
"t$	c #473A53",
"u$	c #362A3F",
"v$	c #4C3F59",
"w$	c #51425E",
"x$	c #41344C",
"y$	c #3B2E44",
"z$	c #4F415D",
"A$	c #51435F",
"B$	c #574866",
"C$	c #5E4E71",
"D$	c #5A4A6D",
"E$	c #473A52",
"F$	c #3B2F40",
"G$	c #3C3041",
"H$	c #382C3D",
"I$	c #312537",
"J$	c #3A2E3F",
"K$	c #35293B",
"L$	c #322739",
"M$	c #493C55",
"N$	c #5D4D70",
"O$	c #5A4A6C",
"P$	c #40334C",
"Q$	c #2D2234",
"R$	c #2F2336",
"S$	c #2E2235",
"T$	c #2E2335",
"U$	c #42354F",
"V$	c #5D4D6F",
"  . + @ # $             @ %               % # & & & & & & & & * @     = - ; .   ",
"  . > , ' ) ! . . . . . ~ { ] . . . . . ] { ^ / / / / / / / ( _ : . . . < [ .   ",
"  . } | 1 2 3 4 4 4 4 4 5 6 7 3 4 4 4 3 7 8 9 0 0 0 0 0 0 0 a b c 3 4 d e f g   ",
"  ! h i j k l m m m m m n o p q q q q q p o r 0 m m m m m m s ^ t u q v w x !   ",
"$ ) y z A B C k k k k C D E F G G G G F F E D H k k k k k k I J K G G L M N ) $ ",
"# ' O P Q R S S T U j V W X Y Y Y Z ` P  .W ..S S S j +.V V j @.X Y ` Z - #.' # ",
"$., . . . g g ! , %.&./ / / / / / ^ { *.. . . g g *.{ ^ / =.=./ / / &.%.-.;., $.",
"  >.,.4 4 4 4 d '.T C 0 0 0 0 0 0 9 6 ).4 4 4 4 4 ).6 !.0 0 0 0 0 ~.{.T ].} >.  ",
"  ! ^.p q q q u /.j C 0 m m m m 0 n b s m m m m m s ^ t u u u u u u (._.i h !   ",
"$ ) y F G F F G :.A B C k k k k H <.[.}.k k k k k I J K G G G G G F |.1.2.'.) $ ",
"# ' O 3.Z A _._.P Q R S _ j S S S 4.5.S S j +.V V j @.X Y Y Y 6.7._.P = 8.#.' # ",
"$., 9., ' ) ! . . . g . 0.a.*.g g . . g *.{ ^ / =.=./ / / / ( _ : . . . < < , $.",
"  >.} | 1 2 3 4 4 4 4 4 5 6 7 3 4 4 4 3 7 8 9 0 0 0 0 0 0 0 a b c 3 4 d e b.!   ",
"  ! h i j k l m m m m m n o p q q q q q p o r 0 m m m m m m s ^ t u q v w x !   ",
"$ ) y z A B C k k k k C D E F G G G G F F E D H k k k k k k I J K G G L M N ) $ ",
"# ' O P Q R S S T U j V W X Y Y Y Z ` P  .W ..S S S j +.V V j @.X Y ` Z - #.' # ",
"$., . . . g g >., %.&./ / / / / / ^ { *.. . . g g *.{ ^ / =.=./ / c.&.%.-.;., $.",
"d.e.f.g.g.g.g.4 y _ h.i.s s s s s j.k.l.7 7 7 7 7 l.k.j.s s s s s i.h.V m.n.e.d.",
"X o.p.q.r.r.r.r.s.t.u.v.w.w.w.w.x.y.z.H w.w.w.w.w.H z.y.x.w.w.w.w.x.u A.B.C.o.X ",
"D.E.F.G.H.H.H.H.I.J.K.u.u.u.u.u.u.L.M.B u.u.u.N.N.B M.L.u.N.N.u.u u O.P.Q.R.E.D.",
"S.T.S 6.U.` J.J.` V.W.X.Y.Z.t.Y.Y.`. +t.t.Z.Y.X.X.j 7..+X.j j .+++@+U ` #+$+%+S.",
"&+*+=+*+-+;+>+,+,+,+'+,+)+K !+~+~+~+~+~+!+K )+,+'+'+,+,+'+,+{+]+^+/+(+_+:+<+*+&+",
"[+}+|+1+2+3+4+4+4+4+4+4+5+6+7+8+8+8+8+8+7+6+5+4+4+4+4+4+4+4+9+0+a+b+c+d+e+f+}+[+",
"[+}+4+g+h+i+j+k+k+k+k+l+m+n+7+o+o+o+o+o+7+n+m+l+k+k+k+k+k+k+p+z q+r+s+t+u+v+,+[+",
"w+x+y+z+A+B+C+D+D+D+D+D+E+F+G+q.q.q.q.q.G+F+E+D+D+D+D+D+D+D+D+H+I+J+K+L+M+3+x+w+",
"N+O+6+P+Q+R+S+S+T+U+V+W+X+Y+Z+`+`+ @P+`+.@Y+X+W+W+V+R+U+S+S++@@@#@$@P+%@&@*@=@N+",
"Q+-@;@>@,@'@'@)@!@~@{@;@]@]@^@^@]@/@(@_@]@]@]@]@]@_@:@<@)@[@'@'@}@}@|@1@2@;@-@Q+",
"3@4@5@6@7@8@8@9@'@0@a@b@c@c@c@c@d@e@f@g@d@d@d@d@d@g@h@i@8@8@8@8@j@j@k@ @l@m@4@3@",
"Q+_@n@o@p@q@r@s@t@u@v@w@w@w@w@w@w@x@y@z@A@A@A@A@A@z@y@x@B@B@B@w@w@w@C@D@E@F@_@Q+",
"G@H@I@J@K@L@L@K@M@N@O@P@Q@Q@Q@Q@P@R@S@T@K@K@K@L@L@T@S@U@P@Q@Q@Q@V@W@X@Y@Z@`@ #.#",
"+#@###$#%#&#*#N@=#-#;#>#,#'#)#)#)#!#%#~#S@{#]#*#N@N@^#/#>#>#>#(#,#>#;#_#:#<#[#}#",
"|#1#2#1#@#3#4#5#5#5#6#5#7#)#8#9#9#0#X@X@9#)#a#4#5#5#5#5#6#6#b#c#d#e#f#g#h#i#j#k#",
"l#m#n#o#p#q#r#r#r#r#r#r#s#t#u#v#v#v#v#v#u#t#s#r#r#r#r#r#r#r#w#x#y#z#A#B#C#D#m#E#",
"F#G#H#I#J#K#L#M#M#M#M#M#N#O#P#Q#Q#Q#Q#Q#P#O#N#M#M#M#M#M#M#M#R#S#T#U#V#R#W#X#Y#Z#",
"`# $.$+$@$#$$$$$$$$$$$$$%$&$*$=$=$=$=$=$*$&$%$$$$$$$$$$$$$$$$$-$;$>$,$>$'$)$!$~$",
"{$]$^$]$/$^$^$^$($_$:$^$<$[$}$|$|$1$1$}$}$[$<$^$^$^$-$2$3$3$3$4$($5$5$6$7$8$9$Z#",
"0$0$0$0$a$0$0$b$c$d$e$b$a$0$0$0$f$g$h$i$0$0$a$0$j$i$h$g$b$k$k$a$0$0$0$0$l$m$!$n$",
"o$p$q$r$r$r$r$s$t$u$v$w$r$r$r$r$w$x$y$z$r$r$r$r$r$z$y$x$w$r$r$r$r$r$r$r$r$A$B$C$",
"D$E$F$G$G$G$G$G$H$I$J$G$G$G$G$G$G$K$L$F$G$G$G$G$G$F$L$K$G$G$G$G$G$G$G$G$G$G$M$N$",
"O$P$Q$R$R$R$R$R$R$S$R$R$R$R$R$R$R$S$S$R$R$R$R$R$R$R$S$S$R$R$R$R$R$R$R$R$R$T$U$V$"};
